<svg width="160" height="160" viewBox="0 0 160 160" fill="none" xmlns="http://www.w3.org/2000/svg">
<path d="M79.8333 140C71.7524 140 64.3845 138.635 57.7296 135.905C51.1935 133.175 45.5487 129.258 40.7953 124.154C36.1606 118.932 32.5361 112.582 29.9216 105.104C27.3072 97.5074 26 88.9614 26 79.4659C26 69.9703 27.3072 61.543 29.9216 54.184C32.5361 46.7062 36.1606 40.4748 40.7953 35.4896C45.5487 30.3858 51.1935 26.5282 57.7296 23.9169C64.3845 21.3056 71.7524 20 79.8333 20C87.7954 20 95.1039 21.3056 101.759 23.9169C108.414 26.5282 114.058 30.3858 118.693 35.4896C123.447 40.5935 127.131 46.8249 129.745 54.184C132.359 61.543 133.667 69.9703 133.667 79.4659C133.667 88.9614 132.359 97.5074 129.745 105.104C127.131 112.582 123.447 118.932 118.693 124.154C114.058 129.258 108.414 133.175 101.759 135.905C95.1039 138.635 87.7954 140 79.8333 140ZM79.8333 113.65C86.8447 113.65 92.3113 110.623 96.2329 104.57C100.273 98.3976 102.294 90.0297 102.294 79.4659C102.294 68.9021 100.273 60.7715 96.2329 55.0742C92.3113 49.2582 86.8447 46.3502 79.8333 46.3502C72.8219 46.3502 67.296 49.2582 63.2555 55.0742C59.3339 60.7715 57.3731 68.9021 57.3731 79.4659C57.3731 90.0297 59.3339 98.3976 63.2555 104.57C67.296 110.623 72.8219 113.65 79.8333 113.65Z" fill="url(#paint0_linear_510_302)"/>
<defs>
<linearGradient id="paint0_linear_510_302" x1="26.0105" y1="80.007" x2="133.694" y2="80.007" gradientUnits="userSpaceOnUse">
<stop stop-color="#3186C8"/>
<stop offset="0.18" stop-color="#269FCA"/>
<stop offset="0.38" stop-color="#1DB4CC"/>
<stop offset="0.5" stop-color="#1ABBCD"/>
<stop offset="1" stop-color="#6FC6AA"/>
</linearGradient>
</defs>
</svg>
