<?xml version="1.0" standalone="no"?>
<!DOCTYPE svg PUBLIC "-//W3C//DTD SVG 1.1//EN" "http://www.w3.org/Graphics/SVG/1.1/DTD/svg11.dtd" >
<svg xmlns="http://www.w3.org/2000/svg" xmlns:xlink="http://www.w3.org/1999/xlink" version="1.1">
<metadata>
Created by FontForge 20170731 at Tue Sep 14 13:51:34 2021
 By Aleksey,,,
(c) 2010 - 2018 Adobe Systems Incorporated (http://www.adobe.com/), with Reserved Font Name `Source'.
</metadata>
<defs>
<font id="SourceSansPro-Regular" horiz-adv-x="0" >
  <font-face 
    font-family="Source Sans Pro"
    font-weight="400"
    font-stretch="normal"
    units-per-em="1000"
    panose-1="2 11 5 3 3 4 3 2 2 4"
    ascent="750"
    descent="-250"
    x-height="486"
    cap-height="656"
    bbox="-454 -293 2159 968"
    underline-thickness="50"
    underline-position="-125"
    unicode-range="U+0021-1F16B"
  />
<missing-glyph horiz-adv-x="653" 
d="M89 0v660h476v-660h-476zM197 58h257l-73 132l-52 103h-4l-54 -103zM325 387h4l49 94l66 119h-235l66 -119zM154 110l127 230l-127 232v-462zM498 110v462l-126 -232z" />
    <glyph glyph-name="f_f" unicode="ff" horiz-adv-x="577" 
d="M381 0v419h-203v-419h-82v419h-66v62l66 5v64q0 76 37.5 120t113.5 44q50 0 89 -18l-17 -62q-30 13 -65 13q-36 0 -56 -25.5t-20 -73.5v-62h203v77q0 74 34.5 117.5t107.5 43.5q23 0 44 -4.5t37 -11.5l-18 -63q-27 12 -55 12q-68 0 -68 -94v-77h103v-67h-103v-419h-82z
" />
    <glyph glyph-name="f_t" unicode="ft" horiz-adv-x="594" 
d="M96 0v419h-66v62l66 5v77q0 74 34.5 117.5t107.5 43.5q23 0 44 -4.5t37 -11.5l-18 -63q-27 12 -55 12q-68 0 -68 -94v-77h178l10 136h68v-136h132v-67h-132v-270q0 -45 17 -69.5t59 -24.5q13 0 28 4.5t27 8.5l16 -62q-20 -7 -43.5 -12.5t-46.5 -5.5q-78 0 -108.5 45
t-30.5 117v269h-174v-419h-82z" />
    <glyph glyph-name="f_f_t" unicode="fft" horiz-adv-x="879" 
d="M381 0v419h-203v-419h-82v419h-66v62l66 5v64q0 76 37.5 120t113.5 44q50 0 89 -18l-17 -62q-30 13 -65 13q-36 0 -56 -25.5t-20 -73.5v-62h203v77q0 74 34.5 117.5t107.5 43.5q23 0 44 -4.5t37 -11.5l-18 -63q-27 12 -55 12q-68 0 -68 -94v-77h178l10 136h68v-136h132
v-67h-132v-270q0 -45 17 -69.5t59 -24.5q13 0 28 4.5t27 8.5l16 -62q-20 -7 -43.5 -12.5t-46.5 -5.5q-78 0 -108.5 45t-30.5 117v269h-174v-419h-82z" />
    <glyph glyph-name=".notdef" horiz-adv-x="653" 
d="M89 0v660h476v-660h-476zM197 58h257l-73 132l-52 103h-4l-54 -103zM325 387h4l49 94l66 119h-235l66 -119zM154 110l127 230l-127 232v-462zM498 110v462l-126 -232z" />
    <glyph glyph-name=".null" 
 />
    <glyph glyph-name="nonmarkingreturn" horiz-adv-x="333" 
 />
    <glyph glyph-name="space" unicode="&#xa0;" horiz-adv-x="200" 
 />
    <glyph glyph-name="space" unicode=" " horiz-adv-x="200" 
 />
    <glyph glyph-name="exclam" unicode="!" horiz-adv-x="289" 
d="M116 198l-11 378l-2 94h83l-2 -94l-11 -378h-57zM145 -12q-25 0 -42.5 17.5t-17.5 44.5q0 29 17.5 46.5t42.5 17.5q24 0 41.5 -17.5t17.5 -46.5q0 -27 -17.5 -44.5t-41.5 -17.5z" />
    <glyph glyph-name="quotedbl" unicode="&#x22;" horiz-adv-x="426" 
d="M99 431l-16 167l-3 92h88l-3 -92l-16 -167h-50zM276 431l-16 167l-3 92h88l-3 -92l-16 -167h-50z" />
    <glyph glyph-name="numbersign" unicode="#" horiz-adv-x="497" 
d="M90 0l25 204h-80v57h87l18 148h-85v58h92l23 183h53l-23 -183h133l24 183h53l-24 -183h81v-58h-87l-18 -148h85v-57h-92l-25 -204h-53l24 204h-132l-25 -204h-54zM176 261h132l18 148h-132z" />
    <glyph glyph-name="dollar" unicode="$" horiz-adv-x="497" 
d="M222 -110v99q-48 5 -93 26.5t-77 50.5l38 57q32 -28 70.5 -47.5t84.5 -19.5q56 0 83.5 28.5t27.5 74.5q0 41 -20 67t-52 45t-67.5 36.5t-67.5 39t-52 53.5t-20 81q0 67 40 111.5t105 54.5v101h60v-99q48 -5 81.5 -26t60.5 -50l-44 -49q-28 27 -54.5 42t-67.5 15
q-46 0 -73 -26t-27 -70q0 -36 20 -59.5t52 -40.5t67.5 -34t67.5 -39.5t52 -57.5t20 -89q0 -71 -42 -117.5t-113 -56.5v-101h-60z" />
    <glyph glyph-name="percent" unicode="%" horiz-adv-x="824" 
d="M184 254q-67 0 -108 54t-41 154q0 98 41 152t108 54t108 -54t41 -152q0 -100 -41 -154t-108 -54zM184 305q38 0 62 39.5t24 117.5t-24 116.5t-62 38.5q-39 0 -63 -38.5t-24 -116.5t24 -117.5t63 -39.5zM203 -12l362 680h56l-362 -680h-56zM641 -12q-67 0 -108 54t-41 154
q0 98 41 152t108 54t108 -54t41 -152q0 -100 -41 -154t-108 -54zM641 39q38 0 62 39.5t24 117.5t-24 116.5t-62 38.5q-39 0 -63 -38.5t-24 -116.5t24 -117.5t63 -39.5z" />
    <glyph glyph-name="ampersand" unicode="&#x26;" horiz-adv-x="609" 
d="M189 514q0 -27 8.5 -56t22.5 -59q45 30 78.5 62.5t33.5 75.5q0 29 -14.5 50.5t-47.5 21.5q-37 0 -59 -27t-22 -68zM232 -12q-59 0 -104.5 23.5t-70.5 64.5t-25 94q0 44 18.5 78t47.5 61t63 50q-20 41 -31.5 79.5t-11.5 74.5q0 44 19 79t53.5 55.5t79.5 20.5q61 0 95 -36
t34 -94q0 -43 -22 -77t-55.5 -62t-70.5 -55q32 -50 76 -97.5t90 -86.5q30 41 53.5 89.5t38.5 104.5h77q-19 -64 -47.5 -123.5t-67.5 -111.5q34 -23 65 -39t58 -24l-22 -68q-34 10 -72.5 28.5t-78.5 46.5q-37 -34 -84 -54.5t-105 -20.5zM112 175q0 -55 37.5 -88t91.5 -33
q34 0 65.5 14t59.5 39q-48 42 -92.5 92t-79.5 103q-34 -28 -58 -58.5t-24 -68.5z" />
    <glyph glyph-name="quotesingle" unicode="'" horiz-adv-x="249" 
d="M99 431l-16 167l-3 92h88l-3 -92l-16 -167h-50z" />
    <glyph glyph-name="parenleft" unicode="(" horiz-adv-x="303" 
d="M214 -176q-62 101 -97 211.5t-35 242.5t35 243t97 211l51 -24q-58 -95 -86.5 -205.5t-28.5 -224.5t28.5 -224.5t86.5 -205.5z" />
    <glyph glyph-name="parenright" unicode=")" horiz-adv-x="303" 
d="M89 -176l-51 24q58 95 86.5 205.5t28.5 224.5t-28.5 224.5t-86.5 205.5l51 24q62 -100 97 -211t35 -243t-35 -242.5t-97 -211.5z" />
    <glyph glyph-name="asterisk" unicode="*" horiz-adv-x="418" 
d="M138 420l-40 29l57 94l-97 40l15 46l102 -25l9 108h49l9 -107l103 24l15 -46l-97 -40l56 -94l-39 -29l-71 86z" />
    <glyph glyph-name="plus" unicode="+" horiz-adv-x="497" 
d="M216 104v195h-182v62h182v195h65v-195h182v-62h-182v-195h-65z" />
    <glyph glyph-name="comma" unicode="," horiz-adv-x="249" 
d="M67 -170l-20 48q43 19 67 50.5t23 71.5q-2 -1 -5 -1h-5q-24 0 -41.5 14.5t-17.5 42.5q0 27 18 42.5t43 15.5q32 0 50.5 -26t18.5 -71q0 -64 -35 -112.5t-96 -74.5z" />
    <glyph glyph-name="hyphen" unicode="&#x2011;" horiz-adv-x="311" 
d="M41 219v63h230v-63h-230z" />
    <glyph glyph-name="hyphen" unicode="&#x2010;" horiz-adv-x="311" 
d="M41 219v63h230v-63h-230z" />
    <glyph glyph-name="hyphen" unicode="&#xad;" horiz-adv-x="311" 
d="M41 219v63h230v-63h-230z" />
    <glyph glyph-name="hyphen" unicode="-" horiz-adv-x="311" 
d="M41 219v63h230v-63h-230z" />
    <glyph glyph-name="period" unicode="." horiz-adv-x="249" 
d="M125 -12q-25 0 -42.5 17.5t-17.5 44.5q0 29 17.5 46.5t42.5 17.5q24 0 41.5 -17.5t17.5 -46.5q0 -27 -17.5 -44.5t-41.5 -17.5z" />
    <glyph glyph-name="slash" unicode="/" horiz-adv-x="350" 
d="M10 -160l267 870h60l-267 -870h-60z" />
    <glyph glyph-name="zero" unicode="0" horiz-adv-x="497" 
d="M249 -12q-96 0 -150.5 86.5t-54.5 246.5q0 161 54.5 245t150.5 84q95 0 149.5 -84t54.5 -245q0 -160 -54.5 -246.5t-149.5 -86.5zM249 54q56 0 90 63.5t34 203.5t-34 201.5t-90 61.5t-90.5 -61.5t-34.5 -201.5t34.5 -203.5t90.5 -63.5z" />
    <glyph glyph-name="one" unicode="1" horiz-adv-x="497" 
d="M79 0v68h146v470h-116v53q44 8 76.5 19.5t58.5 27.5h63v-570h132v-68h-360z" />
    <glyph glyph-name="two" unicode="2" horiz-adv-x="497" 
d="M40 0v49q96 96 163 168.5t102 131t35 109.5q0 55 -30 90t-91 35q-40 0 -74 -22.5t-62 -54.5l-47 47q40 44 85.5 70.5t107.5 26.5q89 0 140 -51.5t51 -136.5q0 -60 -33.5 -121.5t-92 -129t-134.5 -146.5q26 2 54 4t53 2h185v-71h-412z" />
    <glyph glyph-name="three" unicode="3" horiz-adv-x="497" 
d="M236 -12q-76 0 -127 27.5t-83 62.5l42 54q29 -30 68 -53t95 -23q58 0 95 32t37 85q0 38 -19.5 66.5t-64 44.5t-120.5 16v63q68 0 107.5 16t56.5 43t17 60q0 47 -29.5 74t-80.5 27q-40 0 -73.5 -18t-62.5 -47l-44 52q37 35 82 57.5t101 22.5q83 0 137 -42.5t54 -119.5
q0 -58 -32 -95t-84 -57v-4q58 -13 98 -54.5t40 -107.5q0 -56 -28 -97t-75.5 -63t-106.5 -22z" />
    <glyph glyph-name="four" unicode="4" horiz-adv-x="497" 
d="M104 242h200v185q0 26 2 62t3 61h-4q-12 -23 -25 -45t-27 -45zM304 0v176h-287v54l273 408h92v-396h87v-66h-87v-176h-78z" />
    <glyph glyph-name="five" unicode="5" horiz-adv-x="497" 
d="M234 -12q-76 0 -126 27t-83 60l40 54q29 -28 67 -50.5t94 -22.5q59 0 99.5 39.5t40.5 106.5q0 66 -37 103t-99 37q-33 0 -56.5 -10t-52.5 -29l-44 28l21 307h319v-71h-247l-17 -189q23 12 46 19t52 7q55 0 99.5 -21.5t71.5 -65.5t27 -113t-30.5 -117.5t-79.5 -73.5
t-105 -25z" />
    <glyph glyph-name="six" unicode="6" horiz-adv-x="497" 
d="M261 328q-31 0 -67 -20t-66 -64q8 -93 43.5 -142t96.5 -49q47 0 79 38.5t32 101.5q0 62 -29.5 98.5t-88.5 36.5zM268 -12q-62 0 -112 34t-79 102.5t-29 170.5q0 128 34.5 206t90 113.5t118.5 35.5q52 0 89.5 -19.5t64.5 -48.5l-46 -51q-19 23 -47 36.5t-58 13.5
q-45 0 -82 -25.5t-60.5 -85t-25.5 -160.5q30 37 70 58.5t79 21.5q83 0 132.5 -49.5t49.5 -147.5q0 -61 -26 -107t-68.5 -72t-94.5 -26z" />
    <glyph glyph-name="seven" unicode="7" horiz-adv-x="497" 
d="M177 0q6 120 25.5 215.5t58 180t101.5 171.5h-318v71h411v-51q-57 -72 -93 -138.5t-56 -134t-30 -144.5t-14 -170h-85z" />
    <glyph glyph-name="eight" unicode="8" horiz-adv-x="497" 
d="M250 -12q-60 0 -107 22.5t-74.5 62.5t-27.5 90q0 42 17.5 74.5t45 57t57.5 40.5v4q-35 25 -62 61t-27 86q0 49 24 86t65 57.5t92 20.5q83 0 131.5 -48t48.5 -122q0 -33 -14 -62.5t-34 -53t-40 -38.5v-4q29 -16 54 -38t41 -52.5t16 -73.5q0 -47 -25.5 -86t-72 -61.5
t-108.5 -22.5zM295 348q32 29 49.5 61t17.5 67q0 47 -29 80t-82 33q-44 0 -73.5 -28t-29.5 -75q0 -38 20.5 -63t54.5 -42.5t72 -32.5zM252 49q56 0 90.5 31.5t34.5 80.5q0 41 -24 67t-63.5 45t-85.5 37q-38 -25 -63.5 -60t-25.5 -79q0 -53 39.5 -87.5t97.5 -34.5z" />
    <glyph glyph-name="nine" unicode="9" horiz-adv-x="497" 
d="M117 445q0 -62 29.5 -98.5t88.5 -36.5q32 0 67.5 20t66.5 65q-8 93 -44 141.5t-97 48.5q-46 0 -78.5 -38.5t-32.5 -101.5zM205 -12q-51 0 -89.5 19.5t-64.5 47.5l46 52q20 -23 47.5 -37t57.5 -14q45 0 83 26t61.5 86t24.5 162q-30 -38 -70 -60t-80 -22q-82 0 -131.5 49.5
t-49.5 147.5q0 61 26 107t68.5 72t93.5 26q63 0 113 -34t78.5 -102t28.5 -171q0 -128 -34.5 -206t-89.5 -113.5t-119 -35.5z" />
    <glyph glyph-name="colon" unicode=":" horiz-adv-x="249" 
d="M125 349q-25 0 -42.5 17.5t-17.5 44.5q0 29 17.5 46.5t42.5 17.5q24 0 41.5 -17.5t17.5 -46.5q0 -27 -17.5 -44.5t-41.5 -17.5zM125 -12q-25 0 -42.5 17.5t-17.5 44.5q0 29 17.5 46.5t42.5 17.5q24 0 41.5 -17.5t17.5 -46.5q0 -27 -17.5 -44.5t-41.5 -17.5z" />
    <glyph glyph-name="semicolon" unicode=";" horiz-adv-x="249" 
d="M125 349q-25 0 -42.5 17.5t-17.5 44.5q0 29 17.5 46.5t42.5 17.5q24 0 41.5 -17.5t17.5 -46.5q0 -27 -17.5 -44.5t-41.5 -17.5zM67 -170l-20 48q43 19 67 50.5t23 71.5q-2 -1 -5 -1h-5q-24 0 -41.5 14.5t-17.5 42.5q0 27 18 42.5t43 15.5q32 0 50.5 -26t18.5 -71
q0 -64 -35 -112.5t-96 -74.5z" />
    <glyph glyph-name="less" unicode="&#x3c;" horiz-adv-x="497" 
d="M463 131l-429 168v66l429 168v-71l-211 -78l-134 -50v-4l134 -50l211 -78v-71z" />
    <glyph glyph-name="equal" unicode="=" horiz-adv-x="497" 
d="M34 406v62h429v-62h-429zM34 192v62h429v-62h-429z" />
    <glyph glyph-name="greater" unicode="&#x3e;" horiz-adv-x="497" 
d="M34 131v71l211 78l134 50v4l-134 50l-211 78v71l429 -168v-66z" />
    <glyph glyph-name="question" unicode="?" horiz-adv-x="425" 
d="M160 198q-7 47 5 83t33.5 66t44 57t38.5 54t16 59q0 40 -24.5 68.5t-72.5 28.5q-33 0 -62.5 -15.5t-52.5 -42.5l-47 43q32 36 74.5 59.5t97.5 23.5q76 0 121.5 -43t45.5 -117q0 -39 -16 -70.5t-39.5 -59.5t-45.5 -57t-35.5 -62t-8.5 -75h-72zM198 -12q-25 0 -42 17.5
t-17 44.5q0 29 17 46.5t42 17.5t42.5 -17.5t17.5 -46.5q0 -27 -17.5 -44.5t-42.5 -17.5z" />
    <glyph glyph-name="at" unicode="@" horiz-adv-x="847" 
d="M403 -155q-98 0 -178 41t-127 121t-47 196q0 101 33 182.5t91.5 139.5t133.5 89.5t159 31.5q101 0 174.5 -41.5t113.5 -116t40 -173.5q0 -87 -31 -146.5t-77 -89.5t-92 -30q-40 0 -69 19.5t-34 56.5h-2q-25 -29 -57 -48.5t-65 -19.5q-51 0 -85.5 36.5t-34.5 104.5
q0 40 13.5 81t38.5 75t60.5 55t79.5 21q26 0 46.5 -11.5t33.5 -36.5h2l11 40h55l-39 -200q-30 -117 54 -117q32 0 62.5 24.5t51 71t20.5 111.5q0 81 -31.5 144t-93 99t-152.5 36q-67 0 -129.5 -27t-112.5 -77.5t-79 -121.5t-29 -159q0 -97 39 -165.5t106.5 -104.5t152.5 -36
q46 0 87 13t75 32l22 -49q-43 -26 -90.5 -38.5t-99.5 -12.5zM385 113q21 0 44 14t48 45l29 159q-14 23 -29 32.5t-35 9.5q-39 0 -67.5 -27t-44 -66t-15.5 -77q0 -48 20 -69t50 -21z" />
    <glyph glyph-name="A" unicode="A" horiz-adv-x="544" 
d="M203 367l-31 -100h197l-31 100q-18 55 -34 109.5t-32 111.5h-4q-15 -57 -31 -111.5t-34 -109.5zM3 0l222 656h94l222 -656h-89l-62 200h-239l-63 -200h-85z" />
    <glyph glyph-name="B" unicode="B" horiz-adv-x="588" 
d="M90 0v656h195q67 0 117.5 -16t79 -51t28.5 -93q0 -49 -24.5 -88.5t-71.5 -54.5v-4q59 -11 96.5 -50t37.5 -107q0 -64 -31.5 -107t-87.5 -64t-130 -21h-209zM173 377h97q84 0 121 29t37 79q0 57 -38.5 81t-115.5 24h-101v-213zM173 66h114q85 0 132 31.5t47 97.5
q0 61 -46.5 89.5t-132.5 28.5h-114v-247z" />
    <glyph glyph-name="C" unicode="C" horiz-adv-x="571" 
d="M338 -12q-82 0 -146.5 40.5t-102 116.5t-37.5 183q0 106 38 182t104 117t149 41q60 0 106 -24.5t74 -56.5l-45 -54q-26 28 -59 45t-75 17q-62 0 -108.5 -32.5t-72 -91.5t-25.5 -141t25 -142.5t70.5 -93.5t107.5 -33q47 0 84 20t68 54l46 -52q-39 -45 -88 -70t-113 -25z
" />
    <glyph glyph-name="D" unicode="D" horiz-adv-x="615" 
d="M90 0v656h164q152 0 231 -84.5t79 -240.5q0 -157 -78.5 -244t-227.5 -87h-168zM173 68h75q115 0 172.5 69.5t57.5 193.5t-57.5 190.5t-172.5 66.5h-75v-520z" />
    <glyph glyph-name="E" unicode="E" horiz-adv-x="527" 
d="M90 0v656h378v-70h-295v-206h249v-71h-249v-238h305v-71h-388z" />
    <glyph glyph-name="F" unicode="F" horiz-adv-x="494" 
d="M90 0v656h378v-70h-295v-222h250v-70h-250v-294h-83z" />
    <glyph glyph-name="G" unicode="G" horiz-adv-x="617" 
d="M348 -12q-86 0 -153 40.5t-105 116.5t-38 183q0 106 39 182t107 117t155 41q68 0 114.5 -25.5t74.5 -55.5l-46 -54q-25 26 -58 44t-83 18q-66 0 -115 -32.5t-75.5 -91.5t-26.5 -141q0 -124 56.5 -196.5t161.5 -72.5q35 0 67 10.5t51 28.5v171h-139v69h215v-276
q-31 -33 -83.5 -54.5t-118.5 -21.5z" />
    <glyph glyph-name="H" unicode="H" horiz-adv-x="652" 
d="M90 0v656h83v-275h305v275h84v-656h-84v309h-305v-309h-83z" />
    <glyph glyph-name="I" unicode="I" horiz-adv-x="263" 
d="M90 0v656h83v-656h-83z" />
    <glyph glyph-name="J" unicode="J" horiz-adv-x="480" 
d="M212 -12q-123 0 -181 105l60 42q22 -39 50 -56.5t63 -17.5q53 0 79 32.5t26 107.5v455h84v-463q0 -56 -18.5 -103t-58.5 -74.5t-104 -27.5z" />
    <glyph glyph-name="K" unicode="K" horiz-adv-x="579" 
d="M90 0v656h83v-329h3l273 329h94l-205 -250l237 -406h-93l-196 341l-113 -133v-208h-83z" />
    <glyph glyph-name="L" unicode="L" horiz-adv-x="486" 
d="M90 0v656h83v-585h287v-71h-370z" />
    <glyph glyph-name="M" unicode="M" horiz-adv-x="727" 
d="M90 0v656h100l126 -350q12 -34 23.5 -68.5t23.5 -68.5h4q12 34 22.5 68.5t22.5 68.5l124 350h101v-656h-78v361q0 44 4 97.5t7 96.5h-4l-52 -149l-124 -340h-55l-124 340l-52 149h-4q3 -43 6.5 -96.5t3.5 -97.5v-361h-75z" />
    <glyph glyph-name="N" unicode="N" horiz-adv-x="647" 
d="M90 0v656h86l237 -412l71 -136h4q-3 50 -6.5 103.5t-3.5 105.5v339h79v-656h-86l-238 413l-71 135h-4q4 -49 7.5 -101t3.5 -104v-343h-79z" />
    <glyph glyph-name="O" unicode="O" horiz-adv-x="664" 
d="M332 -12q-82 0 -145.5 42t-99 119t-35.5 182t35.5 180.5t99 116t145.5 40.5q83 0 146 -40.5t99 -116t36 -180.5t-36 -182t-99 -119t-146 -42zM332 61q59 0 102.5 33.5t67.5 94t24 142.5q0 122 -53 193t-141 71t-141 -71t-53 -193q0 -82 24 -142.5t68 -94t102 -33.5z" />
    <glyph glyph-name="P" unicode="P" horiz-adv-x="566" 
d="M90 0v656h187q74 0 129 -18t86 -60.5t31 -114.5q0 -103 -67 -153t-175 -50h-108v-260h-83zM173 328h98q86 0 127.5 32.5t41.5 102.5q0 71 -43.5 98.5t-129.5 27.5h-94v-261z" />
    <glyph glyph-name="Q" unicode="Q" horiz-adv-x="664" 
d="M332 57q59 0 102.5 33.5t67.5 95t24 145.5q0 122 -53 193t-141 71t-141 -71t-53 -193q0 -84 24 -145.5t68 -95t102 -33.5zM533 -165q-91 0 -152 44.5t-90 111.5q-71 10 -125 54t-84 117t-30 169q0 105 35.5 180.5t99 116t145.5 40.5q83 0 146 -40.5t99 -116t36 -180.5
q0 -94 -29 -166t-81 -116.5t-122 -56.5q23 -43 65.5 -65t95.5 -22q22 0 39 2.5t30 6.5l16 -64q-15 -6 -40 -10.5t-54 -4.5z" />
    <glyph glyph-name="R" unicode="R" horiz-adv-x="569" 
d="M90 0v656h205q67 0 119 -17.5t81.5 -58t29.5 -108.5q0 -76 -40 -122.5t-108 -63.5l167 -286h-94l-158 277h-119v-277h-83zM173 345h110q77 0 118 31.5t41 95.5q0 65 -41 91t-118 26h-110v-244z" />
    <glyph glyph-name="S" unicode="S" horiz-adv-x="534" 
d="M272 -12q-69 0 -128 26.5t-102 70.5l50 58q35 -37 82.5 -59.5t98.5 -22.5q65 0 101 29.5t36 77.5q0 34 -14.5 54t-39 34t-55.5 28l-94 41q-31 13 -61.5 34t-51 54t-20.5 81q0 50 26.5 89.5t73.5 62t106 22.5t109 -22.5t85 -58.5l-45 -54q-30 29 -66.5 45.5t-82.5 16.5
q-55 0 -88.5 -26t-33.5 -70q0 -31 16.5 -51.5t41.5 -33.5t51 -24l93 -40q38 -16 68.5 -38.5t48.5 -55t18 -81.5q0 -52 -27 -94.5t-77 -67.5t-119 -25z" />
    <glyph glyph-name="T" unicode="T" horiz-adv-x="536" 
d="M226 0v586h-198v70h480v-70h-198v-586h-84z" />
    <glyph glyph-name="U" unicode="U" horiz-adv-x="645" 
d="M323 -12q-67 0 -120.5 27t-84.5 89t-31 167v385h83v-387q0 -79 20.5 -124.5t55 -64.5t77.5 -19q44 0 79 19t55.5 64.5t20.5 124.5v387h80v-385q0 -105 -31 -167t-84 -89t-120 -27z" />
    <glyph glyph-name="V" unicode="V" horiz-adv-x="515" 
d="M210 0l-210 656h89l105 -354q18 -58 31.5 -108.5t32.5 -108.5h4q18 58 32 108.5t31 108.5l105 354h85l-208 -656h-97z" />
    <glyph glyph-name="W" unicode="W" horiz-adv-x="786" 
d="M162 0l-139 656h86l69 -357q9 -53 19 -106t19 -106h4q11 53 23 106.5t23 105.5l91 357h76l91 -357q12 -52 24 -105.5t24 -106.5h4q9 53 18 106.5t19 105.5l69 357h80l-136 -656h-100l-99 395q-9 38 -16.5 74.5t-15.5 74.5h-4q-7 -38 -16 -74.5t-17 -74.5l-97 -395h-99z
" />
    <glyph glyph-name="X" unicode="X" horiz-adv-x="513" 
d="M15 0l191 339l-178 317h92l89 -168q13 -22 24.5 -44t26.5 -51h4q14 29 24.5 51t22.5 44l87 168h88l-179 -321l191 -335h-92l-96 177q-13 24 -26.5 49.5t-29.5 55.5h-4q-14 -30 -27 -55.5t-25 -49.5l-95 -177h-88z" />
    <glyph glyph-name="Y" unicode="Y" horiz-adv-x="476" 
d="M196 0v254l-197 402h89l85 -185q16 -36 31.5 -71t31.5 -72h4q17 37 34 72t32 71l84 185h87l-197 -402v-254h-84z" />
    <glyph glyph-name="Z" unicode="Z" horiz-adv-x="539" 
d="M45 0v50l345 536h-314v70h418v-49l-346 -536h349v-71h-452z" />
    <glyph glyph-name="bracketleft" unicode="[" horiz-adv-x="303" 
d="M94 -152v860h179v-47h-117v-766h117v-47h-179z" />
    <glyph glyph-name="backslash" unicode="\" horiz-adv-x="350" 
d="M281 -160l-267 870h59l267 -870h-59z" />
    <glyph glyph-name="bracketright" unicode="]" horiz-adv-x="303" 
d="M31 -152v47h116v766h-116v47h178v-860h-178z" />
    <glyph glyph-name="asciicircum" unicode="^" horiz-adv-x="497" 
d="M60 284l152 386h73l152 -386h-72l-65 176l-49 133h-4l-50 -133l-65 -176h-72z" />
    <glyph glyph-name="underscore" unicode="_" horiz-adv-x="500" 
d="M12 -126v55h476v-55h-476z" />
    <glyph glyph-name="grave" unicode="`" horiz-adv-x="542" 
d="M285 573l-157 153l58 55l141 -167z" />
    <glyph glyph-name="a" unicode="a" horiz-adv-x="504" 
d="M194 -12q-61 0 -101.5 36.5t-40.5 101.5q0 80 71.5 122.5t226.5 59.5q0 31 -8.5 59t-30 45.5t-61.5 17.5q-42 0 -79 -16t-66 -36l-32 57q34 22 83.5 42.5t107.5 20.5q89 0 129 -54.5t40 -145.5v-298h-68l-7 58h-3q-34 -28 -74.5 -49t-86.5 -21zM218 54q35 0 66 17t66 48
v135q-121 -15 -169.5 -45t-48.5 -77q0 -41 25 -59.5t61 -18.5z" />
    <glyph glyph-name="b" unicode="b" horiz-adv-x="553" 
d="M297 -12q-34 0 -70.5 16.5t-68.5 45.5h-3l-7 -50h-66v712h82v-194l-2 -88q33 29 72.5 48.5t79.5 19.5q95 0 144 -67t49 -180q0 -83 -29.5 -142t-77 -90t-103.5 -31zM283 57q60 0 99.5 51.5t39.5 141.5q0 80 -29.5 129.5t-98.5 49.5q-31 0 -63 -17t-67 -49v-255
q32 -28 63.5 -39.5t55.5 -11.5z" />
    <glyph glyph-name="c" unicode="c" horiz-adv-x="456" 
d="M274 -12q-64 0 -116 30t-82 87t-30 137q0 82 32.5 139t86 87t115.5 30q48 0 82.5 -17t59.5 -40l-42 -54q-21 19 -44.5 31t-52.5 12q-44 0 -78.5 -23.5t-54 -66t-19.5 -98.5q0 -83 41.5 -134.5t108.5 -51.5q34 0 63 14.5t51 34.5l36 -55q-33 -29 -73 -45.5t-84 -16.5z" />
    <glyph glyph-name="d" unicode="d" horiz-adv-x="555" 
d="M248 -12q-91 0 -146 66.5t-55 187.5q0 79 29.5 136.5t78 88.5t103.5 31q42 0 73 -15t63 -41l-4 83v187h83v-712h-68l-7 57h-3q-28 -28 -66 -48.5t-81 -20.5zM266 57q64 0 124 67v254q-31 28 -59.5 39.5t-58.5 11.5q-39 0 -70.5 -23.5t-50.5 -65t-19 -97.5
q0 -87 35 -136.5t99 -49.5z" />
    <glyph glyph-name="e" unicode="e" horiz-adv-x="496" 
d="M279 -12q-65 0 -118 30.5t-84 87.5t-31 136q0 80 31.5 137t81.5 88t105 31q93 0 143.5 -62t50.5 -166q0 -13 -0.5 -25.5t-2.5 -21.5h-328q5 -77 48.5 -123t113.5 -46q35 0 64.5 10.5t56.5 27.5l29 -54q-31 -20 -70.5 -35t-89.5 -15zM126 282h260q0 74 -31.5 112.5
t-88.5 38.5q-51 0 -91.5 -39.5t-48.5 -111.5z" />
    <glyph glyph-name="f" unicode="f" horiz-adv-x="292" 
d="M96 0v419h-66v62l66 5v77q0 74 34.5 117.5t107.5 43.5q23 0 44 -4.5t37 -11.5l-18 -63q-27 12 -55 12q-68 0 -68 -94v-77h103v-67h-103v-419h-82z" />
    <glyph glyph-name="g" unicode="g" horiz-adv-x="504" 
d="M246 -224q-89 0 -145 34t-56 97q0 31 19 59.5t52 50.5v4q-18 11 -30.5 31t-12.5 48q0 31 17 54t36 36v4q-24 20 -43.5 54t-19.5 77q0 53 25 92t67 60t91 21q20 0 38 -3.5t31 -8.5h169v-63h-100q17 -16 28.5 -42.5t11.5 -57.5q0 -52 -24 -90t-64 -58.5t-90 -20.5
q-39 0 -73 17q-13 -11 -22 -24.5t-9 -33.5q0 -23 18.5 -38t67.5 -15h94q85 0 127.5 -27.5t42.5 -88.5q0 -45 -30 -83t-85 -61.5t-131 -23.5zM246 209q42 0 72.5 31.5t30.5 84.5t-30 83t-73 30t-73 -30t-30 -83t30.5 -84.5t72.5 -31.5zM258 -167q70 0 112 30.5t42 68.5
q0 34 -25.5 47t-72.5 13h-84q-14 0 -30.5 2t-32.5 6q-26 -19 -38 -40t-12 -42q0 -39 37.5 -62t103.5 -23z" />
    <glyph glyph-name="h" unicode="h" horiz-adv-x="544" 
d="M82 0v712h82v-194l-3 -100q35 33 73.5 56.5t88.5 23.5q77 0 112.5 -48.5t35.5 -141.5v-308h-82v297q0 68 -22 99t-70 31q-37 0 -66.5 -19t-66.5 -56v-352h-82z" />
    <glyph glyph-name="i" unicode="i" horiz-adv-x="246" 
d="M82 0v486h82v-486h-82zM124 586q-24 0 -39.5 14.5t-15.5 39.5q0 24 15.5 39t39.5 15t39.5 -15t15.5 -39q0 -25 -15.5 -39.5t-39.5 -14.5z" />
    <glyph glyph-name="j" unicode="j" horiz-adv-x="247" 
d="M32 -217q-22 0 -40.5 4t-31.5 9l17 62q9 -3 21 -5.5t25 -2.5q36 0 48 25.5t12 69.5v541h82v-541q0 -74 -30 -118t-103 -44zM123 586q-24 0 -39.5 14.5t-15.5 39.5q0 24 15.5 39t39.5 15t39.5 -15t15.5 -39q0 -25 -15.5 -39.5t-39.5 -14.5z" />
    <glyph glyph-name="k" unicode="k" horiz-adv-x="495" 
d="M82 0v712h81v-482h3l207 256h91l-163 -195l185 -291h-90l-142 234l-91 -106v-128h-81z" />
    <glyph glyph-name="l" unicode="l" horiz-adv-x="255" 
d="M169 -12q-46 0 -66.5 28.5t-20.5 81.5v614h82v-620q0 -19 7 -27.5t16 -8.5q4 0 7.5 0.5l10.5 1.5l11 -62q-8 -4 -19 -6t-28 -2z" />
    <glyph glyph-name="m" unicode="m" horiz-adv-x="829" 
d="M82 0v486h68l7 -70h3q32 35 70 58.5t81 23.5q56 0 87.5 -24.5t46.5 -68.5q38 41 77 67t83 26q75 0 111.5 -48.5t36.5 -141.5v-308h-82v297q0 68 -22 99t-68 31q-54 0 -122 -75v-352h-82v297q0 68 -22 99t-69 31q-54 0 -122 -75v-352h-82z" />
    <glyph glyph-name="n" unicode="n" horiz-adv-x="547" 
d="M82 0v486h68l7 -70h3q35 35 74 58.5t89 23.5q77 0 112.5 -48.5t35.5 -141.5v-308h-82v297q0 68 -22 99t-70 31q-37 0 -66.5 -19t-66.5 -56v-352h-82z" />
    <glyph glyph-name="o" unicode="o" horiz-adv-x="542" 
d="M271 -12q-59 0 -110.5 30t-83 87t-31.5 137q0 82 31.5 139t83 87t110.5 30q60 0 111 -30t82.5 -87t31.5 -139q0 -80 -31.5 -137t-82.5 -87t-111 -30zM271 56q63 0 101.5 51.5t38.5 134.5q0 84 -38.5 136t-101.5 52q-62 0 -101 -52t-39 -136q0 -83 39 -134.5t101 -51.5z
" />
    <glyph glyph-name="p" unicode="p" horiz-adv-x="555" 
d="M82 -205v691h68l7 -56h3q33 28 72.5 48t82.5 20q94 0 143 -67.5t49 -180.5q0 -82 -29.5 -141t-77 -90t-103.5 -31q-34 0 -67.5 15t-67.5 41l2 -85v-164h-82zM283 57q60 0 99.5 51.5t39.5 141.5q0 80 -29.5 129.5t-98.5 49.5q-31 0 -62.5 -17t-67.5 -49v-255
q33 -28 64 -39.5t55 -11.5z" />
    <glyph glyph-name="q" unicode="q" horiz-adv-x="555" 
d="M390 -205v173l4 88q-29 -28 -66.5 -48t-79.5 -20q-91 0 -146 66.5t-55 187.5q0 79 29.5 136.5t78 88.5t103.5 31q42 0 74 -14.5t65 -43.5h2l8 46h66v-691h-83zM266 57q64 0 124 67v254q-31 28 -59.5 39.5t-58.5 11.5q-39 0 -70.5 -23.5t-50.5 -65t-19 -97.5
q0 -87 35 -136.5t99 -49.5z" />
    <glyph glyph-name="r" unicode="r" horiz-adv-x="347" 
d="M82 0v486h68l7 -88h3q25 46 61 73t77 27q29 0 52 -10l-16 -72q-12 4 -22 6t-25 2q-31 0 -64.5 -25t-58.5 -87v-312h-82z" />
    <glyph glyph-name="s" unicode="s" horiz-adv-x="419" 
d="M209 -12q-52 0 -99 19.5t-82 47.5l41 55q32 -25 66 -41.5t77 -16.5q48 0 72 22.5t24 53.5q0 25 -16.5 42t-42 28.5t-52.5 21.5q-34 13 -67 29.5t-54 43t-21 67.5q0 59 44.5 98.5t123.5 39.5q45 0 84 -16t67 -39l-40 -52q-25 19 -52 31t-59 12q-46 0 -67.5 -21t-21.5 -49
q0 -23 15 -37.5t39 -25t51 -21.5q35 -13 69 -29.5t56.5 -44t22.5 -73.5q0 -39 -20.5 -72t-60 -53t-97.5 -20z" />
    <glyph glyph-name="t" unicode="t" horiz-adv-x="338" 
d="M235 -12q-78 0 -108.5 45t-30.5 117v269h-72v62l76 5l10 136h69v-136h131v-67h-131v-270q0 -45 16.5 -69.5t58.5 -24.5q13 0 28 4.5t27 8.5l16 -62q-20 -7 -43.5 -12.5t-46.5 -5.5z" />
    <glyph glyph-name="u" unicode="u" horiz-adv-x="544" 
d="M224 -12q-77 0 -113 48.5t-36 141.5v308h83v-297q0 -68 21.5 -99t69.5 -31q38 0 67.5 19.5t63.5 62.5v345h82v-486h-68l-7 76h-3q-34 -40 -72 -64t-88 -24z" />
    <glyph glyph-name="v" unicode="v" horiz-adv-x="467" 
d="M187 0l-175 486h85l92 -276q11 -36 22.5 -72t22.5 -71h4q11 35 22.5 71t21.5 72l92 276h81l-172 -486h-96z" />
    <glyph glyph-name="w" unicode="w" horiz-adv-x="718" 
d="M159 0l-135 486h84l72 -281q8 -34 15 -67.5t14 -67.5h4q8 34 16 67.5t17 67.5l75 281h80l76 -281q9 -34 17.5 -67.5t16.5 -67.5h4q8 34 15.5 67.5t14.5 67.5l71 281h78l-130 -486h-100l-70 261q-9 35 -16.5 69t-16.5 71h-4q-8 -37 -16 -71.5t-18 -69.5l-68 -260h-96z" />
    <glyph glyph-name="x" unicode="x" horiz-adv-x="446" 
d="M14 0l159 254l-147 232h89l65 -107q11 -19 23 -40t25 -41h4q11 20 22 41t22 40l59 107h86l-147 -241l158 -245h-89l-71 113l-26 44t-27 43h-4q-13 -21 -25 -42.5t-24 -44.5l-66 -113h-86z" />
    <glyph glyph-name="y" unicode="y" horiz-adv-x="467" 
d="M90 -209q-16 0 -30.5 3t-26.5 7l16 65l18 -4.5t19 -2.5q41 0 68 29.5t42 74.5l11 36l-195 487h85l99 -269q11 -31 23.5 -67t23.5 -70h4q11 33 21 69t20 68l87 269h80l-183 -526q-17 -48 -40.5 -86t-58 -60.5t-83.5 -22.5z" />
    <glyph glyph-name="z" unicode="z" horiz-adv-x="425" 
d="M31 0v44l256 375h-228v67h332v-44l-256 -375h264v-67h-368z" />
    <glyph glyph-name="braceleft" unicode="{" horiz-adv-x="303" 
d="M228 -152q-59 0 -88 28t-29 105q0 55 4.5 99t4.5 94q0 29 -17.5 53t-68.5 25v52q51 1 68.5 25t17.5 52q0 51 -4.5 95t-4.5 99q0 77 29 105t88 28h45v-47h-27q-40 0 -54 -21t-14 -70q0 -46 3 -88t3 -93q0 -49 -14 -74.5t-46 -34.5v-4q32 -9 46 -35t14 -74q0 -51 -3 -93
t-3 -88q0 -49 14 -70t54 -21h27v-47h-45z" />
    <glyph glyph-name="bar" unicode="|" horiz-adv-x="241" 
d="M92 -250v1000h58v-1000h-58z" />
    <glyph glyph-name="braceright" unicode="}" horiz-adv-x="303" 
d="M31 -152v47h26q41 0 54.5 21t13.5 70q0 46 -2.5 88t-2.5 93q0 48 13.5 74t45.5 35v4q-32 9 -45.5 34.5t-13.5 74.5q0 51 2.5 93t2.5 88q0 49 -13.5 70t-54.5 21h-26v47h44q60 0 88.5 -28t28.5 -105q0 -55 -4.5 -99t-4.5 -95q0 -28 18 -52t68 -25v-52q-50 -1 -68 -25
t-18 -53q0 -50 4.5 -94t4.5 -99q0 -77 -28.5 -105t-88.5 -28h-44z" />
    <glyph glyph-name="asciitilde" unicode="~" horiz-adv-x="497" 
d="M336 257q-30 0 -53.5 12.5t-43.5 29.5t-39.5 29.5t-40.5 12.5q-22 0 -41 -14.5t-36 -46.5l-46 33q27 48 60 69t65 21q30 0 53.5 -12.5t43.5 -29.5t39.5 -29.5t40.5 -12.5q22 0 41 14.5t36 46.5l46 -34q-27 -47 -60 -68t-65 -21z" />
    <glyph glyph-name="exclamdown" unicode="&#xa1;" horiz-adv-x="289" 
d="M103 -184l2 94l11 378h57l11 -378l2 -94h-83zM145 372q-25 0 -42.5 18t-17.5 46q0 27 17.5 44.5t42.5 17.5q24 0 41.5 -17.5t17.5 -44.5q0 -28 -17.5 -46t-41.5 -18z" />
    <glyph glyph-name="cent" unicode="&#xa2;" horiz-adv-x="497" 
d="M262 -33v104q-89 11 -145 72t-56 167q0 69 26.5 119t72.5 80t102 38v106h52v-103q44 -2 76 -19t55 -39l-40 -52q-20 18 -42.5 29.5t-48.5 12.5v-344q32 2 58 15.5t46 31.5l36 -52q-29 -26 -65 -43t-75 -20v-103h-52zM143 310q0 -67 31.5 -111t87.5 -57v335
q-55 -13 -87 -57t-32 -110z" />
    <glyph glyph-name="sterling" unicode="&#xa3;" horiz-adv-x="497" 
d="M54 0v50q51 28 78.5 76t27.5 104q0 14 -2 28t-5 27h-100v52l67 4h18q-10 32 -18.5 63t-8.5 62q0 85 51.5 134.5t134.5 49.5q53 0 91 -21.5t64 -53.5l-48 -47q-19 23 -43 38t-58 15q-54 0 -82.5 -32.5t-28.5 -84.5q0 -31 7.5 -61t16.5 -62h159v-56h-146q2 -13 3.5 -27
t1.5 -29q0 -52 -16 -87.5t-46 -66.5v-4h281v-71h-399z" />
    <glyph glyph-name="currency" unicode="&#xa4;" horiz-adv-x="497" 
d="M70 103l-44 45l64 65q-36 49 -36 116q0 68 36 117l-64 66l44 45l68 -70q48 37 111 37q62 0 110 -37l68 70l44 -45l-65 -66q17 -23 27 -52.5t10 -64.5q0 -34 -10 -63.5t-27 -52.5l65 -65l-44 -45l-68 69q-23 -19 -52 -28.5t-58 -9.5q-64 0 -111 38zM249 195q48 0 83 37
t35 97t-35 97t-83 37q-49 0 -84 -37t-35 -97t35 -97t84 -37z" />
    <glyph glyph-name="yen" unicode="&#xa5;" horiz-adv-x="497" 
d="M207 0v158h-162v48h162v65h-162v47h141l-163 320h86l78 -171q15 -33 29.5 -66.5t30.5 -68.5h4q17 35 31.5 68.5t29.5 66.5l78 171h84l-164 -320h142v-47h-163v-65h163v-48h-163v-158h-82z" />
    <glyph glyph-name="brokenbar" unicode="&#xa6;" horiz-adv-x="241" 
d="M92 291v459h58v-459h-58zM92 -250v464h58v-464h-58z" />
    <glyph glyph-name="section" unicode="&#xa7;" horiz-adv-x="497" 
d="M236 -64q-53 0 -97.5 19t-75.5 52l50 45q25 -24 54 -38t69 -14t62.5 20.5t22.5 48.5q0 29 -20 47.5t-51.5 33t-66.5 29.5t-66.5 35.5t-51.5 51.5t-20 77q0 44 24.5 76t61.5 53q-15 16 -23.5 36t-8.5 46q0 52 38.5 91t113.5 39q47 0 86.5 -17t67.5 -40l-40 -53
q-24 20 -51 33t-60 13q-42 0 -60.5 -18.5t-18.5 -44.5q0 -27 20 -45.5t51.5 -33t67 -29.5t67 -36t51.5 -52t20 -77q0 -47 -23.5 -77t-61.5 -52q14 -16 22 -36t8 -46q0 -39 -20.5 -70t-57 -49t-83.5 -18zM117 348q0 -33 19.5 -54.5t50.5 -37.5t66.5 -30.5t66.5 -32.5
q29 14 44.5 33t15.5 52q0 34 -19.5 56t-50.5 38t-66 30.5t-66 32.5q-28 -16 -44.5 -36t-16.5 -51z" />
    <glyph glyph-name="dieresis" unicode="&#xa8;" horiz-adv-x="542" 
d="M175 587q-22 0 -36 14.5t-14 35.5t14 35.5t36 14.5q21 0 35 -14.5t14 -35.5t-14 -35.5t-35 -14.5zM367 587q-21 0 -35 14.5t-14 35.5t14 35.5t35 14.5q22 0 36 -14.5t14 -35.5t-14 -35.5t-36 -14.5z" />
    <glyph glyph-name="copyright" unicode="&#xa9;" horiz-adv-x="744" 
d="M372 -11q-65 0 -123.5 23.5t-103.5 67t-70.5 105.5t-25.5 138t25.5 137t70.5 104t103.5 66t123.5 23t123.5 -23t103.5 -66t70.5 -104t25.5 -137t-25.5 -138t-70.5 -105.5t-103.5 -67t-123.5 -23.5zM372 31q76 0 138.5 36.5t100 102.5t37.5 153t-37.5 152t-100 101
t-138.5 36q-75 0 -138 -36t-100.5 -101t-37.5 -152t37.5 -153t100.5 -102.5t138 -36.5zM380 125q-50 0 -91.5 23.5t-66 68t-24.5 106.5q0 58 26 100.5t68.5 65.5t90.5 23q42 0 71.5 -16.5t53.5 -40.5l-35 -39q-20 20 -40.5 30.5t-46.5 10.5q-55 0 -88.5 -37.5t-33.5 -96.5
q0 -66 32.5 -104.5t86.5 -38.5q32 0 56 12.5t46 31.5l30 -42q-28 -24 -59 -40.5t-76 -16.5z" />
    <glyph glyph-name="ordfeminine" unicode="&#xaa;" horiz-adv-x="345" 
d="M136 387q-44 0 -71.5 25.5t-27.5 68.5q0 53 48 81t151 38q-1 32 -14 52.5t-48 20.5q-26 0 -53.5 -10.5t-47.5 -23.5l-23 43q25 15 59.5 28.5t73.5 13.5q60 0 87.5 -35t27.5 -98v-196h-50l-7 37h-4q-20 -18 -45 -31.5t-56 -13.5zM154 436q39 0 82 40v85
q-77 -8 -107.5 -27.5t-30.5 -47.5q0 -25 15.5 -37.5t40.5 -12.5z" />
    <glyph glyph-name="guillemotleft" unicode="&#xab;" horiz-adv-x="429" 
d="M181 66l-136 155v62l136 155l36 -30l-118 -156l118 -158zM339 66l-136 155v62l136 155l36 -30l-118 -156l118 -158z" />
    <glyph glyph-name="logicalnot" unicode="&#xac;" horiz-adv-x="497" 
d="M397 104v195h-363v62h429v-257h-66z" />
    <glyph glyph-name="registered" unicode="&#xae;" horiz-adv-x="423" 
d="M211 319q-51 0 -94 25t-68.5 69.5t-25.5 102.5q0 59 25.5 103t68.5 69t94 25q52 0 95 -25t68.5 -69t25.5 -103q0 -58 -25.5 -102.5t-68.5 -69.5t-95 -25zM211 356q42 0 75.5 20t53.5 56.5t20 83.5t-20 83.5t-53.5 57t-75.5 20.5t-75.5 -20.5t-53 -57t-19.5 -83.5
t19.5 -83.5t53 -56.5t75.5 -20zM139 417v203h76q32 0 55 -14.5t23 -50.5q0 -18 -10 -33.5t-27 -21.5l46 -83h-46l-35 70h-41v-70h-41zM180 519h26q43 0 43 34q0 15 -9 24t-32 9h-28v-67z" />
    <glyph glyph-name="macron" unicode="&#xaf;" horiz-adv-x="542" 
d="M138 601v57h266v-57h-266z" />
    <glyph glyph-name="degree" unicode="&#xb0;" horiz-adv-x="331" 
d="M166 429q-33 0 -61.5 15.5t-46 44.5t-17.5 67q0 59 37.5 94t87.5 35t87.5 -35t37.5 -94q0 -38 -17.5 -67t-45.5 -44.5t-62 -15.5zM166 475q33 0 54 23t21 58q0 37 -21 60t-54 23t-54 -23t-21 -60q0 -35 21 -58t54 -23z" />
    <glyph glyph-name="plusminus" unicode="&#xb1;" horiz-adv-x="497" 
d="M216 127v177h-182v62h182v190h65v-190h182v-62h-182v-177h-65zM34 0v62h429v-62h-429z" />
    <glyph glyph-name="two.sups" unicode="&#xb2;" horiz-adv-x="367" 
d="M52 395v37q91 82 138 133.5t47 95.5q0 38 -20 60t-55 22q-25 0 -46 -16.5t-38 -40.5l-38 35q23 34 56.5 55t73.5 21q59 0 94.5 -32t35.5 -94q0 -37 -19 -71.5t-51.5 -70.5t-74.5 -79h165v-55h-268z" />
    <glyph glyph-name="three.sups" unicode="&#xb3;" horiz-adv-x="367" 
d="M180 383q-47 0 -84.5 21.5t-60.5 54.5l43 33q18 -27 43 -42.5t56 -15.5q32 0 55 18t23 52t-32 51.5t-89 17.5v41q50 0 78 20t28 50q0 28 -19.5 45t-51.5 17q-22 0 -42 -13.5t-37 -33.5l-39 34q26 29 57 46.5t71 17.5q50 0 87 -27.5t37 -77.5q0 -34 -19 -58t-49 -38
q33 -8 58.5 -32.5t25.5 -63.5q0 -54 -41 -85.5t-98 -31.5z" />
    <glyph glyph-name="acute" unicode="&#xb4;" horiz-adv-x="542" 
d="M257 573l-42 41l141 167l58 -55z" />
    <glyph glyph-name="mu" unicode="&#x3bc;" horiz-adv-x="562" 
d="M82 -179v665h82v-297q0 -64 21 -97t68 -33q33 0 64 17.5t65 77.5v332h83q-1 -98 -3.5 -200.5t-2.5 -190.5q0 -20 10 -29.5t26 -9.5q13 0 29 6l11 -62q-10 -5 -24 -8.5t-34 -3.5q-41 0 -62 22.5t-26 71.5h-2q-26 -46 -60.5 -69t-74.5 -23q-29 0 -53 9.5t-41 37.5
q1 -48 1.5 -82t2 -64.5t3.5 -69.5h-83z" />
    <glyph glyph-name="mu" unicode="&#xb5;" horiz-adv-x="562" 
d="M82 -179v665h82v-297q0 -64 21 -97t68 -33q33 0 64 17.5t65 77.5v332h83q-1 -98 -3.5 -200.5t-2.5 -190.5q0 -20 10 -29.5t26 -9.5q13 0 29 6l11 -62q-10 -5 -24 -8.5t-34 -3.5q-41 0 -62 22.5t-26 71.5h-2q-26 -46 -60.5 -69t-74.5 -23q-29 0 -53 9.5t-41 37.5
q1 -48 1.5 -82t2 -64.5t3.5 -69.5h-83z" />
    <glyph glyph-name="paragraph" unicode="&#xb6;" horiz-adv-x="560" 
d="M380 -80v736h84v-736h-84zM293 226q-72 0 -129 23t-90 71t-33 123q0 79 31.5 125.5t86 67t123.5 20.5h44v-430h-33z" />
    <glyph glyph-name="periodcentered" unicode="&#xb7;" horiz-adv-x="249" 
d="M125 259q-25 0 -42.5 17.5t-17.5 44.5q0 29 17.5 46.5t42.5 17.5q24 0 41.5 -17.5t17.5 -46.5q0 -27 -17.5 -44.5t-41.5 -17.5z" />
    <glyph glyph-name="cedilla" unicode="&#xb8;" horiz-adv-x="542" 
d="M190 -226l-8 40q63 5 86 16.5t23 33.5q0 20 -17 31t-60 17l44 91h53l-29 -67q35 -8 54 -24t19 -47q0 -43 -42.5 -65t-122.5 -26z" />
    <glyph glyph-name="one.sups" unicode="&#xb9;" horiz-adv-x="367" 
d="M172 395v308h-85v42q33 6 55 15.5t42 24.5h52v-390h-64z" />
    <glyph glyph-name="ordmasculine" unicode="&#xba;" horiz-adv-x="365" 
d="M182 387q-41 0 -76 20t-55.5 57.5t-20.5 90.5q0 54 20.5 92t55.5 57.5t76 19.5t75.5 -19.5t55.5 -57.5t21 -92q0 -53 -21 -90.5t-55.5 -57.5t-75.5 -20zM182 438q41 0 64.5 32.5t23.5 84.5q0 53 -23.5 85.5t-64.5 32.5t-65 -32.5t-24 -85.5q0 -52 24 -84.5t65 -32.5z" />
    <glyph glyph-name="guillemotright" unicode="&#xbb;" horiz-adv-x="429" 
d="M89 66l-35 28l118 158l-118 156l35 30l137 -155v-62zM247 66l-35 28l118 158l-118 156l35 30l137 -155v-62z" />
    <glyph glyph-name="onequarter" unicode="&#xbc;" horiz-adv-x="781" 
d="M148 266v308h-85v42q33 6 55 15.5t42 24.5h52v-390h-64zM180 -12l362 680h56l-362 -680h-56zM522 150h111v70l4 109h-4l-50 -81zM633 0v104h-178v33l164 253h72v-240h58v-46h-58v-104h-58z" />
    <glyph glyph-name="onehalf" unicode="&#xbd;" horiz-adv-x="808" 
d="M148 266v308h-85v42q33 6 55 15.5t42 24.5h52v-390h-64zM160 -12l362 680h56l-362 -680h-56zM493 0v37q91 82 138 133.5t47 95.5q0 38 -20 60t-55 22q-25 0 -46 -16.5t-38 -40.5l-38 35q23 34 56.5 55t73.5 21q59 0 94.5 -32t35.5 -94q0 -37 -19 -71.5t-51.5 -70.5
t-74.5 -79h165v-55h-268z" />
    <glyph glyph-name="threequarters" unicode="&#xbe;" horiz-adv-x="796" 
d="M179 254q-47 0 -84.5 21.5t-60.5 54.5l43 33q18 -27 43 -42.5t56 -15.5q32 0 55 18t23 52t-32 51.5t-89 17.5v41q50 0 78 20t28 50q0 28 -19.5 45t-51.5 17q-22 0 -42 -13.5t-37 -33.5l-39 34q26 29 57 46.5t71 17.5q50 0 87 -27.5t37 -77.5q0 -34 -19 -58t-49 -38
q33 -8 58.5 -32.5t25.5 -63.5q0 -54 -41 -85.5t-98 -31.5zM218 -12l362 680h56l-362 -680h-56zM537 150h111v70l4 109h-4l-50 -81zM648 0v104h-178v33l164 253h72v-240h58v-46h-58v-104h-58z" />
    <glyph glyph-name="questiondown" unicode="&#xbf;" horiz-adv-x="425" 
d="M215 -196q-76 0 -121.5 43t-45.5 117q0 39 16 70.5t39.5 59.5t45.5 57t35 62t8 75h73q7 -47 -5 -83t-33.5 -66t-44 -57t-38.5 -54t-16 -59q0 -40 24 -68t73 -28q33 0 62 15t52 42l48 -43q-32 -35 -74.5 -59t-97.5 -24zM227 372q-25 0 -42.5 18t-17.5 46q0 27 17.5 44.5
t42.5 17.5q24 0 41.5 -17.5t17.5 -44.5q0 -28 -17.5 -46t-41.5 -18z" />
    <glyph glyph-name="Agrave" unicode="&#xc0;" horiz-adv-x="544" 
d="M203 367l-31 -100h197l-31 100q-18 55 -34 109.5t-32 111.5h-4q-15 -57 -31 -111.5t-34 -109.5zM3 0l222 656h94l222 -656h-89l-62 200h-239l-63 -200h-85zM288 697l-152 115l47 55l142 -128z" />
    <glyph glyph-name="Aacute" unicode="&#xc1;" horiz-adv-x="544" 
d="M203 367l-31 -100h197l-31 100q-18 55 -34 109.5t-32 111.5h-4q-15 -57 -31 -111.5t-34 -109.5zM3 0l222 656h94l222 -656h-89l-62 200h-239l-63 -200h-85zM254 697l-37 42l142 128l47 -55z" />
    <glyph glyph-name="Acircumflex" unicode="&#xc2;" horiz-adv-x="544" 
d="M203 367l-31 -100h197l-31 100q-18 55 -34 109.5t-32 111.5h-4q-15 -57 -31 -111.5t-34 -109.5zM3 0l222 656h94l222 -656h-89l-62 200h-239l-63 -200h-85zM159 699l-36 26l105 113h86l105 -113l-36 -26l-110 93h-4z" />
    <glyph glyph-name="Atilde" unicode="&#xc3;" horiz-adv-x="544" 
d="M203 367l-31 -100h197l-31 100q-18 55 -34 109.5t-32 111.5h-4q-15 -57 -31 -111.5t-34 -109.5zM3 0l222 656h94l222 -656h-89l-62 200h-239l-63 -200h-85zM346 709q-28 0 -48.5 10.5t-36 25t-30.5 25t-33 10.5q-19 0 -32 -17t-16 -49l-56 4q3 57 30 90t72 33
q28 0 48.5 -10.5t36 -25t30.5 -25t33 -10.5q40 0 48 66l56 -4q-3 -58 -30 -90.5t-72 -32.5z" />
    <glyph glyph-name="Adieresis" unicode="&#xc4;" horiz-adv-x="544" 
d="M203 367l-31 -100h197l-31 100q-18 55 -34 109.5t-32 111.5h-4q-15 -57 -31 -111.5t-34 -109.5zM3 0l222 656h94l222 -656h-89l-62 200h-239l-63 -200h-85zM168 715q-21 0 -35 14t-14 35q0 22 14 35.5t35 13.5q22 0 35.5 -13.5t13.5 -35.5q0 -21 -13.5 -35t-35.5 -14z
M374 715q-22 0 -35.5 14t-13.5 35q0 22 13.5 35.5t35.5 13.5q21 0 35 -13.5t14 -35.5q0 -21 -14 -35t-35 -14z" />
    <glyph glyph-name="Aring" unicode="&#xc5;" horiz-adv-x="544" 
d="M203 367l-31 -100h197l-31 100q-18 55 -34 109.5t-32 111.5h-4q-15 -57 -31 -111.5t-34 -109.5zM3 0l222 656h94l222 -656h-89l-62 200h-239l-63 -200h-85zM271 699q-42 0 -69.5 25t-27.5 65q0 41 27.5 66t69.5 25q41 0 69 -25t28 -66q0 -40 -28 -65t-69 -25zM271 735
q20 0 35.5 14t15.5 40t-15.5 40t-35.5 14q-22 0 -37 -14t-15 -40t15 -40t37 -14z" />
    <glyph glyph-name="AE" unicode="&#xc6;" horiz-adv-x="822" 
d="M290 376l-61 -118h172v332h-4q-53 -107 -107 -214zM8 0l344 656h411v-70h-278v-206h232v-71h-232v-238h288v-71h-372v191h-206l-99 -191h-88z" />
    <glyph glyph-name="Ccedilla" unicode="&#xc7;" horiz-adv-x="571" 
d="M338 -12q-82 0 -146.5 40.5t-102 116.5t-37.5 183q0 106 38 182t104 117t149 41q60 0 106 -24.5t74 -56.5l-45 -54q-26 28 -59 45t-75 17q-62 0 -108.5 -32.5t-72 -91.5t-25.5 -141t25 -142.5t70.5 -93.5t107.5 -33q47 0 84 20t68 54l46 -52q-39 -45 -88 -70t-113 -25z
M256 -226l-8 40q63 5 86 16.5t23 33.5q0 20 -17 31t-60 17l44 91h53l-29 -67q35 -8 54 -24t19 -47q0 -43 -42.5 -65t-122.5 -26z" />
    <glyph glyph-name="Egrave" unicode="&#xc8;" horiz-adv-x="527" 
d="M90 0v656h378v-70h-295v-206h249v-71h-249v-238h305v-71h-388zM307 697l-152 115l47 55l142 -128z" />
    <glyph glyph-name="Eacute" unicode="&#xc9;" horiz-adv-x="527" 
d="M90 0v656h378v-70h-295v-206h249v-71h-249v-238h305v-71h-388zM273 697l-37 42l142 128l47 -55z" />
    <glyph glyph-name="Ecircumflex" unicode="&#xca;" horiz-adv-x="527" 
d="M90 0v656h378v-70h-295v-206h249v-71h-249v-238h305v-71h-388zM178 699l-36 26l105 113h86l105 -113l-36 -26l-110 93h-4z" />
    <glyph glyph-name="Edieresis" unicode="&#xcb;" horiz-adv-x="527" 
d="M90 0v656h378v-70h-295v-206h249v-71h-249v-238h305v-71h-388zM187 715q-21 0 -35 14t-14 35q0 22 14 35.5t35 13.5q22 0 35.5 -13.5t13.5 -35.5q0 -21 -13.5 -35t-35.5 -14zM393 715q-22 0 -35.5 14t-13.5 35q0 22 13.5 35.5t35.5 13.5q21 0 35 -13.5t14 -35.5
q0 -21 -14 -35t-35 -14z" />
    <glyph glyph-name="Igrave" unicode="&#xcc;" horiz-adv-x="263" 
d="M90 0v656h83v-656h-83zM149 697l-152 115l47 55l142 -128z" />
    <glyph glyph-name="Iacute" unicode="&#xcd;" horiz-adv-x="263" 
d="M90 0v656h83v-656h-83zM115 697l-37 42l142 128l47 -55z" />
    <glyph glyph-name="Icircumflex" unicode="&#xce;" horiz-adv-x="263" 
d="M90 0v656h83v-656h-83zM20 699l-36 26l105 113h86l105 -113l-36 -26l-110 93h-4z" />
    <glyph glyph-name="Idieresis" unicode="&#xcf;" horiz-adv-x="263" 
d="M90 0v656h83v-656h-83zM29 715q-21 0 -35 14t-14 35q0 22 14 35.5t35 13.5q22 0 35.5 -13.5t13.5 -35.5q0 -21 -13.5 -35t-35.5 -14zM235 715q-22 0 -35.5 14t-13.5 35q0 22 13.5 35.5t35.5 13.5q21 0 35 -13.5t14 -35.5q0 -21 -14 -35t-35 -14z" />
    <glyph glyph-name="Eth" unicode="&#xd0;" horiz-adv-x="638" 
d="M112 0v321h-79v43l79 4v288h164q152 0 231 -84.5t79 -240.5q0 -157 -78.5 -244t-227.5 -87h-168zM195 68h75q115 0 172.5 69.5t57.5 193.5t-57.5 190.5t-172.5 66.5h-75v-220h149v-47h-149v-253z" />
    <glyph glyph-name="Ntilde" unicode="&#xd1;" horiz-adv-x="647" 
d="M90 0v656h86l237 -412l71 -136h4q-3 50 -6.5 103.5t-3.5 105.5v339h79v-656h-86l-238 413l-71 135h-4q4 -49 7.5 -101t3.5 -104v-343h-79zM409 709q-28 0 -48.5 10.5t-36 25t-30.5 25t-33 10.5q-19 0 -32 -17t-16 -49l-56 4q3 57 30 90t72 33q28 0 48.5 -10.5t36 -25
t30.5 -25t33 -10.5q40 0 48 66l56 -4q-3 -58 -30 -90.5t-72 -32.5z" />
    <glyph glyph-name="Ograve" unicode="&#xd2;" horiz-adv-x="664" 
d="M332 -12q-82 0 -145.5 42t-99 119t-35.5 182t35.5 180.5t99 116t145.5 40.5q83 0 146 -40.5t99 -116t36 -180.5t-36 -182t-99 -119t-146 -42zM332 61q59 0 102.5 33.5t67.5 94t24 142.5q0 122 -53 193t-141 71t-141 -71t-53 -193q0 -82 24 -142.5t68 -94t102 -33.5z
M349 697l-152 115l47 55l142 -128z" />
    <glyph glyph-name="Oacute" unicode="&#xd3;" horiz-adv-x="664" 
d="M332 -12q-82 0 -145.5 42t-99 119t-35.5 182t35.5 180.5t99 116t145.5 40.5q83 0 146 -40.5t99 -116t36 -180.5t-36 -182t-99 -119t-146 -42zM332 61q59 0 102.5 33.5t67.5 94t24 142.5q0 122 -53 193t-141 71t-141 -71t-53 -193q0 -82 24 -142.5t68 -94t102 -33.5z
M315 697l-37 42l142 128l47 -55z" />
    <glyph glyph-name="Ocircumflex" unicode="&#xd4;" horiz-adv-x="664" 
d="M332 -12q-82 0 -145.5 42t-99 119t-35.5 182t35.5 180.5t99 116t145.5 40.5q83 0 146 -40.5t99 -116t36 -180.5t-36 -182t-99 -119t-146 -42zM332 61q59 0 102.5 33.5t67.5 94t24 142.5q0 122 -53 193t-141 71t-141 -71t-53 -193q0 -82 24 -142.5t68 -94t102 -33.5z
M220 699l-36 26l105 113h86l105 -113l-36 -26l-110 93h-4z" />
    <glyph glyph-name="Otilde" unicode="&#xd5;" horiz-adv-x="664" 
d="M332 -12q-82 0 -145.5 42t-99 119t-35.5 182t35.5 180.5t99 116t145.5 40.5q83 0 146 -40.5t99 -116t36 -180.5t-36 -182t-99 -119t-146 -42zM332 61q59 0 102.5 33.5t67.5 94t24 142.5q0 122 -53 193t-141 71t-141 -71t-53 -193q0 -82 24 -142.5t68 -94t102 -33.5z
M407 709q-28 0 -48.5 10.5t-36 25t-30.5 25t-33 10.5q-19 0 -32 -17t-16 -49l-56 4q3 57 30 90t72 33q28 0 48.5 -10.5t36 -25t30.5 -25t33 -10.5q40 0 48 66l56 -4q-3 -58 -30 -90.5t-72 -32.5z" />
    <glyph glyph-name="Odieresis" unicode="&#xd6;" horiz-adv-x="664" 
d="M332 -12q-82 0 -145.5 42t-99 119t-35.5 182t35.5 180.5t99 116t145.5 40.5q83 0 146 -40.5t99 -116t36 -180.5t-36 -182t-99 -119t-146 -42zM332 61q59 0 102.5 33.5t67.5 94t24 142.5q0 122 -53 193t-141 71t-141 -71t-53 -193q0 -82 24 -142.5t68 -94t102 -33.5z
M229 715q-21 0 -35 14t-14 35q0 22 14 35.5t35 13.5q22 0 35.5 -13.5t13.5 -35.5q0 -21 -13.5 -35t-35.5 -14zM435 715q-22 0 -35.5 14t-13.5 35q0 22 13.5 35.5t35.5 13.5q21 0 35 -13.5t14 -35.5q0 -21 -14 -35t-35 -14z" />
    <glyph glyph-name="multiply" unicode="&#xd7;" horiz-adv-x="497" 
d="M94 126l-44 45l155 159l-155 158l44 45l155 -159l154 159l44 -45l-155 -158l155 -159l-44 -45l-154 160z" />
    <glyph glyph-name="Oslash" unicode="&#xd8;" horiz-adv-x="664" 
d="M96 -30l-46 36l70 91q-31 44 -48 103t-17 131q0 105 35.5 180.5t99 116t145.5 40.5q104 0 176 -63l62 81l46 -35l-69 -89q32 -43 49 -101.5t17 -129.5q0 -105 -36 -182t-99 -119t-146 -42q-104 0 -175 65zM141 331q0 -48 8.5 -89.5t24.5 -73.5l288 373q-51 54 -127 54
q-88 0 -141 -71t-53 -193zM335 61q59 0 102.5 33.5t67.5 94t24 142.5q0 48 -8.5 88.5t-24.5 71.5l-287 -374q50 -56 126 -56z" />
    <glyph glyph-name="Ugrave" unicode="&#xd9;" horiz-adv-x="645" 
d="M323 -12q-67 0 -120.5 27t-84.5 89t-31 167v385h83v-387q0 -79 20.5 -124.5t55 -64.5t77.5 -19q44 0 79 19t55.5 64.5t20.5 124.5v387h80v-385q0 -105 -31 -167t-84 -89t-120 -27zM339 697l-152 115l47 55l142 -128z" />
    <glyph glyph-name="Uacute" unicode="&#xda;" horiz-adv-x="645" 
d="M323 -12q-67 0 -120.5 27t-84.5 89t-31 167v385h83v-387q0 -79 20.5 -124.5t55 -64.5t77.5 -19q44 0 79 19t55.5 64.5t20.5 124.5v387h80v-385q0 -105 -31 -167t-84 -89t-120 -27zM305 697l-37 42l142 128l47 -55z" />
    <glyph glyph-name="Ucircumflex" unicode="&#xdb;" horiz-adv-x="645" 
d="M323 -12q-67 0 -120.5 27t-84.5 89t-31 167v385h83v-387q0 -79 20.5 -124.5t55 -64.5t77.5 -19q44 0 79 19t55.5 64.5t20.5 124.5v387h80v-385q0 -105 -31 -167t-84 -89t-120 -27zM210 699l-36 26l105 113h86l105 -113l-36 -26l-110 93h-4z" />
    <glyph glyph-name="Udieresis" unicode="&#xdc;" horiz-adv-x="645" 
d="M323 -12q-67 0 -120.5 27t-84.5 89t-31 167v385h83v-387q0 -79 20.5 -124.5t55 -64.5t77.5 -19q44 0 79 19t55.5 64.5t20.5 124.5v387h80v-385q0 -105 -31 -167t-84 -89t-120 -27zM219 715q-21 0 -35 14t-14 35q0 22 14 35.5t35 13.5q22 0 35.5 -13.5t13.5 -35.5
q0 -21 -13.5 -35t-35.5 -14zM425 715q-22 0 -35.5 14t-13.5 35q0 22 13.5 35.5t35.5 13.5q21 0 35 -13.5t14 -35.5q0 -21 -14 -35t-35 -14z" />
    <glyph glyph-name="Yacute" unicode="&#xdd;" horiz-adv-x="476" 
d="M196 0v254l-197 402h89l85 -185q16 -36 31.5 -71t31.5 -72h4q17 37 34 72t32 71l84 185h87l-197 -402v-254h-84zM221 697l-37 42l142 128l47 -55z" />
    <glyph glyph-name="Thorn" unicode="&#xde;" horiz-adv-x="583" 
d="M90 0v656h83v-110h118q73 0 127 -18.5t84.5 -60.5t30.5 -114q0 -104 -67 -153.5t-175 -49.5h-118v-150h-83zM173 218h108q86 0 127.5 32.5t41.5 102.5q0 71 -42 98t-127 27h-108v-260z" />
    <glyph glyph-name="germandbls" unicode="&#xdf;" horiz-adv-x="576" 
d="M387 -12q-41 0 -75.5 13.5t-65.5 35.5l33 58q52 -43 106 -43q41 0 62.5 24.5t21.5 55.5q0 35 -20 56t-49 36t-58.5 31.5t-49.5 41.5t-20 67q0 34 13.5 58.5t30.5 46t30.5 45t13.5 54.5q0 38 -21 62.5t-62 24.5q-53 0 -83 -39t-30 -116v-500h-82v515q0 94 51 150.5
t145 56.5q53 0 89 -20t55 -53t19 -73q0 -37 -13.5 -64t-32 -48.5t-32 -42.5t-13.5 -47q0 -29 20 -46.5t49.5 -32t58.5 -33t49 -47.5t20 -78q0 -63 -43 -106t-117 -43z" />
    <glyph glyph-name="agrave" unicode="&#xe0;" horiz-adv-x="504" 
d="M194 -12q-61 0 -101.5 36.5t-40.5 101.5q0 80 71.5 122.5t226.5 59.5q0 31 -8.5 59t-30 45.5t-61.5 17.5q-42 0 -79 -16t-66 -36l-32 57q34 22 83.5 42.5t107.5 20.5q89 0 129 -54.5t40 -145.5v-298h-68l-7 58h-3q-34 -28 -74.5 -49t-86.5 -21zM218 54q35 0 66 17t66 48
v135q-121 -15 -169.5 -45t-48.5 -77q0 -41 25 -59.5t61 -18.5zM281 573l-157 153l58 55l141 -167z" />
    <glyph glyph-name="aacute" unicode="&#xe1;" horiz-adv-x="504" 
d="M194 -12q-61 0 -101.5 36.5t-40.5 101.5q0 80 71.5 122.5t226.5 59.5q0 31 -8.5 59t-30 45.5t-61.5 17.5q-42 0 -79 -16t-66 -36l-32 57q34 22 83.5 42.5t107.5 20.5q89 0 129 -54.5t40 -145.5v-298h-68l-7 58h-3q-34 -28 -74.5 -49t-86.5 -21zM218 54q35 0 66 17t66 48
v135q-121 -15 -169.5 -45t-48.5 -77q0 -41 25 -59.5t61 -18.5zM253 573l-42 41l141 167l58 -55z" />
    <glyph glyph-name="acircumflex" unicode="&#xe2;" horiz-adv-x="504" 
d="M194 -12q-61 0 -101.5 36.5t-40.5 101.5q0 80 71.5 122.5t226.5 59.5q0 31 -8.5 59t-30 45.5t-61.5 17.5q-42 0 -79 -16t-66 -36l-32 57q34 22 83.5 42.5t107.5 20.5q89 0 129 -54.5t40 -145.5v-298h-68l-7 58h-3q-34 -28 -74.5 -49t-86.5 -21zM218 54q35 0 66 17t66 48
v135q-121 -15 -169.5 -45t-48.5 -77q0 -41 25 -59.5t61 -18.5zM112 600l114 140h82l114 -140l-35 -32l-118 113h-4l-118 -113z" />
    <glyph glyph-name="atilde" unicode="&#xe3;" horiz-adv-x="504" 
d="M194 -12q-61 0 -101.5 36.5t-40.5 101.5q0 80 71.5 122.5t226.5 59.5q0 31 -8.5 59t-30 45.5t-61.5 17.5q-42 0 -79 -16t-66 -36l-32 57q34 22 83.5 42.5t107.5 20.5q89 0 129 -54.5t40 -145.5v-298h-68l-7 58h-3q-34 -28 -74.5 -49t-86.5 -21zM218 54q35 0 66 17t66 48
v135q-121 -15 -169.5 -45t-48.5 -77q0 -41 25 -59.5t61 -18.5zM339 577q-27 0 -46 12.5t-34.5 29.5t-30.5 29.5t-32 12.5q-22 0 -33.5 -22t-13.5 -57l-55 3q2 59 25.5 97.5t75.5 38.5q27 0 46 -12.5t35 -29.5t30.5 -29.5t32.5 -12.5q22 0 33 22.5t13 56.5l55 -4
q-2 -58 -25.5 -96.5t-75.5 -38.5z" />
    <glyph glyph-name="adieresis" unicode="&#xe4;" horiz-adv-x="504" 
d="M194 -12q-61 0 -101.5 36.5t-40.5 101.5q0 80 71.5 122.5t226.5 59.5q0 31 -8.5 59t-30 45.5t-61.5 17.5q-42 0 -79 -16t-66 -36l-32 57q34 22 83.5 42.5t107.5 20.5q89 0 129 -54.5t40 -145.5v-298h-68l-7 58h-3q-34 -28 -74.5 -49t-86.5 -21zM218 54q35 0 66 17t66 48
v135q-121 -15 -169.5 -45t-48.5 -77q0 -41 25 -59.5t61 -18.5zM171 587q-22 0 -36 14.5t-14 35.5t14 35.5t36 14.5q21 0 35 -14.5t14 -35.5t-14 -35.5t-35 -14.5zM363 587q-21 0 -35 14.5t-14 35.5t14 35.5t35 14.5q22 0 36 -14.5t14 -35.5t-14 -35.5t-36 -14.5z" />
    <glyph glyph-name="aring" unicode="&#xe5;" horiz-adv-x="504" 
d="M194 -12q-61 0 -101.5 36.5t-40.5 101.5q0 80 71.5 122.5t226.5 59.5q0 31 -8.5 59t-30 45.5t-61.5 17.5q-42 0 -79 -16t-66 -36l-32 57q34 22 83.5 42.5t107.5 20.5q89 0 129 -54.5t40 -145.5v-298h-68l-7 58h-3q-34 -28 -74.5 -49t-86.5 -21zM218 54q35 0 66 17t66 48
v135q-121 -15 -169.5 -45t-48.5 -77q0 -41 25 -59.5t61 -18.5zM267 554q-50 0 -80 28t-30 71q0 42 30 70t80 28t80 -28t30 -70q0 -43 -30 -71t-80 -28zM267 591q24 0 40.5 17t16.5 45t-16.5 44.5t-40.5 16.5t-40.5 -16.5t-16.5 -44.5t16.5 -45t40.5 -17z" />
    <glyph glyph-name="ae" unicode="&#xe6;" horiz-adv-x="785" 
d="M201 -12q-61 0 -102 36.5t-41 101.5q0 80 71.5 122.5t222.5 59.5q0 31 -8 59t-29.5 45.5t-61.5 17.5t-76 -16t-65 -36l-33 57q34 22 82 42.5t102 20.5t89 -28t50 -75q29 47 70 75t90 28q89 0 137 -62.5t48 -166.5q0 -28 -3 -46h-315q3 -76 46 -122t105 -46q35 0 63 11.5
t55 28.5l30 -57q-31 -20 -69.5 -35t-88.5 -15q-61 0 -102 27.5t-69 63.5q-102 -91 -198 -91zM224 54q34 0 74 19.5t73 55.5q-8 19 -13 45.5t-6 54.5v25q-115 -15 -164 -45t-49 -77q0 -41 24.5 -59.5t60.5 -18.5zM429 278h246q0 75 -29.5 115t-85.5 40q-50 0 -87 -42
t-44 -113z" />
    <glyph glyph-name="ccedilla" unicode="&#xe7;" horiz-adv-x="456" 
d="M274 -12q-64 0 -116 30t-82 87t-30 137q0 82 32.5 139t86 87t115.5 30q48 0 82.5 -17t59.5 -40l-42 -54q-21 19 -44.5 31t-52.5 12q-44 0 -78.5 -23.5t-54 -66t-19.5 -98.5q0 -83 41.5 -134.5t108.5 -51.5q34 0 63 14.5t51 34.5l36 -55q-33 -29 -73 -45.5t-84 -16.5z
M179 -226l-8 40q63 5 86 16.5t23 33.5q0 20 -17 31t-60 17l44 91h53l-29 -67q35 -8 54 -24t19 -47q0 -43 -42.5 -65t-122.5 -26z" />
    <glyph glyph-name="egrave" unicode="&#xe8;" horiz-adv-x="496" 
d="M279 -12q-65 0 -118 30.5t-84 87.5t-31 136q0 80 31.5 137t81.5 88t105 31q93 0 143.5 -62t50.5 -166q0 -13 -0.5 -25.5t-2.5 -21.5h-328q5 -77 48.5 -123t113.5 -46q35 0 64.5 10.5t56.5 27.5l29 -54q-31 -20 -70.5 -35t-89.5 -15zM126 282h260q0 74 -31.5 112.5
t-88.5 38.5q-51 0 -91.5 -39.5t-48.5 -111.5zM278 573l-157 153l58 55l141 -167z" />
    <glyph glyph-name="eacute" unicode="&#xe9;" horiz-adv-x="496" 
d="M279 -12q-65 0 -118 30.5t-84 87.5t-31 136q0 80 31.5 137t81.5 88t105 31q93 0 143.5 -62t50.5 -166q0 -13 -0.5 -25.5t-2.5 -21.5h-328q5 -77 48.5 -123t113.5 -46q35 0 64.5 10.5t56.5 27.5l29 -54q-31 -20 -70.5 -35t-89.5 -15zM126 282h260q0 74 -31.5 112.5
t-88.5 38.5q-51 0 -91.5 -39.5t-48.5 -111.5zM250 573l-42 41l141 167l58 -55z" />
    <glyph glyph-name="ecircumflex" unicode="&#xea;" horiz-adv-x="496" 
d="M279 -12q-65 0 -118 30.5t-84 87.5t-31 136q0 80 31.5 137t81.5 88t105 31q93 0 143.5 -62t50.5 -166q0 -13 -0.5 -25.5t-2.5 -21.5h-328q5 -77 48.5 -123t113.5 -46q35 0 64.5 10.5t56.5 27.5l29 -54q-31 -20 -70.5 -35t-89.5 -15zM126 282h260q0 74 -31.5 112.5
t-88.5 38.5q-51 0 -91.5 -39.5t-48.5 -111.5zM109 600l114 140h82l114 -140l-35 -32l-118 113h-4l-118 -113z" />
    <glyph glyph-name="edieresis" unicode="&#xeb;" horiz-adv-x="496" 
d="M279 -12q-65 0 -118 30.5t-84 87.5t-31 136q0 80 31.5 137t81.5 88t105 31q93 0 143.5 -62t50.5 -166q0 -13 -0.5 -25.5t-2.5 -21.5h-328q5 -77 48.5 -123t113.5 -46q35 0 64.5 10.5t56.5 27.5l29 -54q-31 -20 -70.5 -35t-89.5 -15zM126 282h260q0 74 -31.5 112.5
t-88.5 38.5q-51 0 -91.5 -39.5t-48.5 -111.5zM168 587q-22 0 -36 14.5t-14 35.5t14 35.5t36 14.5q21 0 35 -14.5t14 -35.5t-14 -35.5t-35 -14.5zM360 587q-21 0 -35 14.5t-14 35.5t14 35.5t35 14.5q22 0 36 -14.5t14 -35.5t-14 -35.5t-36 -14.5z" />
    <glyph glyph-name="igrave" unicode="&#xec;" horiz-adv-x="246" 
d="M82 0v486h82v-486h-82zM138 573l-157 153l58 55l141 -167z" />
    <glyph glyph-name="iacute" unicode="&#xed;" horiz-adv-x="246" 
d="M82 0v486h82v-486h-82zM110 573l-42 41l141 167l58 -55z" />
    <glyph glyph-name="icircumflex" unicode="&#xee;" horiz-adv-x="246" 
d="M82 0v486h82v-486h-82zM-31 600l114 140h82l114 -140l-35 -32l-118 113h-4l-118 -113z" />
    <glyph glyph-name="idieresis" unicode="&#xef;" horiz-adv-x="246" 
d="M82 0v486h82v-486h-82zM28 587q-22 0 -36 14.5t-14 35.5t14 35.5t36 14.5q21 0 35 -14.5t14 -35.5t-14 -35.5t-35 -14.5zM220 587q-21 0 -35 14.5t-14 35.5t14 35.5t35 14.5q22 0 36 -14.5t14 -35.5t-14 -35.5t-36 -14.5z" />
    <glyph glyph-name="eth" unicode="&#xf0;" horiz-adv-x="545" 
d="M131 222q0 -50 19 -87.5t51 -58t70 -20.5q68 0 101.5 55t33.5 143q0 14 -0.5 28t-1.5 27q-33 44 -66 59t-67 15q-67 0 -103.5 -46t-36.5 -115zM269 -12q-56 0 -105.5 28.5t-80 81t-30.5 124.5q0 68 27.5 118.5t74 78.5t104.5 28q38 0 73.5 -16t60.5 -50q-13 62 -41 108.5
t-66 83.5l-141 -73l-24 41l127 65q-52 40 -112 72l38 52q36 -19 71 -41.5t67 -49.5l142 73l24 -41l-129 -66q60 -61 98 -145t38 -203q0 -80 -27 -140.5t-75.5 -94.5t-113.5 -34z" />
    <glyph glyph-name="ntilde" unicode="&#xf1;" horiz-adv-x="547" 
d="M82 0v486h68l7 -70h3q35 35 74 58.5t89 23.5q77 0 112.5 -48.5t35.5 -141.5v-308h-82v297q0 68 -22 99t-70 31q-37 0 -66.5 -19t-66.5 -56v-352h-82zM367 577q-27 0 -46 12.5t-34.5 29.5t-30.5 29.5t-32 12.5q-22 0 -33.5 -22t-13.5 -57l-55 3q2 59 25.5 97.5t75.5 38.5
q27 0 46 -12.5t35 -29.5t30.5 -29.5t32.5 -12.5q22 0 33 22.5t13 56.5l55 -4q-2 -58 -25.5 -96.5t-75.5 -38.5z" />
    <glyph glyph-name="ograve" unicode="&#xf2;" horiz-adv-x="542" 
d="M271 -12q-59 0 -110.5 30t-83 87t-31.5 137q0 82 31.5 139t83 87t110.5 30q60 0 111 -30t82.5 -87t31.5 -139q0 -80 -31.5 -137t-82.5 -87t-111 -30zM271 56q63 0 101.5 51.5t38.5 134.5q0 84 -38.5 136t-101.5 52q-62 0 -101 -52t-39 -136q0 -83 39 -134.5t101 -51.5z
M285 573l-157 153l58 55l141 -167z" />
    <glyph glyph-name="oacute" unicode="&#xf3;" horiz-adv-x="542" 
d="M271 -12q-59 0 -110.5 30t-83 87t-31.5 137q0 82 31.5 139t83 87t110.5 30q60 0 111 -30t82.5 -87t31.5 -139q0 -80 -31.5 -137t-82.5 -87t-111 -30zM271 56q63 0 101.5 51.5t38.5 134.5q0 84 -38.5 136t-101.5 52q-62 0 -101 -52t-39 -136q0 -83 39 -134.5t101 -51.5z
M257 573l-42 41l141 167l58 -55z" />
    <glyph glyph-name="ocircumflex" unicode="&#xf4;" horiz-adv-x="542" 
d="M271 -12q-59 0 -110.5 30t-83 87t-31.5 137q0 82 31.5 139t83 87t110.5 30q60 0 111 -30t82.5 -87t31.5 -139q0 -80 -31.5 -137t-82.5 -87t-111 -30zM271 56q63 0 101.5 51.5t38.5 134.5q0 84 -38.5 136t-101.5 52q-62 0 -101 -52t-39 -136q0 -83 39 -134.5t101 -51.5z
M116 600l114 140h82l114 -140l-35 -32l-118 113h-4l-118 -113z" />
    <glyph glyph-name="otilde" unicode="&#xf5;" horiz-adv-x="542" 
d="M271 -12q-59 0 -110.5 30t-83 87t-31.5 137q0 82 31.5 139t83 87t110.5 30q60 0 111 -30t82.5 -87t31.5 -139q0 -80 -31.5 -137t-82.5 -87t-111 -30zM271 56q63 0 101.5 51.5t38.5 134.5q0 84 -38.5 136t-101.5 52q-62 0 -101 -52t-39 -136q0 -83 39 -134.5t101 -51.5z
M343 577q-27 0 -46 12.5t-34.5 29.5t-30.5 29.5t-32 12.5q-22 0 -33.5 -22t-13.5 -57l-55 3q2 59 25.5 97.5t75.5 38.5q27 0 46 -12.5t35 -29.5t30.5 -29.5t32.5 -12.5q22 0 33 22.5t13 56.5l55 -4q-2 -58 -25.5 -96.5t-75.5 -38.5z" />
    <glyph glyph-name="odieresis" unicode="&#xf6;" horiz-adv-x="542" 
d="M271 -12q-59 0 -110.5 30t-83 87t-31.5 137q0 82 31.5 139t83 87t110.5 30q60 0 111 -30t82.5 -87t31.5 -139q0 -80 -31.5 -137t-82.5 -87t-111 -30zM271 56q63 0 101.5 51.5t38.5 134.5q0 84 -38.5 136t-101.5 52q-62 0 -101 -52t-39 -136q0 -83 39 -134.5t101 -51.5z
M175 587q-22 0 -36 14.5t-14 35.5t14 35.5t36 14.5q21 0 35 -14.5t14 -35.5t-14 -35.5t-35 -14.5zM367 587q-21 0 -35 14.5t-14 35.5t14 35.5t35 14.5q22 0 36 -14.5t14 -35.5t-14 -35.5t-36 -14.5z" />
    <glyph glyph-name="divide" unicode="&#xf7;" horiz-adv-x="497" 
d="M34 299v62h429v-62h-429zM249 96q-23 0 -39 15t-16 39q0 23 16 38t39 15t38.5 -15t15.5 -38q0 -24 -15.5 -39t-38.5 -15zM249 456q-23 0 -39 15t-16 39q0 23 16 38t39 15t38.5 -15t15.5 -38q0 -24 -15.5 -39t-38.5 -15z" />
    <glyph glyph-name="oslash" unicode="&#xf8;" horiz-adv-x="542" 
d="M127 246q0 -67 23 -113l214 259q-37 40 -93 40q-41 0 -74 -23.5t-51.5 -65.5t-18.5 -97zM83 -23l-37 29l54 65q-25 32 -39.5 75t-14.5 96q0 82 31.5 139t83 87t110.5 30q80 0 139 -50l50 61l36 -29l-54 -65q25 -32 39.5 -75.5t14.5 -97.5q0 -80 -31.5 -137t-82.5 -87
t-111 -30q-79 0 -139 49zM271 54q63 0 103.5 51.5t40.5 133.5q0 68 -24 114l-213 -260q39 -39 93 -39z" />
    <glyph glyph-name="ugrave" unicode="&#xf9;" horiz-adv-x="544" 
d="M224 -12q-77 0 -113 48.5t-36 141.5v308h83v-297q0 -68 21.5 -99t69.5 -31q38 0 67.5 19.5t63.5 62.5v345h82v-486h-68l-7 76h-3q-34 -40 -72 -64t-88 -24zM285 573l-157 153l58 55l141 -167z" />
    <glyph glyph-name="uacute" unicode="&#xfa;" horiz-adv-x="544" 
d="M224 -12q-77 0 -113 48.5t-36 141.5v308h83v-297q0 -68 21.5 -99t69.5 -31q38 0 67.5 19.5t63.5 62.5v345h82v-486h-68l-7 76h-3q-34 -40 -72 -64t-88 -24zM257 573l-42 41l141 167l58 -55z" />
    <glyph glyph-name="ucircumflex" unicode="&#xfb;" horiz-adv-x="544" 
d="M224 -12q-77 0 -113 48.5t-36 141.5v308h83v-297q0 -68 21.5 -99t69.5 -31q38 0 67.5 19.5t63.5 62.5v345h82v-486h-68l-7 76h-3q-34 -40 -72 -64t-88 -24zM116 600l114 140h82l114 -140l-35 -32l-118 113h-4l-118 -113z" />
    <glyph glyph-name="udieresis" unicode="&#xfc;" horiz-adv-x="544" 
d="M224 -12q-77 0 -113 48.5t-36 141.5v308h83v-297q0 -68 21.5 -99t69.5 -31q38 0 67.5 19.5t63.5 62.5v345h82v-486h-68l-7 76h-3q-34 -40 -72 -64t-88 -24zM175 587q-22 0 -36 14.5t-14 35.5t14 35.5t36 14.5q21 0 35 -14.5t14 -35.5t-14 -35.5t-35 -14.5zM367 587
q-21 0 -35 14.5t-14 35.5t14 35.5t35 14.5q22 0 36 -14.5t14 -35.5t-14 -35.5t-36 -14.5z" />
    <glyph glyph-name="yacute" unicode="&#xfd;" horiz-adv-x="467" 
d="M90 -209q-16 0 -30.5 3t-26.5 7l16 65l18 -4.5t19 -2.5q41 0 68 29.5t42 74.5l11 36l-195 487h85l99 -269q11 -31 23.5 -67t23.5 -70h4q11 33 21 69t20 68l87 269h80l-183 -526q-17 -48 -40.5 -86t-58 -60.5t-83.5 -22.5zM229 573l-42 41l141 167l58 -55z" />
    <glyph glyph-name="thorn" unicode="&#xfe;" horiz-adv-x="555" 
d="M82 -205v917h82v-193l-1 -84q32 26 70 44.5t78 18.5q96 0 146 -67.5t50 -180.5q0 -82 -29.5 -141t-77 -90t-103.5 -31q-35 0 -68 14.5t-66 39.5l1 -83v-164h-82zM283 57q60 0 99.5 51.5t39.5 141.5q0 80 -29.5 129.5t-98.5 49.5q-31 0 -62.5 -17t-67.5 -49v-255
q33 -28 64 -39.5t55 -11.5z" />
    <glyph glyph-name="ydieresis" unicode="&#xff;" horiz-adv-x="467" 
d="M90 -209q-16 0 -30.5 3t-26.5 7l16 65l18 -4.5t19 -2.5q41 0 68 29.5t42 74.5l11 36l-195 487h85l99 -269q11 -31 23.5 -67t23.5 -70h4q11 33 21 69t20 68l87 269h80l-183 -526q-17 -48 -40.5 -86t-58 -60.5t-83.5 -22.5zM147 587q-22 0 -36 14.5t-14 35.5t14 35.5
t36 14.5q21 0 35 -14.5t14 -35.5t-14 -35.5t-35 -14.5zM339 587q-21 0 -35 14.5t-14 35.5t14 35.5t35 14.5q22 0 36 -14.5t14 -35.5t-14 -35.5t-36 -14.5z" />
    <glyph glyph-name="Amacron" unicode="&#x100;" horiz-adv-x="544" 
d="M203 367l-31 -100h197l-31 100q-18 55 -34 109.5t-32 111.5h-4q-15 -57 -31 -111.5t-34 -109.5zM3 0l222 656h94l222 -656h-89l-62 200h-239l-63 -200h-85zM137 735v57h268v-57h-268z" />
    <glyph glyph-name="amacron" unicode="&#x101;" horiz-adv-x="504" 
d="M194 -12q-61 0 -101.5 36.5t-40.5 101.5q0 80 71.5 122.5t226.5 59.5q0 31 -8.5 59t-30 45.5t-61.5 17.5q-42 0 -79 -16t-66 -36l-32 57q34 22 83.5 42.5t107.5 20.5q89 0 129 -54.5t40 -145.5v-298h-68l-7 58h-3q-34 -28 -74.5 -49t-86.5 -21zM218 54q35 0 66 17t66 48
v135q-121 -15 -169.5 -45t-48.5 -77q0 -41 25 -59.5t61 -18.5zM134 601v57h266v-57h-266z" />
    <glyph glyph-name="Abreve" unicode="&#x102;" horiz-adv-x="544" 
d="M203 367l-31 -100h197l-31 100q-18 55 -34 109.5t-32 111.5h-4q-15 -57 -31 -111.5t-34 -109.5zM3 0l222 656h94l222 -656h-89l-62 200h-239l-63 -200h-85zM271 705q-70 0 -105 38.5t-41 90.5l50 8q6 -35 29.5 -59.5t66.5 -24.5t66.5 24.5t29.5 59.5l50 -8
q-6 -52 -41 -90.5t-105 -38.5z" />
    <glyph glyph-name="abreve" unicode="&#x103;" horiz-adv-x="504" 
d="M194 -12q-61 0 -101.5 36.5t-40.5 101.5q0 80 71.5 122.5t226.5 59.5q0 31 -8.5 59t-30 45.5t-61.5 17.5q-42 0 -79 -16t-66 -36l-32 57q34 22 83.5 42.5t107.5 20.5q89 0 129 -54.5t40 -145.5v-298h-68l-7 58h-3q-34 -28 -74.5 -49t-86.5 -21zM218 54q35 0 66 17t66 48
v135q-121 -15 -169.5 -45t-48.5 -77q0 -41 25 -59.5t61 -18.5zM267 571q-53 0 -86.5 22.5t-50 57t-19.5 71.5l51 8q4 -25 16.5 -49t34.5 -39.5t54 -15.5q33 0 54.5 15.5t34 39.5t16.5 49l51 -8q-2 -37 -18.5 -71.5t-50 -57t-87.5 -22.5z" />
    <glyph glyph-name="Aogonek" unicode="&#x104;" horiz-adv-x="544" 
d="M203 367l-31 -100h197l-31 100q-18 55 -34 109.5t-32 111.5h-4q-15 -57 -31 -111.5t-34 -109.5zM492 -212q-40 0 -68 22t-28 65q0 41 25 74.5t50 50.5h-19l-62 200h-239l-63 -200h-85l222 656h94l222 -656q-35 -14 -57.5 -44.5t-22.5 -62.5q0 -23 14 -34.5t32 -11.5
q23 0 42 14l23 -45q-15 -11 -37.5 -19.5t-42.5 -8.5z" />
    <glyph glyph-name="aogonek" unicode="&#x105;" horiz-adv-x="504" 
d="M376 -206q-38 0 -64.5 21.5t-26.5 63.5q0 41 26 73.5t54 51.5l-7 54h-3q-34 -28 -74.5 -49t-86.5 -21q-61 0 -101.5 36.5t-40.5 101.5q0 80 71.5 122.5t226.5 59.5q0 31 -8.5 59t-30 45.5t-61.5 17.5q-42 0 -79 -16t-66 -36l-32 57q34 22 83.5 42.5t107.5 20.5
q89 0 129 -54.5t40 -145.5v-298q-42 -16 -64.5 -46t-22.5 -59q0 -23 14 -34.5t32 -11.5q12 0 22 3.5t19 9.5l21 -41q-14 -11 -36.5 -19t-41.5 -8zM218 54q35 0 66 17t66 48v135q-121 -15 -169.5 -45t-48.5 -77q0 -41 25 -59.5t61 -18.5z" />
    <glyph glyph-name="Cacute" unicode="&#x106;" horiz-adv-x="571" 
d="M338 -12q-82 0 -146.5 40.5t-102 116.5t-37.5 183q0 106 38 182t104 117t149 41q60 0 106 -24.5t74 -56.5l-45 -54q-26 28 -59 45t-75 17q-62 0 -108.5 -32.5t-72 -91.5t-25.5 -141t25 -142.5t70.5 -93.5t107.5 -33q47 0 84 20t68 54l46 -52q-39 -45 -88 -70t-113 -25z
M312 697l-37 42l142 128l47 -55z" />
    <glyph glyph-name="cacute" unicode="&#x107;" horiz-adv-x="456" 
d="M274 -12q-64 0 -116 30t-82 87t-30 137q0 82 32.5 139t86 87t115.5 30q48 0 82.5 -17t59.5 -40l-42 -54q-21 19 -44.5 31t-52.5 12q-44 0 -78.5 -23.5t-54 -66t-19.5 -98.5q0 -83 41.5 -134.5t108.5 -51.5q34 0 63 14.5t51 34.5l36 -55q-33 -29 -73 -45.5t-84 -16.5z
M260 573l-42 41l141 167l58 -55z" />
    <glyph glyph-name="Ccircumflex" unicode="&#x108;" horiz-adv-x="571" 
d="M338 -12q-82 0 -146.5 40.5t-102 116.5t-37.5 183q0 106 38 182t104 117t149 41q60 0 106 -24.5t74 -56.5l-45 -54q-26 28 -59 45t-75 17q-62 0 -108.5 -32.5t-72 -91.5t-25.5 -141t25 -142.5t70.5 -93.5t107.5 -33q47 0 84 20t68 54l46 -52q-39 -45 -88 -70t-113 -25z
M217 699l-36 26l105 113h86l105 -113l-36 -26l-110 93h-4z" />
    <glyph glyph-name="ccircumflex" unicode="&#x109;" horiz-adv-x="456" 
d="M274 -12q-64 0 -116 30t-82 87t-30 137q0 82 32.5 139t86 87t115.5 30q48 0 82.5 -17t59.5 -40l-42 -54q-21 19 -44.5 31t-52.5 12q-44 0 -78.5 -23.5t-54 -66t-19.5 -98.5q0 -83 41.5 -134.5t108.5 -51.5q34 0 63 14.5t51 34.5l36 -55q-33 -29 -73 -45.5t-84 -16.5z
M119 600l114 140h82l114 -140l-35 -32l-118 113h-4l-118 -113z" />
    <glyph glyph-name="Cdotaccent" unicode="&#x10a;" horiz-adv-x="571" 
d="M338 -12q-82 0 -146.5 40.5t-102 116.5t-37.5 183q0 106 38 182t104 117t149 41q60 0 106 -24.5t74 -56.5l-45 -54q-26 28 -59 45t-75 17q-62 0 -108.5 -32.5t-72 -91.5t-25.5 -141t25 -142.5t70.5 -93.5t107.5 -33q47 0 84 20t68 54l46 -52q-39 -45 -88 -70t-113 -25z
M329 714q-24 0 -40.5 15t-16.5 39q0 23 16.5 38t40.5 15t40.5 -15t16.5 -38q0 -24 -16.5 -39t-40.5 -15z" />
    <glyph glyph-name="cdotaccent" unicode="&#x10b;" horiz-adv-x="456" 
d="M274 -12q-64 0 -116 30t-82 87t-30 137q0 82 32.5 139t86 87t115.5 30q48 0 82.5 -17t59.5 -40l-42 -54q-21 19 -44.5 31t-52.5 12q-44 0 -78.5 -23.5t-54 -66t-19.5 -98.5q0 -83 41.5 -134.5t108.5 -51.5q34 0 63 14.5t51 34.5l36 -55q-33 -29 -73 -45.5t-84 -16.5z
M274 586q-24 0 -39.5 14.5t-15.5 39.5q0 24 15.5 39t39.5 15t39.5 -15t15.5 -39q0 -25 -15.5 -39.5t-39.5 -14.5z" />
    <glyph glyph-name="Ccaron" unicode="&#x10c;" horiz-adv-x="571" 
d="M338 -12q-82 0 -146.5 40.5t-102 116.5t-37.5 183q0 106 38 182t104 117t149 41q60 0 106 -24.5t74 -56.5l-45 -54q-26 28 -59 45t-75 17q-62 0 -108.5 -32.5t-72 -91.5t-25.5 -141t25 -142.5t70.5 -93.5t107.5 -33q47 0 84 20t68 54l46 -52q-39 -45 -88 -70t-113 -25z
M286 706l-105 113l36 26l110 -92h4l110 92l36 -26l-105 -113h-86z" />
    <glyph glyph-name="ccaron" unicode="&#x10d;" horiz-adv-x="456" 
d="M274 -12q-64 0 -116 30t-82 87t-30 137q0 82 32.5 139t86 87t115.5 30q48 0 82.5 -17t59.5 -40l-42 -54q-21 19 -44.5 31t-52.5 12q-44 0 -78.5 -23.5t-54 -66t-19.5 -98.5q0 -83 41.5 -134.5t108.5 -51.5q34 0 63 14.5t51 34.5l36 -55q-33 -29 -73 -45.5t-84 -16.5z
M233 574l-114 140l35 32l118 -113h4l118 113l35 -32l-114 -140h-82z" />
    <glyph glyph-name="Dcaron" unicode="&#x10e;" horiz-adv-x="615" 
d="M90 0v656h164q152 0 231 -84.5t79 -240.5q0 -157 -78.5 -244t-227.5 -87h-168zM173 68h75q115 0 172.5 69.5t57.5 193.5t-57.5 190.5t-172.5 66.5h-75v-520zM265 706l-105 113l36 26l110 -92h4l110 92l36 -26l-105 -113h-86z" />
    <glyph glyph-name="dcaron" unicode="&#x10f;" horiz-adv-x="573" 
d="M248 -12q-91 0 -146 66.5t-55 187.5q0 79 29.5 136.5t78 88.5t103.5 31q42 0 73 -15t63 -41l-4 83v187h83v-712h-68l-7 57h-3q-28 -28 -66 -48.5t-81 -20.5zM266 57q64 0 124 67v254q-31 28 -59.5 39.5t-58.5 11.5q-39 0 -70.5 -23.5t-50.5 -65t-19 -97.5
q0 -87 35 -136.5t99 -49.5zM530 548l-4 212h59l-1 -57l-14 -155h-40z" />
    <glyph glyph-name="Dcroat" unicode="&#x110;" horiz-adv-x="638" 
d="M112 0v321h-79v43l79 4v288h164q152 0 231 -84.5t79 -240.5q0 -157 -78.5 -244t-227.5 -87h-168zM195 68h75q115 0 172.5 69.5t57.5 193.5t-57.5 190.5t-172.5 66.5h-75v-220h149v-47h-149v-253z" />
    <glyph glyph-name="dcroat" unicode="&#x111;" horiz-adv-x="555" 
d="M248 -12q-91 0 -146 62t-55 173q0 72 29.5 125t78 82t103.5 29q42 0 73 -15.5t63 -41.5l-4 84v85h-161v48h161v93h83v-93h72v-43l-72 -5v-571h-70l-6 55h-3q-28 -28 -65 -47.5t-81 -19.5zM266 57q64 0 124 67v215q-31 28 -59.5 39.5t-58.5 11.5q-39 0 -70.5 -21.5
t-50.5 -59t-19 -85.5q0 -76 35 -121.5t99 -45.5z" />
    <glyph glyph-name="Emacron" unicode="&#x112;" horiz-adv-x="527" 
d="M90 0v656h378v-70h-295v-206h249v-71h-249v-238h305v-71h-388zM156 735v57h268v-57h-268z" />
    <glyph glyph-name="emacron" unicode="&#x113;" horiz-adv-x="496" 
d="M279 -12q-65 0 -118 30.5t-84 87.5t-31 136q0 80 31.5 137t81.5 88t105 31q93 0 143.5 -62t50.5 -166q0 -13 -0.5 -25.5t-2.5 -21.5h-328q5 -77 48.5 -123t113.5 -46q35 0 64.5 10.5t56.5 27.5l29 -54q-31 -20 -70.5 -35t-89.5 -15zM126 282h260q0 74 -31.5 112.5
t-88.5 38.5q-51 0 -91.5 -39.5t-48.5 -111.5zM131 601v57h266v-57h-266z" />
    <glyph glyph-name="Ebreve" unicode="&#x114;" horiz-adv-x="527" 
d="M90 0v656h378v-70h-295v-206h249v-71h-249v-238h305v-71h-388zM290 705q-70 0 -105 38.5t-41 90.5l50 8q6 -35 29.5 -59.5t66.5 -24.5t66.5 24.5t29.5 59.5l50 -8q-6 -52 -41 -90.5t-105 -38.5z" />
    <glyph glyph-name="ebreve" unicode="&#x115;" horiz-adv-x="496" 
d="M279 -12q-65 0 -118 30.5t-84 87.5t-31 136q0 80 31.5 137t81.5 88t105 31q93 0 143.5 -62t50.5 -166q0 -13 -0.5 -25.5t-2.5 -21.5h-328q5 -77 48.5 -123t113.5 -46q35 0 64.5 10.5t56.5 27.5l29 -54q-31 -20 -70.5 -35t-89.5 -15zM126 282h260q0 74 -31.5 112.5
t-88.5 38.5q-51 0 -91.5 -39.5t-48.5 -111.5zM264 571q-53 0 -86.5 22.5t-50 57t-19.5 71.5l51 8q4 -25 16.5 -49t34.5 -39.5t54 -15.5q33 0 54.5 15.5t34 39.5t16.5 49l51 -8q-2 -37 -18.5 -71.5t-50 -57t-87.5 -22.5z" />
    <glyph glyph-name="Edotaccent" unicode="&#x116;" horiz-adv-x="527" 
d="M90 0v656h378v-70h-295v-206h249v-71h-249v-238h305v-71h-388zM290 714q-24 0 -40.5 15t-16.5 39q0 23 16.5 38t40.5 15t40.5 -15t16.5 -38q0 -24 -16.5 -39t-40.5 -15z" />
    <glyph glyph-name="edotaccent" unicode="&#x117;" horiz-adv-x="496" 
d="M279 -12q-65 0 -118 30.5t-84 87.5t-31 136q0 80 31.5 137t81.5 88t105 31q93 0 143.5 -62t50.5 -166q0 -13 -0.5 -25.5t-2.5 -21.5h-328q5 -77 48.5 -123t113.5 -46q35 0 64.5 10.5t56.5 27.5l29 -54q-31 -20 -70.5 -35t-89.5 -15zM126 282h260q0 74 -31.5 112.5
t-88.5 38.5q-51 0 -91.5 -39.5t-48.5 -111.5zM264 586q-24 0 -39.5 14.5t-15.5 39.5q0 24 15.5 39t39.5 15t39.5 -15t15.5 -39q0 -25 -15.5 -39.5t-39.5 -14.5z" />
    <glyph glyph-name="Eogonek" unicode="&#x118;" horiz-adv-x="527" 
d="M414 -212q-40 0 -68 22t-28 65q0 41 23.5 74t51.5 51h-303v656h378v-70h-295v-206h249v-71h-249v-238h305v-71h-3q-23 -3 -44 -18.5t-34.5 -39t-13.5 -49.5q0 -23 15 -34.5t33 -11.5q21 0 40 14l23 -45q-14 -11 -37 -19.5t-43 -8.5z" />
    <glyph glyph-name="eogonek" unicode="&#x119;" horiz-adv-x="496" 
d="M358 -206q-38 0 -64 21.5t-26 63.5q0 38 20.5 68.5t39.5 47.5q-13 -4 -25 -5.5t-24 -1.5q-65 0 -118 30.5t-84 87.5t-31 136q0 80 31.5 137t81.5 88t105 31q93 0 143.5 -62t50.5 -166q0 -13 -0.5 -25.5t-2.5 -21.5h-328q5 -77 48.5 -123t113.5 -46q35 0 64.5 10.5
t56.5 27.5l29 -54q-65 -46 -88 -78.5t-23 -64.5q0 -23 14 -34.5t33 -11.5q12 0 21.5 3.5t18.5 9.5l21 -41q-14 -11 -36.5 -19t-41.5 -8zM126 282h260q0 74 -31.5 112.5t-88.5 38.5q-51 0 -91.5 -39.5t-48.5 -111.5z" />
    <glyph glyph-name="Ecaron" unicode="&#x11a;" horiz-adv-x="527" 
d="M90 0v656h378v-70h-295v-206h249v-71h-249v-238h305v-71h-388zM247 706l-105 113l36 26l110 -92h4l110 92l36 -26l-105 -113h-86z" />
    <glyph glyph-name="ecaron" unicode="&#x11b;" horiz-adv-x="496" 
d="M279 -12q-65 0 -118 30.5t-84 87.5t-31 136q0 80 31.5 137t81.5 88t105 31q93 0 143.5 -62t50.5 -166q0 -13 -0.5 -25.5t-2.5 -21.5h-328q5 -77 48.5 -123t113.5 -46q35 0 64.5 10.5t56.5 27.5l29 -54q-31 -20 -70.5 -35t-89.5 -15zM126 282h260q0 74 -31.5 112.5
t-88.5 38.5q-51 0 -91.5 -39.5t-48.5 -111.5zM223 574l-114 140l35 32l118 -113h4l118 113l35 -32l-114 -140h-82z" />
    <glyph glyph-name="Gcircumflex" unicode="&#x11c;" horiz-adv-x="617" 
d="M348 -12q-86 0 -153 40.5t-105 116.5t-38 183q0 106 39 182t107 117t155 41q68 0 114.5 -25.5t74.5 -55.5l-46 -54q-25 26 -58 44t-83 18q-66 0 -115 -32.5t-75.5 -91.5t-26.5 -141q0 -124 56.5 -196.5t161.5 -72.5q35 0 67 10.5t51 28.5v171h-139v69h215v-276
q-31 -33 -83.5 -54.5t-118.5 -21.5zM239 699l-36 26l105 113h86l105 -113l-36 -26l-110 93h-4z" />
    <glyph glyph-name="gcircumflex" unicode="&#x11d;" horiz-adv-x="504" 
d="M246 -224q-89 0 -145 34t-56 97q0 31 19 59.5t52 50.5v4q-18 11 -30.5 31t-12.5 48q0 31 17 54t36 36v4q-24 20 -43.5 54t-19.5 77q0 53 25 92t67 60t91 21q20 0 38 -3.5t31 -8.5h169v-63h-100q17 -16 28.5 -42.5t11.5 -57.5q0 -52 -24 -90t-64 -58.5t-90 -20.5
q-39 0 -73 17q-13 -11 -22 -24.5t-9 -33.5q0 -23 18.5 -38t67.5 -15h94q85 0 127.5 -27.5t42.5 -88.5q0 -45 -30 -83t-85 -61.5t-131 -23.5zM246 209q42 0 72.5 31.5t30.5 84.5t-30 83t-73 30t-73 -30t-30 -83t30.5 -84.5t72.5 -31.5zM258 -167q70 0 112 30.5t42 68.5
q0 34 -25.5 47t-72.5 13h-84q-14 0 -30.5 2t-32.5 6q-26 -19 -38 -40t-12 -42q0 -39 37.5 -62t103.5 -23zM103 600l114 140h82l114 -140l-35 -32l-118 113h-4l-118 -113z" />
    <glyph glyph-name="Gbreve" unicode="&#x11e;" horiz-adv-x="617" 
d="M348 -12q-86 0 -153 40.5t-105 116.5t-38 183q0 106 39 182t107 117t155 41q68 0 114.5 -25.5t74.5 -55.5l-46 -54q-25 26 -58 44t-83 18q-66 0 -115 -32.5t-75.5 -91.5t-26.5 -141q0 -124 56.5 -196.5t161.5 -72.5q35 0 67 10.5t51 28.5v171h-139v69h215v-276
q-31 -33 -83.5 -54.5t-118.5 -21.5zM351 705q-70 0 -105 38.5t-41 90.5l50 8q6 -35 29.5 -59.5t66.5 -24.5t66.5 24.5t29.5 59.5l50 -8q-6 -52 -41 -90.5t-105 -38.5z" />
    <glyph glyph-name="gbreve" unicode="&#x11f;" horiz-adv-x="504" 
d="M246 -224q-89 0 -145 34t-56 97q0 31 19 59.5t52 50.5v4q-18 11 -30.5 31t-12.5 48q0 31 17 54t36 36v4q-24 20 -43.5 54t-19.5 77q0 53 25 92t67 60t91 21q20 0 38 -3.5t31 -8.5h169v-63h-100q17 -16 28.5 -42.5t11.5 -57.5q0 -52 -24 -90t-64 -58.5t-90 -20.5
q-39 0 -73 17q-13 -11 -22 -24.5t-9 -33.5q0 -23 18.5 -38t67.5 -15h94q85 0 127.5 -27.5t42.5 -88.5q0 -45 -30 -83t-85 -61.5t-131 -23.5zM246 209q42 0 72.5 31.5t30.5 84.5t-30 83t-73 30t-73 -30t-30 -83t30.5 -84.5t72.5 -31.5zM258 -167q70 0 112 30.5t42 68.5
q0 34 -25.5 47t-72.5 13h-84q-14 0 -30.5 2t-32.5 6q-26 -19 -38 -40t-12 -42q0 -39 37.5 -62t103.5 -23zM258 571q-53 0 -86.5 22.5t-50 57t-19.5 71.5l51 8q4 -25 16.5 -49t34.5 -39.5t54 -15.5q33 0 54.5 15.5t34 39.5t16.5 49l51 -8q-2 -37 -18.5 -71.5t-50 -57
t-87.5 -22.5z" />
    <glyph glyph-name="Gdotaccent" unicode="&#x120;" horiz-adv-x="617" 
d="M348 -12q-86 0 -153 40.5t-105 116.5t-38 183q0 106 39 182t107 117t155 41q68 0 114.5 -25.5t74.5 -55.5l-46 -54q-25 26 -58 44t-83 18q-66 0 -115 -32.5t-75.5 -91.5t-26.5 -141q0 -124 56.5 -196.5t161.5 -72.5q35 0 67 10.5t51 28.5v171h-139v69h215v-276
q-31 -33 -83.5 -54.5t-118.5 -21.5zM351 714q-24 0 -40.5 15t-16.5 39q0 23 16.5 38t40.5 15t40.5 -15t16.5 -38q0 -24 -16.5 -39t-40.5 -15z" />
    <glyph glyph-name="gdotaccent" unicode="&#x121;" horiz-adv-x="504" 
d="M246 -224q-89 0 -145 34t-56 97q0 31 19 59.5t52 50.5v4q-18 11 -30.5 31t-12.5 48q0 31 17 54t36 36v4q-24 20 -43.5 54t-19.5 77q0 53 25 92t67 60t91 21q20 0 38 -3.5t31 -8.5h169v-63h-100q17 -16 28.5 -42.5t11.5 -57.5q0 -52 -24 -90t-64 -58.5t-90 -20.5
q-39 0 -73 17q-13 -11 -22 -24.5t-9 -33.5q0 -23 18.5 -38t67.5 -15h94q85 0 127.5 -27.5t42.5 -88.5q0 -45 -30 -83t-85 -61.5t-131 -23.5zM246 209q42 0 72.5 31.5t30.5 84.5t-30 83t-73 30t-73 -30t-30 -83t30.5 -84.5t72.5 -31.5zM258 -167q70 0 112 30.5t42 68.5
q0 34 -25.5 47t-72.5 13h-84q-14 0 -30.5 2t-32.5 6q-26 -19 -38 -40t-12 -42q0 -39 37.5 -62t103.5 -23zM258 586q-24 0 -39.5 14.5t-15.5 39.5q0 24 15.5 39t39.5 15t39.5 -15t15.5 -39q0 -25 -15.5 -39.5t-39.5 -14.5z" />
    <glyph glyph-name="uni0122" unicode="&#x122;" horiz-adv-x="617" 
d="M348 -12q-86 0 -153 40.5t-105 116.5t-38 183q0 106 39 182t107 117t155 41q68 0 114.5 -25.5t74.5 -55.5l-46 -54q-25 26 -58 44t-83 18q-66 0 -115 -32.5t-75.5 -91.5t-26.5 -141q0 -124 56.5 -196.5t161.5 -72.5q35 0 67 10.5t51 28.5v171h-139v69h215v-276
q-31 -33 -83.5 -54.5t-118.5 -21.5zM264 -226l-8 40q63 5 86 16.5t23 31.5t-18 29.5t-53 12.5l18 38q65 -7 91 -25t26 -52q0 -43 -42.5 -65t-122.5 -26z" />
    <glyph glyph-name="uni0123" unicode="&#x123;" horiz-adv-x="504" 
d="M246 -224q-89 0 -145 34t-56 97q0 31 19 59.5t52 50.5v4q-18 11 -30.5 31t-12.5 48q0 31 17 54t36 36v4q-24 20 -43.5 54t-19.5 77q0 53 25 92t67 60t91 21q20 0 38 -3.5t31 -8.5h169v-63h-100q17 -16 28.5 -42.5t11.5 -57.5q0 -52 -24 -90t-64 -58.5t-90 -20.5
q-39 0 -73 17q-13 -11 -22 -24.5t-9 -33.5q0 -23 18.5 -38t67.5 -15h94q85 0 127.5 -27.5t42.5 -88.5q0 -45 -30 -83t-85 -61.5t-131 -23.5zM246 209q42 0 72.5 31.5t30.5 84.5t-30 83t-73 30t-73 -30t-30 -83t30.5 -84.5t72.5 -31.5zM258 -167q70 0 112 30.5t42 68.5
q0 34 -25.5 47t-72.5 13h-84q-14 0 -30.5 2t-32.5 6q-26 -19 -38 -40t-12 -42q0 -39 37.5 -62t103.5 -23zM297 575q-65 8 -91 25.5t-26 51.5q0 44 43 66t122 26l8 -41q-63 -4 -86 -15.5t-23 -32.5q0 -19 18.5 -29t52.5 -13z" />
    <glyph glyph-name="Hcircumflex" unicode="&#x124;" horiz-adv-x="652" 
d="M90 0v656h83v-275h305v275h84v-656h-84v309h-305v-309h-83zM213 699l-36 26l105 113h86l105 -113l-36 -26l-110 93h-4z" />
    <glyph glyph-name="hcircumflex" unicode="&#x125;" horiz-adv-x="544" 
d="M82 0v712h82v-194l-3 -100q35 33 73.5 56.5t88.5 23.5q77 0 112.5 -48.5t35.5 -141.5v-308h-82v297q0 68 -22 99t-70 31q-37 0 -66.5 -19t-66.5 -56v-352h-82zM183 747l-36 26l105 113h86l105 -113l-36 -26l-110 93h-4z" />
    <glyph glyph-name="Hbar" unicode="&#x126;" horiz-adv-x="687" 
d="M110 0v486h-78v55l78 4v111h83v-111h305v111h84v-111h72v-59h-72v-486h-84v309h-305v-309h-83zM193 381h305v105h-305v-105z" />
    <glyph glyph-name="hbar" unicode="&#x127;" horiz-adv-x="544" 
d="M82 0v560h-74v54l74 5v93h82v-93h182v-59h-182v-82l-3 -100q35 33 73.5 57t88.5 24q77 0 112.5 -48.5t35.5 -141.5v-269h-82v258q0 68 -22 98.5t-70 30.5q-37 0 -66.5 -18.5t-66.5 -55.5v-313h-82z" />
    <glyph glyph-name="Itilde" unicode="&#x128;" horiz-adv-x="263" 
d="M90 0v656h83v-656h-83zM207 709q-28 0 -48.5 10.5t-36 25t-30.5 25t-33 10.5q-19 0 -32 -17t-16 -49l-56 4q3 57 30 90t72 33q28 0 48.5 -10.5t36 -25t30.5 -25t33 -10.5q40 0 48 66l56 -4q-3 -58 -30 -90.5t-72 -32.5z" />
    <glyph glyph-name="itilde" unicode="&#x129;" horiz-adv-x="246" 
d="M82 0v486h82v-486h-82zM196 577q-27 0 -46 12.5t-34.5 29.5t-30.5 29.5t-32 12.5q-22 0 -33.5 -22t-13.5 -57l-55 3q2 59 25.5 97.5t75.5 38.5q27 0 46 -12.5t35 -29.5t30.5 -29.5t32.5 -12.5q22 0 33 22.5t13 56.5l55 -4q-2 -58 -25.5 -96.5t-75.5 -38.5z" />
    <glyph glyph-name="Imacron" unicode="&#x12a;" horiz-adv-x="263" 
d="M90 0v656h83v-656h-83zM-2 735v57h268v-57h-268z" />
    <glyph glyph-name="imacron" unicode="&#x12b;" horiz-adv-x="246" 
d="M82 0v486h82v-486h-82zM-9 601v57h266v-57h-266z" />
    <glyph glyph-name="uni012C" unicode="&#x12c;" horiz-adv-x="263" 
d="M90 0v656h83v-656h-83zM132 705q-70 0 -105 38.5t-41 90.5l50 8q6 -35 29.5 -59.5t66.5 -24.5t66.5 24.5t29.5 59.5l50 -8q-6 -52 -41 -90.5t-105 -38.5z" />
    <glyph glyph-name="uni012D" unicode="&#x12d;" horiz-adv-x="246" 
d="M82 0v486h82v-486h-82zM124 571q-53 0 -86.5 22.5t-50 57t-19.5 71.5l51 8q4 -25 16.5 -49t34.5 -39.5t54 -15.5q33 0 54.5 15.5t34 39.5t16.5 49l51 -8q-2 -37 -18.5 -71.5t-50 -57t-87.5 -22.5z" />
    <glyph glyph-name="Iogonek" unicode="&#x12e;" horiz-adv-x="263" 
d="M139 -212q-40 0 -68 22t-28 65q0 41 21.5 72t46.5 53h-21v656h83v-656q-31 -24 -48 -50t-17 -57q0 -23 15 -34.5t32 -11.5q22 0 41 14l23 -45q-15 -11 -37.5 -19.5t-42.5 -8.5z" />
    <glyph glyph-name="iogonek" unicode="&#x12f;" horiz-adv-x="246" 
d="M129 -206q-38 0 -64.5 21.5t-26.5 63.5q0 41 21.5 70.5t42.5 50.5h-20v486h82v-486q-30 -22 -47.5 -49t-17.5 -56q0 -23 14 -34.5t33 -11.5q11 0 20.5 3.5t19.5 9.5l21 -41q-14 -11 -36.5 -19t-41.5 -8zM123 586q-24 0 -40.5 15t-16.5 38q0 24 16.5 38.5t40.5 14.5
q23 0 39.5 -14.5t16.5 -38.5q0 -23 -16.5 -38t-39.5 -15z" />
    <glyph glyph-name="Idotaccent" unicode="&#x130;" horiz-adv-x="263" 
d="M90 0v656h83v-656h-83zM132 714q-24 0 -40.5 15t-16.5 39q0 23 16.5 38t40.5 15t40.5 -15t16.5 -38q0 -24 -16.5 -39t-40.5 -15z" />
    <glyph glyph-name="dotlessi" unicode="&#x131;" horiz-adv-x="246" 
d="M82 0v486h82v-486h-82z" />
    <glyph glyph-name="uni0132" unicode="&#x132;" horiz-adv-x="526" 
d="M90 0v656h83v-656h-83zM302 -165q-22 0 -40.5 4t-31.5 8l16 66q10 -3 21.5 -6t24.5 -3q37 0 49 26t12 70v656h83v-659q0 -74 -31 -118t-103 -44z" />
    <glyph glyph-name="uni0133" unicode="&#x133;" horiz-adv-x="493" 
d="M82 0v486h82v-486h-82zM124 586q-24 0 -39.5 14.5t-15.5 39.5q0 24 15.5 39t39.5 15t39.5 -15t15.5 -39q0 -25 -15.5 -39.5t-39.5 -14.5zM278 -217q-22 0 -40.5 4t-31.5 9l17 62q9 -3 21 -5.5t25 -2.5q36 0 48 25.5t12 69.5v541h82v-541q0 -74 -30 -118t-103 -44z
M369 586q-24 0 -39.5 14.5t-15.5 39.5q0 24 15.5 39t39.5 15t39.5 -15t15.5 -39q0 -25 -15.5 -39.5t-39.5 -14.5z" />
    <glyph glyph-name="Jcircumflex" unicode="&#x134;" horiz-adv-x="480" 
d="M212 -12q-123 0 -181 105l60 42q22 -39 50 -56.5t63 -17.5q53 0 79 32.5t26 107.5v455h84v-463q0 -56 -18.5 -103t-58.5 -74.5t-104 -27.5zM236 699l-36 26l105 113h86l105 -113l-36 -26l-110 93h-4z" />
    <glyph glyph-name="jcircumflex" unicode="&#x135;" horiz-adv-x="247" 
d="M32 -217q-22 0 -40.5 4t-31.5 9l17 62q9 -3 21 -5.5t25 -2.5q36 0 48 25.5t12 69.5v541h82v-541q0 -74 -30 -118t-103 -44zM-30 600l114 140h82l114 -140l-35 -32l-118 113h-4l-118 -113z" />
    <glyph glyph-name="uni0136" unicode="&#x136;" horiz-adv-x="579" 
d="M90 0v656h83v-329h3l273 329h94l-205 -250l237 -406h-93l-196 341l-113 -133v-208h-83zM241 -226l-8 40q63 5 86 16.5t23 31.5t-18 29.5t-53 12.5l18 38q65 -7 91 -25t26 -52q0 -43 -42.5 -65t-122.5 -26z" />
    <glyph glyph-name="uni0137" unicode="&#x137;" horiz-adv-x="495" 
d="M82 0v712h81v-482h3l207 256h91l-163 -195l185 -291h-90l-142 234l-91 -106v-128h-81zM188 -226l-8 40q63 5 86 16.5t23 31.5t-18 29.5t-53 12.5l18 38q65 -7 91 -25t26 -52q0 -43 -42.5 -65t-122.5 -26z" />
    <glyph glyph-name="kgreenlandic" unicode="&#x138;" horiz-adv-x="495" 
d="M82 0v486h82v-258h3l206 258h91l-161 -195l183 -291h-90l-142 231l-90 -106v-125h-82z" />
    <glyph glyph-name="Lacute" unicode="&#x139;" horiz-adv-x="486" 
d="M90 0v656h83v-585h287v-71h-370zM116 697l-37 42l142 128l47 -55z" />
    <glyph glyph-name="lacute" unicode="&#x13a;" horiz-adv-x="255" 
d="M169 -12q-46 0 -66.5 28.5t-20.5 81.5v614h82v-620q0 -19 7 -27.5t16 -8.5q4 0 7.5 0.5l10.5 1.5l11 -62q-8 -4 -19 -6t-28 -2zM108 745l-37 42l142 128l47 -55z" />
    <glyph glyph-name="uni013B" unicode="&#x13b;" horiz-adv-x="486" 
d="M90 0v656h83v-585h287v-71h-370zM202 -226l-8 40q63 5 86 16.5t23 31.5t-18 29.5t-53 12.5l18 38q65 -7 91 -25t26 -52q0 -43 -42.5 -65t-122.5 -26z" />
    <glyph glyph-name="uni013C" unicode="&#x13c;" horiz-adv-x="255" 
d="M169 -12q-46 0 -66.5 28.5t-20.5 81.5v614h82v-620q0 -19 7 -27.5t16 -8.5q4 0 7.5 0.5l10.5 1.5l11 -62q-8 -4 -19 -6t-28 -2zM58 -226l-8 40q63 5 86 16.5t23 31.5t-18 29.5t-53 12.5l18 38q65 -7 91 -25t26 -52q0 -43 -42.5 -65t-122.5 -26z" />
    <glyph glyph-name="Lcaron" unicode="&#x13d;" horiz-adv-x="486" 
d="M90 0v656h83v-585h287v-71h-370zM334 514l-4 212h59l-1 -57l-14 -155h-40z" />
    <glyph glyph-name="lcaron" unicode="&#x13e;" horiz-adv-x="265" 
d="M169 -12q-46 0 -66.5 28.5t-20.5 81.5v614h82v-620q0 -19 7 -27.5t16 -8.5q4 0 7.5 0.5l10.5 1.5l11 -62q-8 -4 -19 -6t-28 -2zM221 548l-4 212h59l-1 -57l-14 -155h-40z" />
    <glyph glyph-name="Ldot" unicode="&#x13f;" horiz-adv-x="486" 
d="M90 0v656h83v-585h287v-71h-370zM377 263q-25 0 -42.5 17.5t-17.5 44.5q0 29 17.5 46.5t42.5 17.5q24 0 41.5 -17.5t17.5 -46.5q0 -27 -17.5 -44.5t-41.5 -17.5z" />
    <glyph glyph-name="ldot" unicode="&#x140;" horiz-adv-x="362" 
d="M169 -12q-46 0 -66.5 28.5t-20.5 81.5v614h82v-620q0 -19 7 -27.5t16 -8.5q4 0 7.5 0.5l10.5 1.5l11 -62q-8 -4 -19 -6t-28 -2zM304 263q-25 0 -42.5 17.5t-17.5 44.5q0 29 17.5 46.5t42.5 17.5q24 0 41.5 -17.5t17.5 -46.5q0 -27 -17.5 -44.5t-41.5 -17.5z" />
    <glyph glyph-name="Lslash" unicode="&#x141;" horiz-adv-x="489" 
d="M95 0v240l-71 -40l-30 53l101 55v348h83v-311l176 95l30 -53l-206 -110v-206h287v-71h-370z" />
    <glyph glyph-name="lslash" unicode="&#x142;" horiz-adv-x="279" 
d="M181 -12q-46 0 -66.5 28.5t-20.5 81.5v235l-73 -47l-30 53l103 63v310h82v-269l75 47l29 -53l-104 -62v-283q0 -19 7 -27.5t16 -8.5q4 0 7.5 0.5l10.5 1.5l11 -62q-8 -4 -19 -6t-28 -2z" />
    <glyph glyph-name="Nacute" unicode="&#x143;" horiz-adv-x="647" 
d="M90 0v656h86l237 -412l71 -136h4q-3 50 -6.5 103.5t-3.5 105.5v339h79v-656h-86l-238 413l-71 135h-4q4 -49 7.5 -101t3.5 -104v-343h-79zM317 697l-37 42l142 128l47 -55z" />
    <glyph glyph-name="nacute" unicode="&#x144;" horiz-adv-x="547" 
d="M82 0v486h68l7 -70h3q35 35 74 58.5t89 23.5q77 0 112.5 -48.5t35.5 -141.5v-308h-82v297q0 68 -22 99t-70 31q-37 0 -66.5 -19t-66.5 -56v-352h-82zM281 573l-42 41l141 167l58 -55z" />
    <glyph glyph-name="uni0145" unicode="&#x145;" horiz-adv-x="647" 
d="M90 0v656h86l237 -412l71 -136h4q-3 50 -6.5 103.5t-3.5 105.5v339h79v-656h-86l-238 413l-71 135h-4q4 -49 7.5 -101t3.5 -104v-343h-79zM244 -226l-8 40q63 5 86 16.5t23 31.5t-18 29.5t-53 12.5l18 38q65 -7 91 -25t26 -52q0 -43 -42.5 -65t-122.5 -26z" />
    <glyph glyph-name="uni0146" unicode="&#x146;" horiz-adv-x="547" 
d="M82 0v486h68l7 -70h3q35 35 74 58.5t89 23.5q77 0 112.5 -48.5t35.5 -141.5v-308h-82v297q0 68 -22 99t-70 31q-37 0 -66.5 -19t-66.5 -56v-352h-82zM190 -226l-8 40q63 5 86 16.5t23 31.5t-18 29.5t-53 12.5l18 38q65 -7 91 -25t26 -52q0 -43 -42.5 -65t-122.5 -26z" />
    <glyph glyph-name="Ncaron" unicode="&#x147;" horiz-adv-x="647" 
d="M90 0v656h86l237 -412l71 -136h4q-3 50 -6.5 103.5t-3.5 105.5v339h79v-656h-86l-238 413l-71 135h-4q4 -49 7.5 -101t3.5 -104v-343h-79zM291 706l-105 113l36 26l110 -92h4l110 92l36 -26l-105 -113h-86z" />
    <glyph glyph-name="ncaron" unicode="&#x148;" horiz-adv-x="547" 
d="M82 0v486h68l7 -70h3q35 35 74 58.5t89 23.5q77 0 112.5 -48.5t35.5 -141.5v-308h-82v297q0 68 -22 99t-70 31q-37 0 -66.5 -19t-66.5 -56v-352h-82zM254 574l-114 140l35 32l118 -113h4l118 113l35 -32l-114 -140h-82z" />
    <glyph glyph-name="napostrophe" unicode="&#x149;" horiz-adv-x="769" 
d="M86 431l-23 38q38 25 56.5 53.5t18.5 71.5q-3 -1 -8 -1q-21 0 -37 13t-16 37q0 26 15 41t38 15q29 0 46 -23.5t17 -67.5q0 -60 -27.5 -103.5t-79.5 -73.5zM304 0v486h68l7 -70h3q35 35 74 58.5t89 23.5q77 0 112.5 -48.5t35.5 -141.5v-308h-82v297q0 68 -22 99t-70 31
q-37 0 -66.5 -19t-66.5 -56v-352h-82z" />
    <glyph glyph-name="uni014A" unicode="&#x14a;" horiz-adv-x="635" 
d="M406 -12q-19 0 -41.5 4t-36.5 11l20 75q11 -5 22.5 -8t27.5 -3q27 0 49.5 23.5t36 82t13.5 162.5q0 99 -20.5 155.5t-56.5 80.5t-85 24q-26 0 -56 -12.5t-58 -34.5t-48 -51v-497h-83v656h81v-81q35 40 84 66.5t101 26.5q65 0 116.5 -32t81 -105t29.5 -196
q0 -126 -22 -202t-61.5 -110.5t-93.5 -34.5z" />
    <glyph glyph-name="uni014B" unicode="&#x14b;" horiz-adv-x="547" 
d="M338 -217q-22 0 -40.5 4t-30.5 9l16 62q9 -3 21 -5.5t25 -2.5q36 0 48 25.5t12 69.5v352q0 68 -22 99t-70 31q-37 0 -66.5 -19t-66.5 -56v-352h-82v486h68l7 -70h3q35 35 74 58.5t89 23.5q77 0 112.5 -48.5t35.5 -141.5v-363q0 -74 -30 -118t-103 -44z" />
    <glyph glyph-name="Omacron" unicode="&#x14c;" horiz-adv-x="664" 
d="M332 -12q-82 0 -145.5 42t-99 119t-35.5 182t35.5 180.5t99 116t145.5 40.5q83 0 146 -40.5t99 -116t36 -180.5t-36 -182t-99 -119t-146 -42zM332 61q59 0 102.5 33.5t67.5 94t24 142.5q0 122 -53 193t-141 71t-141 -71t-53 -193q0 -82 24 -142.5t68 -94t102 -33.5z
M198 735v57h268v-57h-268z" />
    <glyph glyph-name="omacron" unicode="&#x14d;" horiz-adv-x="542" 
d="M271 -12q-59 0 -110.5 30t-83 87t-31.5 137q0 82 31.5 139t83 87t110.5 30q60 0 111 -30t82.5 -87t31.5 -139q0 -80 -31.5 -137t-82.5 -87t-111 -30zM271 56q63 0 101.5 51.5t38.5 134.5q0 84 -38.5 136t-101.5 52q-62 0 -101 -52t-39 -136q0 -83 39 -134.5t101 -51.5z
M138 601v57h266v-57h-266z" />
    <glyph glyph-name="uni014E" unicode="&#x14e;" horiz-adv-x="664" 
d="M332 -12q-82 0 -145.5 42t-99 119t-35.5 182t35.5 180.5t99 116t145.5 40.5q83 0 146 -40.5t99 -116t36 -180.5t-36 -182t-99 -119t-146 -42zM332 61q59 0 102.5 33.5t67.5 94t24 142.5q0 122 -53 193t-141 71t-141 -71t-53 -193q0 -82 24 -142.5t68 -94t102 -33.5z
M332 705q-70 0 -105 38.5t-41 90.5l50 8q6 -35 29.5 -59.5t66.5 -24.5t66.5 24.5t29.5 59.5l50 -8q-6 -52 -41 -90.5t-105 -38.5z" />
    <glyph glyph-name="uni014F" unicode="&#x14f;" horiz-adv-x="542" 
d="M271 -12q-59 0 -110.5 30t-83 87t-31.5 137q0 82 31.5 139t83 87t110.5 30q60 0 111 -30t82.5 -87t31.5 -139q0 -80 -31.5 -137t-82.5 -87t-111 -30zM271 56q63 0 101.5 51.5t38.5 134.5q0 84 -38.5 136t-101.5 52q-62 0 -101 -52t-39 -136q0 -83 39 -134.5t101 -51.5z
M271 571q-53 0 -86.5 22.5t-50 57t-19.5 71.5l51 8q4 -25 16.5 -49t34.5 -39.5t54 -15.5q33 0 54.5 15.5t34 39.5t16.5 49l51 -8q-2 -37 -18.5 -71.5t-50 -57t-87.5 -22.5z" />
    <glyph glyph-name="Ohungarumlaut" unicode="&#x150;" horiz-adv-x="664" 
d="M332 -12q-82 0 -145.5 42t-99 119t-35.5 182t35.5 180.5t99 116t145.5 40.5q83 0 146 -40.5t99 -116t36 -180.5t-36 -182t-99 -119t-146 -42zM332 61q59 0 102.5 33.5t67.5 94t24 142.5q0 122 -53 193t-141 71t-141 -71t-53 -193q0 -82 24 -142.5t68 -94t102 -33.5z
M273 703l-43 21l92 152l56 -32zM433 703l-43 21l92 152l56 -32z" />
    <glyph glyph-name="ohungarumlaut" unicode="&#x151;" horiz-adv-x="542" 
d="M271 -12q-59 0 -110.5 30t-83 87t-31.5 137q0 82 31.5 139t83 87t110.5 30q60 0 111 -30t82.5 -87t31.5 -139q0 -80 -31.5 -137t-82.5 -87t-111 -30zM271 56q63 0 101.5 51.5t38.5 134.5q0 84 -38.5 136t-101.5 52q-62 0 -101 -52t-39 -136q0 -83 39 -134.5t101 -51.5z
M220 568l-45 21l86 172l59 -28zM371 568l-46 21l87 172l58 -28z" />
    <glyph glyph-name="OE" unicode="&#x152;" horiz-adv-x="847" 
d="M369 0q-149 0 -233 87t-84 244q0 156 84.5 240.5t236.5 84.5h415v-70h-278v-206h232v-71h-232v-238h288v-71h-429zM379 68h48v520h-48q-118 0 -179.5 -66t-61.5 -191t61.5 -194t179.5 -69z" />
    <glyph glyph-name="oe" unicode="&#x153;" horiz-adv-x="839" 
d="M264 -12q-58 0 -108 30t-80 87t-30 137q0 82 30.5 139t80.5 87t109 30q56 0 103 -31.5t73 -90.5q28 57 73 89.5t98 32.5q90 0 139 -62.5t49 -166.5q0 -28 -3 -46h-319q2 -50 23 -88t55 -59t75 -21q35 0 64 11.5t56 28.5l30 -57q-31 -20 -70.5 -35t-89.5 -15
q-57 0 -104 32.5t-75 88.5q-57 -121 -179 -121zM266 56q60 0 98 51.5t38 134.5q0 84 -38 136t-98 52t-98 -52t-38 -136q0 -83 38 -134.5t98 -51.5zM479 278h250q0 75 -31 115t-87 40q-50 0 -87.5 -42t-44.5 -113z" />
    <glyph glyph-name="Racute" unicode="&#x154;" horiz-adv-x="569" 
d="M90 0v656h205q67 0 119 -17.5t81.5 -58t29.5 -108.5q0 -76 -40 -122.5t-108 -63.5l167 -286h-94l-158 277h-119v-277h-83zM173 345h110q77 0 118 31.5t41 95.5q0 65 -41 91t-118 26h-110v-244zM278 697l-37 42l142 128l47 -55z" />
    <glyph glyph-name="racute" unicode="&#x155;" horiz-adv-x="347" 
d="M82 0v486h68l7 -88h3q25 46 61 73t77 27q29 0 52 -10l-16 -72q-12 4 -22 6t-25 2q-31 0 -64.5 -25t-58.5 -87v-312h-82zM208 573l-42 41l141 167l58 -55z" />
    <glyph glyph-name="uni0156" unicode="&#x156;" horiz-adv-x="569" 
d="M90 0v656h205q67 0 119 -17.5t81.5 -58t29.5 -108.5q0 -76 -40 -122.5t-108 -63.5l167 -286h-94l-158 277h-119v-277h-83zM173 345h110q77 0 118 31.5t41 95.5q0 65 -41 91t-118 26h-110v-244zM223 -226l-8 40q63 5 86 16.5t23 31.5t-18 29.5t-53 12.5l18 38
q65 -7 91 -25t26 -52q0 -43 -42.5 -65t-122.5 -26z" />
    <glyph glyph-name="uni0157" unicode="&#x157;" horiz-adv-x="347" 
d="M82 0v486h68l7 -88h3q25 46 61 73t77 27q29 0 52 -10l-16 -72q-12 4 -22 6t-25 2q-31 0 -64.5 -25t-58.5 -87v-312h-82zM34 -226l-8 40q63 5 86 16.5t23 31.5t-18 29.5t-53 12.5l18 38q65 -7 91 -25t26 -52q0 -43 -42.5 -65t-122.5 -26z" />
    <glyph glyph-name="Rcaron" unicode="&#x158;" horiz-adv-x="569" 
d="M90 0v656h205q67 0 119 -17.5t81.5 -58t29.5 -108.5q0 -76 -40 -122.5t-108 -63.5l167 -286h-94l-158 277h-119v-277h-83zM173 345h110q77 0 118 31.5t41 95.5q0 65 -41 91t-118 26h-110v-244zM252 706l-105 113l36 26l110 -92h4l110 92l36 -26l-105 -113h-86z" />
    <glyph glyph-name="rcaron" unicode="&#x159;" horiz-adv-x="347" 
d="M82 0v486h68l7 -88h3q25 46 61 73t77 27q29 0 52 -10l-16 -72q-12 4 -22 6t-25 2q-31 0 -64.5 -25t-58.5 -87v-312h-82zM181 574l-114 140l35 32l118 -113h4l118 113l35 -32l-114 -140h-82z" />
    <glyph glyph-name="Sacute" unicode="&#x15a;" horiz-adv-x="534" 
d="M272 -12q-69 0 -128 26.5t-102 70.5l50 58q35 -37 82.5 -59.5t98.5 -22.5q65 0 101 29.5t36 77.5q0 34 -14.5 54t-39 34t-55.5 28l-94 41q-31 13 -61.5 34t-51 54t-20.5 81q0 50 26.5 89.5t73.5 62t106 22.5t109 -22.5t85 -58.5l-45 -54q-30 29 -66.5 45.5t-82.5 16.5
q-55 0 -88.5 -26t-33.5 -70q0 -31 16.5 -51.5t41.5 -33.5t51 -24l93 -40q38 -16 68.5 -38.5t48.5 -55t18 -81.5q0 -52 -27 -94.5t-77 -67.5t-119 -25zM261 697l-37 42l142 128l47 -55z" />
    <glyph glyph-name="sacute" unicode="&#x15b;" horiz-adv-x="419" 
d="M209 -12q-52 0 -99 19.5t-82 47.5l41 55q32 -25 66 -41.5t77 -16.5q48 0 72 22.5t24 53.5q0 25 -16.5 42t-42 28.5t-52.5 21.5q-34 13 -67 29.5t-54 43t-21 67.5q0 59 44.5 98.5t123.5 39.5q45 0 84 -16t67 -39l-40 -52q-25 19 -52 31t-59 12q-46 0 -67.5 -21t-21.5 -49
q0 -23 15 -37.5t39 -25t51 -21.5q35 -13 69 -29.5t56.5 -44t22.5 -73.5q0 -39 -20.5 -72t-60 -53t-97.5 -20zM201 573l-42 41l141 167l58 -55z" />
    <glyph glyph-name="Scircumflex" unicode="&#x15c;" horiz-adv-x="534" 
d="M272 -12q-69 0 -128 26.5t-102 70.5l50 58q35 -37 82.5 -59.5t98.5 -22.5q65 0 101 29.5t36 77.5q0 34 -14.5 54t-39 34t-55.5 28l-94 41q-31 13 -61.5 34t-51 54t-20.5 81q0 50 26.5 89.5t73.5 62t106 22.5t109 -22.5t85 -58.5l-45 -54q-30 29 -66.5 45.5t-82.5 16.5
q-55 0 -88.5 -26t-33.5 -70q0 -31 16.5 -51.5t41.5 -33.5t51 -24l93 -40q38 -16 68.5 -38.5t48.5 -55t18 -81.5q0 -52 -27 -94.5t-77 -67.5t-119 -25zM166 699l-36 26l105 113h86l105 -113l-36 -26l-110 93h-4z" />
    <glyph glyph-name="scircumflex" unicode="&#x15d;" horiz-adv-x="419" 
d="M209 -12q-52 0 -99 19.5t-82 47.5l41 55q32 -25 66 -41.5t77 -16.5q48 0 72 22.5t24 53.5q0 25 -16.5 42t-42 28.5t-52.5 21.5q-34 13 -67 29.5t-54 43t-21 67.5q0 59 44.5 98.5t123.5 39.5q45 0 84 -16t67 -39l-40 -52q-25 19 -52 31t-59 12q-46 0 -67.5 -21t-21.5 -49
q0 -23 15 -37.5t39 -25t51 -21.5q35 -13 69 -29.5t56.5 -44t22.5 -73.5q0 -39 -20.5 -72t-60 -53t-97.5 -20zM60 600l114 140h82l114 -140l-35 -32l-118 113h-4l-118 -113z" />
    <glyph glyph-name="uni015E" unicode="&#x15e;" horiz-adv-x="534" 
d="M272 -12q-69 0 -128 26.5t-102 70.5l50 58q35 -37 82.5 -59.5t98.5 -22.5q65 0 101 29.5t36 77.5q0 34 -14.5 54t-39 34t-55.5 28l-94 41q-31 13 -61.5 34t-51 54t-20.5 81q0 50 26.5 89.5t73.5 62t106 22.5t109 -22.5t85 -58.5l-45 -54q-30 29 -66.5 45.5t-82.5 16.5
q-55 0 -88.5 -26t-33.5 -70q0 -31 16.5 -51.5t41.5 -33.5t51 -24l93 -40q38 -16 68.5 -38.5t48.5 -55t18 -81.5q0 -52 -27 -94.5t-77 -67.5t-119 -25zM186 -226l-8 40q63 5 86 16.5t23 33.5q0 20 -17 31t-60 17l44 91h53l-29 -67q35 -8 54 -24t19 -47q0 -43 -42.5 -65
t-122.5 -26z" />
    <glyph glyph-name="uni015F" unicode="&#x15f;" horiz-adv-x="419" 
d="M209 -12q-52 0 -99 19.5t-82 47.5l41 55q32 -25 66 -41.5t77 -16.5q48 0 72 22.5t24 53.5q0 25 -16.5 42t-42 28.5t-52.5 21.5q-34 13 -67 29.5t-54 43t-21 67.5q0 59 44.5 98.5t123.5 39.5q45 0 84 -16t67 -39l-40 -52q-25 19 -52 31t-59 12q-46 0 -67.5 -21t-21.5 -49
q0 -23 15 -37.5t39 -25t51 -21.5q35 -13 69 -29.5t56.5 -44t22.5 -73.5q0 -39 -20.5 -72t-60 -53t-97.5 -20zM127 -226l-8 40q63 5 86 16.5t23 33.5q0 20 -17 31t-60 17l44 91h53l-29 -67q35 -8 54 -24t19 -47q0 -43 -42.5 -65t-122.5 -26z" />
    <glyph glyph-name="Scaron" unicode="&#x160;" horiz-adv-x="534" 
d="M272 -12q-69 0 -128 26.5t-102 70.5l50 58q35 -37 82.5 -59.5t98.5 -22.5q65 0 101 29.5t36 77.5q0 34 -14.5 54t-39 34t-55.5 28l-94 41q-31 13 -61.5 34t-51 54t-20.5 81q0 50 26.5 89.5t73.5 62t106 22.5t109 -22.5t85 -58.5l-45 -54q-30 29 -66.5 45.5t-82.5 16.5
q-55 0 -88.5 -26t-33.5 -70q0 -31 16.5 -51.5t41.5 -33.5t51 -24l93 -40q38 -16 68.5 -38.5t48.5 -55t18 -81.5q0 -52 -27 -94.5t-77 -67.5t-119 -25zM235 706l-105 113l36 26l110 -92h4l110 92l36 -26l-105 -113h-86z" />
    <glyph glyph-name="scaron" unicode="&#x161;" horiz-adv-x="419" 
d="M209 -12q-52 0 -99 19.5t-82 47.5l41 55q32 -25 66 -41.5t77 -16.5q48 0 72 22.5t24 53.5q0 25 -16.5 42t-42 28.5t-52.5 21.5q-34 13 -67 29.5t-54 43t-21 67.5q0 59 44.5 98.5t123.5 39.5q45 0 84 -16t67 -39l-40 -52q-25 19 -52 31t-59 12q-46 0 -67.5 -21t-21.5 -49
q0 -23 15 -37.5t39 -25t51 -21.5q35 -13 69 -29.5t56.5 -44t22.5 -73.5q0 -39 -20.5 -72t-60 -53t-97.5 -20zM174 574l-114 140l35 32l118 -113h4l118 113l35 -32l-114 -140h-82z" />
    <glyph glyph-name="uni0162" unicode="&#x162;" horiz-adv-x="536" 
d="M226 0v586h-198v70h480v-70h-198v-586h-84zM175 -226l-8 40q63 5 86 16.5t23 33.5q0 20 -17 31t-60 17l44 91h53l-29 -67q35 -8 54 -24t19 -47q0 -43 -42.5 -65t-122.5 -26z" />
    <glyph glyph-name="uni0163" unicode="&#x163;" horiz-adv-x="338" 
d="M235 -12q-78 0 -108.5 45t-30.5 117v269h-72v62l76 5l10 136h69v-136h131v-67h-131v-270q0 -45 16.5 -69.5t58.5 -24.5q13 0 28 4.5t27 8.5l16 -62q-20 -7 -43.5 -12.5t-46.5 -5.5zM128 -226l-8 40q63 5 86 16.5t23 33.5q0 20 -17 31t-60 17l44 91h53l-29 -67
q35 -8 54 -24t19 -47q0 -43 -42.5 -65t-122.5 -26z" />
    <glyph glyph-name="Tcaron" unicode="&#x164;" horiz-adv-x="536" 
d="M226 0v586h-198v70h480v-70h-198v-586h-84zM224 706l-105 113l36 26l110 -92h4l110 92l36 -26l-105 -113h-86z" />
    <glyph glyph-name="tcaron" unicode="&#x165;" horiz-adv-x="338" 
d="M235 -12q-78 0 -108.5 45t-30.5 117v269h-72v62l76 5l10 136h69v-136h131v-67h-131v-270q0 -45 16.5 -69.5t58.5 -24.5q13 0 28 4.5t27 8.5l16 -62q-20 -7 -43.5 -12.5t-46.5 -5.5zM256 548l-4 212h59l-1 -57l-14 -155h-40z" />
    <glyph glyph-name="uni0166" unicode="&#x166;" horiz-adv-x="536" 
d="M226 0v305h-123v56l88 3h35v222h-198v70h480v-70h-198v-222h123v-59h-123v-305h-84z" />
    <glyph glyph-name="uni0167" unicode="&#x167;" horiz-adv-x="338" 
d="M235 -12q-78 0 -108.5 45t-30.5 117v71h-72v54l72 5v139h-72v62l76 5l10 136h69v-136h131v-67h-131v-139h131v-59h-131v-72q0 -45 16.5 -69.5t58.5 -24.5q13 0 28 4.5t27 8.5l16 -62q-20 -7 -43.5 -12.5t-46.5 -5.5z" />
    <glyph glyph-name="Utilde" unicode="&#x168;" horiz-adv-x="645" 
d="M323 -12q-67 0 -120.5 27t-84.5 89t-31 167v385h83v-387q0 -79 20.5 -124.5t55 -64.5t77.5 -19q44 0 79 19t55.5 64.5t20.5 124.5v387h80v-385q0 -105 -31 -167t-84 -89t-120 -27zM397 709q-28 0 -48.5 10.5t-36 25t-30.5 25t-33 10.5q-19 0 -32 -17t-16 -49l-56 4
q3 57 30 90t72 33q28 0 48.5 -10.5t36 -25t30.5 -25t33 -10.5q40 0 48 66l56 -4q-3 -58 -30 -90.5t-72 -32.5z" />
    <glyph glyph-name="utilde" unicode="&#x169;" horiz-adv-x="544" 
d="M224 -12q-77 0 -113 48.5t-36 141.5v308h83v-297q0 -68 21.5 -99t69.5 -31q38 0 67.5 19.5t63.5 62.5v345h82v-486h-68l-7 76h-3q-34 -40 -72 -64t-88 -24zM343 577q-27 0 -46 12.5t-34.5 29.5t-30.5 29.5t-32 12.5q-22 0 -33.5 -22t-13.5 -57l-55 3q2 59 25.5 97.5
t75.5 38.5q27 0 46 -12.5t35 -29.5t30.5 -29.5t32.5 -12.5q22 0 33 22.5t13 56.5l55 -4q-2 -58 -25.5 -96.5t-75.5 -38.5z" />
    <glyph glyph-name="Umacron" unicode="&#x16a;" horiz-adv-x="645" 
d="M323 -12q-67 0 -120.5 27t-84.5 89t-31 167v385h83v-387q0 -79 20.5 -124.5t55 -64.5t77.5 -19q44 0 79 19t55.5 64.5t20.5 124.5v387h80v-385q0 -105 -31 -167t-84 -89t-120 -27zM188 735v57h268v-57h-268z" />
    <glyph glyph-name="umacron" unicode="&#x16b;" horiz-adv-x="544" 
d="M224 -12q-77 0 -113 48.5t-36 141.5v308h83v-297q0 -68 21.5 -99t69.5 -31q38 0 67.5 19.5t63.5 62.5v345h82v-486h-68l-7 76h-3q-34 -40 -72 -64t-88 -24zM138 601v57h266v-57h-266z" />
    <glyph glyph-name="Ubreve" unicode="&#x16c;" horiz-adv-x="645" 
d="M323 -12q-67 0 -120.5 27t-84.5 89t-31 167v385h83v-387q0 -79 20.5 -124.5t55 -64.5t77.5 -19q44 0 79 19t55.5 64.5t20.5 124.5v387h80v-385q0 -105 -31 -167t-84 -89t-120 -27zM322 705q-70 0 -105 38.5t-41 90.5l50 8q6 -35 29.5 -59.5t66.5 -24.5t66.5 24.5
t29.5 59.5l50 -8q-6 -52 -41 -90.5t-105 -38.5z" />
    <glyph glyph-name="ubreve" unicode="&#x16d;" horiz-adv-x="544" 
d="M224 -12q-77 0 -113 48.5t-36 141.5v308h83v-297q0 -68 21.5 -99t69.5 -31q38 0 67.5 19.5t63.5 62.5v345h82v-486h-68l-7 76h-3q-34 -40 -72 -64t-88 -24zM271 571q-53 0 -86.5 22.5t-50 57t-19.5 71.5l51 8q4 -25 16.5 -49t34.5 -39.5t54 -15.5q33 0 54.5 15.5t34 39.5
t16.5 49l51 -8q-2 -37 -18.5 -71.5t-50 -57t-87.5 -22.5z" />
    <glyph glyph-name="Uring" unicode="&#x16e;" horiz-adv-x="645" 
d="M323 -12q-67 0 -120.5 27t-84.5 89t-31 167v385h83v-387q0 -79 20.5 -124.5t55 -64.5t77.5 -19q44 0 79 19t55.5 64.5t20.5 124.5v387h80v-385q0 -105 -31 -167t-84 -89t-120 -27zM322 699q-42 0 -69.5 25t-27.5 65q0 41 27.5 66t69.5 25q41 0 69 -25t28 -66
q0 -40 -28 -65t-69 -25zM322 735q20 0 35.5 14t15.5 40t-15.5 40t-35.5 14q-22 0 -37 -14t-15 -40t15 -40t37 -14z" />
    <glyph glyph-name="uring" unicode="&#x16f;" horiz-adv-x="544" 
d="M224 -12q-77 0 -113 48.5t-36 141.5v308h83v-297q0 -68 21.5 -99t69.5 -31q38 0 67.5 19.5t63.5 62.5v345h82v-486h-68l-7 76h-3q-34 -40 -72 -64t-88 -24zM271 554q-50 0 -80 28t-30 71q0 42 30 70t80 28t80 -28t30 -70q0 -43 -30 -71t-80 -28zM271 591q24 0 40.5 17
t16.5 45t-16.5 44.5t-40.5 16.5t-40.5 -16.5t-16.5 -44.5t16.5 -45t40.5 -17z" />
    <glyph glyph-name="Uhungarumlaut" unicode="&#x170;" horiz-adv-x="645" 
d="M323 -12q-67 0 -120.5 27t-84.5 89t-31 167v385h83v-387q0 -79 20.5 -124.5t55 -64.5t77.5 -19q44 0 79 19t55.5 64.5t20.5 124.5v387h80v-385q0 -105 -31 -167t-84 -89t-120 -27zM263 703l-43 21l92 152l56 -32zM423 703l-43 21l92 152l56 -32z" />
    <glyph glyph-name="uhungarumlaut" unicode="&#x171;" horiz-adv-x="544" 
d="M224 -12q-77 0 -113 48.5t-36 141.5v308h83v-297q0 -68 21.5 -99t69.5 -31q38 0 67.5 19.5t63.5 62.5v345h82v-486h-68l-7 76h-3q-34 -40 -72 -64t-88 -24zM220 568l-45 21l86 172l59 -28zM371 568l-46 21l87 172l58 -28z" />
    <glyph glyph-name="Uogonek" unicode="&#x172;" horiz-adv-x="645" 
d="M335 -212q-40 0 -68 22t-28 65q0 33 16.5 63t39.5 51q-60 5 -107 34.5t-74 89.5t-27 158v385h83v-387q0 -79 20.5 -124.5t55 -64.5t77.5 -19q44 0 79 19t55.5 64.5t20.5 124.5v387h80v-385q0 -129 -46.5 -194t-133.5 -86q-34 -8 -54 -39t-20 -59q0 -23 15 -34.5t33 -11.5
q21 0 40 14l23 -45q-14 -11 -37 -19.5t-43 -8.5z" />
    <glyph glyph-name="uogonek" unicode="&#x173;" horiz-adv-x="544" 
d="M405 -206q-38 0 -64.5 21.5t-26.5 63.5q0 41 24.5 71.5t56.5 53.5l-8 72h-3q-34 -40 -72 -64t-88 -24q-77 0 -113 48.5t-36 141.5v308h83v-297q0 -68 21 -99t70 -31q38 0 67.5 19.5t63.5 62.5v345h82v-486q-44 -22 -65.5 -49t-21.5 -56q0 -23 14.5 -34.5t31.5 -11.5
q12 0 22 3.5t19 9.5l21 -41q-14 -11 -36.5 -19t-41.5 -8z" />
    <glyph glyph-name="Wcircumflex" unicode="&#x174;" horiz-adv-x="786" 
d="M162 0l-139 656h86l69 -357q9 -53 19 -106t19 -106h4q11 53 23 106.5t23 105.5l91 357h76l91 -357q12 -52 24 -105.5t24 -106.5h4q9 53 18 106.5t19 105.5l69 357h80l-136 -656h-100l-99 395q-9 38 -16.5 74.5t-15.5 74.5h-4q-7 -38 -16 -74.5t-17 -74.5l-97 -395h-99z
M281 699l-36 26l105 113h86l105 -113l-36 -26l-110 93h-4z" />
    <glyph glyph-name="wcircumflex" unicode="&#x175;" horiz-adv-x="718" 
d="M159 0l-135 486h84l72 -281q8 -34 15 -67.5t14 -67.5h4q8 34 16 67.5t17 67.5l75 281h80l76 -281q9 -34 17.5 -67.5t16.5 -67.5h4q8 34 15.5 67.5t14.5 67.5l71 281h78l-130 -486h-100l-70 261q-9 35 -16.5 69t-16.5 71h-4q-8 -37 -16 -71.5t-18 -69.5l-68 -260h-96z
M205 600l114 140h82l114 -140l-35 -32l-118 113h-4l-118 -113z" />
    <glyph glyph-name="Ycircumflex" unicode="&#x176;" horiz-adv-x="476" 
d="M196 0v254l-197 402h89l85 -185q16 -36 31.5 -71t31.5 -72h4q17 37 34 72t32 71l84 185h87l-197 -402v-254h-84zM126 699l-36 26l105 113h86l105 -113l-36 -26l-110 93h-4z" />
    <glyph glyph-name="ycircumflex" unicode="&#x177;" horiz-adv-x="467" 
d="M90 -209q-16 0 -30.5 3t-26.5 7l16 65l18 -4.5t19 -2.5q41 0 68 29.5t42 74.5l11 36l-195 487h85l99 -269q11 -31 23.5 -67t23.5 -70h4q11 33 21 69t20 68l87 269h80l-183 -526q-17 -48 -40.5 -86t-58 -60.5t-83.5 -22.5zM88 600l114 140h82l114 -140l-35 -32l-118 113
h-4l-118 -113z" />
    <glyph glyph-name="Ydieresis" unicode="&#x178;" horiz-adv-x="476" 
d="M196 0v254l-197 402h89l85 -185q16 -36 31.5 -71t31.5 -72h4q17 37 34 72t32 71l84 185h87l-197 -402v-254h-84zM135 715q-21 0 -35 14t-14 35q0 22 14 35.5t35 13.5q22 0 35.5 -13.5t13.5 -35.5q0 -21 -13.5 -35t-35.5 -14zM341 715q-22 0 -35.5 14t-13.5 35
q0 22 13.5 35.5t35.5 13.5q21 0 35 -13.5t14 -35.5q0 -21 -14 -35t-35 -14z" />
    <glyph glyph-name="Zacute" unicode="&#x179;" horiz-adv-x="539" 
d="M45 0v50l345 536h-314v70h418v-49l-346 -536h349v-71h-452zM263 697l-37 42l142 128l47 -55z" />
    <glyph glyph-name="zacute" unicode="&#x17a;" horiz-adv-x="425" 
d="M31 0v44l256 375h-228v67h332v-44l-256 -375h264v-67h-368zM217 573l-42 41l141 167l58 -55z" />
    <glyph glyph-name="Zdotaccent" unicode="&#x17b;" horiz-adv-x="539" 
d="M45 0v50l345 536h-314v70h418v-49l-346 -536h349v-71h-452zM280 714q-24 0 -40.5 15t-16.5 39q0 23 16.5 38t40.5 15t40.5 -15t16.5 -38q0 -24 -16.5 -39t-40.5 -15z" />
    <glyph glyph-name="zdotaccent" unicode="&#x17c;" horiz-adv-x="425" 
d="M31 0v44l256 375h-228v67h332v-44l-256 -375h264v-67h-368zM231 586q-24 0 -39.5 14.5t-15.5 39.5q0 24 15.5 39t39.5 15t39.5 -15t15.5 -39q0 -25 -15.5 -39.5t-39.5 -14.5z" />
    <glyph glyph-name="Zcaron" unicode="&#x17d;" horiz-adv-x="539" 
d="M45 0v50l345 536h-314v70h418v-49l-346 -536h349v-71h-452zM237 706l-105 113l36 26l110 -92h4l110 92l36 -26l-105 -113h-86z" />
    <glyph glyph-name="zcaron" unicode="&#x17e;" horiz-adv-x="425" 
d="M31 0v44l256 375h-228v67h332v-44l-256 -375h264v-67h-368zM190 574l-114 140l35 32l118 -113h4l118 113l35 -32l-114 -140h-82z" />
    <glyph glyph-name="uni0180" unicode="&#x180;" horiz-adv-x="544" 
d="M297 -12q-34 0 -70.5 16.5t-68.5 45.5h-3l-7 -50h-66v560h-74v54l74 5v93h82v-93h182v-59h-182v-82l-2 -87q33 29 72.5 48.5t79.5 19.5q95 0 144 -62.5t49 -164.5q0 -76 -29.5 -131t-77 -84t-103.5 -29zM283 57q60 0 99.5 47.5t39.5 126.5q0 69 -29.5 114t-98.5 45
q-60 0 -130 -67v-215q32 -28 63.5 -39.5t55.5 -11.5z" />
    <glyph glyph-name="uni018F" unicode="&#x18f;" horiz-adv-x="658" 
d="M328 -12q-85 0 -145.5 41.5t-92.5 117t-32 178.5q0 5 0.5 11.5t1.5 13.5h464q-4 121 -54.5 185t-144.5 64q-49 0 -90 -18t-70 -47l-41 57q35 34 87.5 55.5t119.5 21.5q128 0 201.5 -87t73.5 -251q0 -109 -34.5 -185.5t-96.5 -116.5t-147 -40zM327 57q83 0 135 58.5
t60 170.5h-379q5 -109 55 -169t129 -60z" />
    <glyph glyph-name="uni0192" unicode="&#x192;" horiz-adv-x="497" 
d="M91 -97q-46 0 -73 15l15 62q23 -10 50 -10q47 0 67.5 40t28.5 116l24 219h-87v59l69 4h25l6 56q11 100 49.5 152t118.5 52q22 0 43 -5.5t35 -12.5l-18 -63q-10 5 -23.5 9.5t-32.5 4.5q-30 0 -49 -18.5t-29 -48t-14 -63.5l-7 -63h126v-63h-133l-26 -237q-7 -61 -24.5 -107
t-51 -72t-89.5 -26z" />
    <glyph glyph-name="uni0193" unicode="&#x193;" horiz-adv-x="617" 
d="M348 -12q-86 0 -153 40.5t-105 116.5t-38 183q0 106 39 182t107 117t155 41q26 0 49 -3.5t42 -9.5q-6 20 -6 40q0 48 31 78.5t82 30.5q20 0 35 -4t27 -9l-16 -63q-8 3 -15.5 6t-18.5 3q-25 0 -39 -15.5t-14 -38.5q0 -22 8 -39t24 -40l-46 -55q-25 19 -58 32.5t-83 13.5
q-66 0 -115 -32.5t-75.5 -91.5t-26.5 -141q0 -124 56.5 -196.5t161.5 -72.5q35 0 67 10.5t51 28.5v171h-139v69h215v-276q-31 -33 -83.5 -54.5t-118.5 -21.5z" />
    <glyph glyph-name="Ohorn" unicode="&#x1a0;" horiz-adv-x="664" 
d="M335 -12q-82 0 -145.5 42t-99 119t-35.5 182t35.5 180.5t99 116t145.5 40.5q71 0 130 -31q81 16 81 82q0 15 -4 30.5t-10 27.5l65 28q10 -16 16.5 -36.5t6.5 -43.5q0 -50 -28.5 -79.5t-78.5 -42.5q48 -43 75.5 -112t27.5 -160q0 -105 -36 -182t-99 -119t-146 -42zM335 61
q59 0 102.5 33.5t67.5 94t24 142.5q0 122 -53 193t-141 71t-141 -71t-53 -193q0 -82 24 -142.5t68 -94t102 -33.5z" />
    <glyph glyph-name="ohorn" unicode="&#x1a1;" horiz-adv-x="542" 
d="M271 -12q-59 0 -110.5 30t-83 87t-31.5 137q0 82 31.5 139t83 87t110.5 30q50 0 95 -21q41 8 63.5 31t22.5 64q0 28 -15 55l64 30q10 -16 16.5 -36.5t6.5 -42.5q0 -39 -16 -66t-41 -43.5t-53 -24.5q38 -32 60 -83t22 -119q0 -80 -31.5 -137t-82.5 -87t-111 -30zM271 56
q63 0 101.5 51.5t38.5 134.5q0 84 -38.5 136t-101.5 52q-62 0 -101 -52t-39 -136q0 -83 39 -134.5t101 -51.5z" />
    <glyph glyph-name="Uhorn" unicode="&#x1af;" horiz-adv-x="659" 
d="M558 620v-349q0 -105 -31 -167t-84 -89t-120 -27t-120.5 27t-84.5 89t-31 167v385h83v-387q0 -79 20.5 -124.5t55 -64.5t77.5 -19q44 0 79 19t55.5 64.5t20.5 124.5v387h33q41 5 65.5 23t24.5 60q0 31 -15 58l65 28q11 -16 17 -36.5t6 -43.5q0 -58 -33.5 -86t-82.5 -39z
" />
    <glyph glyph-name="uhorn" unicode="&#x1b0;" horiz-adv-x="544" 
d="M224 -12q-77 0 -113 48.5t-36 141.5v308h83v-297q0 -68 21.5 -99t69.5 -31q38 0 67.5 19.5t63.5 62.5v345h21q35 5 59.5 26t24.5 70q0 14 -4 28.5t-10 26.5l64 30q10 -16 16.5 -36.5t6.5 -42.5q0 -40 -14.5 -67t-36.5 -42.5t-45 -23.5v-455h-68l-7 76h-3q-34 -40 -72 -64
t-88 -24z" />
    <glyph glyph-name="uni01C2" unicode="&#x1c2;" horiz-adv-x="385" 
d="M157 0v245h-128v54l78 5h50v103h-128v54l78 5h50v246h82v-246h117v-59h-117v-103h117v-59h-117v-245h-82z" />
    <glyph glyph-name="uni01C3" unicode="&#x1c3;" horiz-adv-x="248" 
d="M96 198l-12 378l-2 136h84l-2 -136l-12 -378h-56zM124 -12q-25 0 -42.5 17.5t-17.5 44.5q0 29 17.5 46.5t42.5 17.5t42.5 -17.5t17.5 -46.5q0 -27 -17.5 -44.5t-42.5 -17.5z" />
    <glyph glyph-name="uni01CD" unicode="&#x1cd;" horiz-adv-x="544" 
d="M203 367l-31 -100h197l-31 100q-18 55 -34 109.5t-32 111.5h-4q-15 -57 -31 -111.5t-34 -109.5zM3 0l222 656h94l222 -656h-89l-62 200h-239l-63 -200h-85zM228 706l-105 113l36 26l110 -92h4l110 92l36 -26l-105 -113h-86z" />
    <glyph glyph-name="uni01CE" unicode="&#x1ce;" horiz-adv-x="504" 
d="M194 -12q-61 0 -101.5 36.5t-40.5 101.5q0 80 71.5 122.5t226.5 59.5q0 31 -8.5 59t-30 45.5t-61.5 17.5q-42 0 -79 -16t-66 -36l-32 57q34 22 83.5 42.5t107.5 20.5q89 0 129 -54.5t40 -145.5v-298h-68l-7 58h-3q-34 -28 -74.5 -49t-86.5 -21zM218 54q35 0 66 17t66 48
v135q-121 -15 -169.5 -45t-48.5 -77q0 -41 25 -59.5t61 -18.5zM226 574l-114 140l35 32l118 -113h4l118 113l35 -32l-114 -140h-82z" />
    <glyph glyph-name="uni01CF" unicode="&#x1cf;" horiz-adv-x="263" 
d="M90 0v656h83v-656h-83zM89 706l-105 113l36 26l110 -92h4l110 92l36 -26l-105 -113h-86z" />
    <glyph glyph-name="uni01D0" unicode="&#x1d0;" horiz-adv-x="246" 
d="M82 0v486h82v-486h-82zM83 574l-114 140l35 32l118 -113h4l118 113l35 -32l-114 -140h-82z" />
    <glyph glyph-name="uni01D1" unicode="&#x1d1;" horiz-adv-x="664" 
d="M332 -12q-82 0 -145.5 42t-99 119t-35.5 182t35.5 180.5t99 116t145.5 40.5q83 0 146 -40.5t99 -116t36 -180.5t-36 -182t-99 -119t-146 -42zM332 61q59 0 102.5 33.5t67.5 94t24 142.5q0 122 -53 193t-141 71t-141 -71t-53 -193q0 -82 24 -142.5t68 -94t102 -33.5z
M289 706l-105 113l36 26l110 -92h4l110 92l36 -26l-105 -113h-86z" />
    <glyph glyph-name="uni01D2" unicode="&#x1d2;" horiz-adv-x="542" 
d="M271 -12q-59 0 -110.5 30t-83 87t-31.5 137q0 82 31.5 139t83 87t110.5 30q60 0 111 -30t82.5 -87t31.5 -139q0 -80 -31.5 -137t-82.5 -87t-111 -30zM271 56q63 0 101.5 51.5t38.5 134.5q0 84 -38.5 136t-101.5 52q-62 0 -101 -52t-39 -136q0 -83 39 -134.5t101 -51.5z
M230 574l-114 140l35 32l118 -113h4l118 113l35 -32l-114 -140h-82z" />
    <glyph glyph-name="uni01D3" unicode="&#x1d3;" horiz-adv-x="645" 
d="M323 -12q-67 0 -120.5 27t-84.5 89t-31 167v385h83v-387q0 -79 20.5 -124.5t55 -64.5t77.5 -19q44 0 79 19t55.5 64.5t20.5 124.5v387h80v-385q0 -105 -31 -167t-84 -89t-120 -27zM279 706l-105 113l36 26l110 -92h4l110 92l36 -26l-105 -113h-86z" />
    <glyph glyph-name="uni01D4" unicode="&#x1d4;" horiz-adv-x="544" 
d="M224 -12q-77 0 -113 48.5t-36 141.5v308h83v-297q0 -68 21.5 -99t69.5 -31q38 0 67.5 19.5t63.5 62.5v345h82v-486h-68l-7 76h-3q-34 -40 -72 -64t-88 -24zM230 574l-114 140l35 32l118 -113h4l118 113l35 -32l-114 -140h-82z" />
    <glyph glyph-name="uni01D5" unicode="&#x1d5;" horiz-adv-x="645" 
d="M323 -12q-67 0 -120.5 27t-84.5 89t-31 167v385h83v-387q0 -79 20.5 -124.5t55 -64.5t77.5 -19q44 0 79 19t55.5 64.5t20.5 124.5v387h80v-385q0 -105 -31 -167t-84 -89t-120 -27zM219 715q-19 0 -32 13t-13 33t13 32.5t32 12.5q20 0 33 -12.5t13 -32.5t-13 -33t-33 -13z
M188 861v46h268v-46h-268zM425 715q-19 0 -32.5 13t-13.5 33t13.5 32.5t32.5 12.5q20 0 32.5 -12.5t12.5 -32.5t-12.5 -33t-32.5 -13z" />
    <glyph glyph-name="uni01D6" unicode="&#x1d6;" horiz-adv-x="544" 
d="M224 -12q-77 0 -113 48.5t-36 141.5v308h83v-297q0 -68 21.5 -99t69.5 -31q38 0 67.5 19.5t63.5 62.5v345h82v-486h-68l-7 76h-3q-34 -40 -72 -64t-88 -24zM175 588q-19 0 -32.5 13t-13.5 32q0 20 13.5 33t32.5 13q20 0 32.5 -13t12.5 -33q0 -19 -12.5 -32t-32.5 -13z
M137 750v47h267v-47h-267zM367 588q-19 0 -32 13t-13 32q0 20 13 33t32 13q20 0 33 -13t13 -33q0 -19 -13 -32t-33 -13z" />
    <glyph glyph-name="uni01D7" unicode="&#x1d7;" horiz-adv-x="645" 
d="M323 -12q-67 0 -120.5 27t-84.5 89t-31 167v385h83v-387q0 -79 20.5 -124.5t55 -64.5t77.5 -19q44 0 79 19t55.5 64.5t20.5 124.5v387h80v-385q0 -105 -31 -167t-84 -89t-120 -27zM219 715q-19 0 -32 13t-13 33t13 32.5t32 12.5q20 0 33 -12.5t13 -32.5t-13 -33t-33 -13z
M321 823l-37 26l95 119l53 -36zM425 715q-19 0 -32.5 13t-13.5 33t13.5 32.5t32.5 12.5q20 0 32.5 -12.5t12.5 -32.5t-12.5 -33t-32.5 -13z" />
    <glyph glyph-name="uni01D8" unicode="&#x1d8;" horiz-adv-x="544" 
d="M224 -12q-77 0 -113 48.5t-36 141.5v308h83v-297q0 -68 21.5 -99t69.5 -31q38 0 67.5 19.5t63.5 62.5v345h82v-486h-68l-7 76h-3q-34 -40 -72 -64t-88 -24zM175 588q-19 0 -32.5 13t-13.5 32q0 20 13.5 33t32.5 13q20 0 32.5 -13t12.5 -33q0 -19 -12.5 -32t-32.5 -13z
M264 705l-35 24l82 115l49 -34zM367 588q-19 0 -32 13t-13 32q0 20 13 33t32 13q20 0 33 -13t13 -33q0 -19 -13 -32t-33 -13z" />
    <glyph glyph-name="uni01D9" unicode="&#x1d9;" horiz-adv-x="645" 
d="M323 -12q-67 0 -120.5 27t-84.5 89t-31 167v385h83v-387q0 -79 20.5 -124.5t55 -64.5t77.5 -19q44 0 79 19t55.5 64.5t20.5 124.5v387h80v-385q0 -105 -31 -167t-84 -89t-120 -27zM286 839l-99 96l33 27l100 -75h4l100 75l33 -27l-99 -96h-72zM219 715q-19 0 -32 13
t-13 33t13 32.5t32 12.5q20 0 33 -12.5t13 -32.5t-13 -33t-33 -13zM425 715q-19 0 -32.5 13t-13.5 33t13.5 32.5t32.5 12.5q20 0 32.5 -12.5t12.5 -32.5t-12.5 -33t-32.5 -13z" />
    <glyph glyph-name="uni01DA" unicode="&#x1da;" horiz-adv-x="544" 
d="M224 -12q-77 0 -113 48.5t-36 141.5v308h83v-297q0 -68 21.5 -99t69.5 -31q38 0 67.5 19.5t63.5 62.5v345h82v-486h-68l-7 76h-3q-34 -40 -72 -64t-88 -24zM237 720l-94 92l30 28l96 -73h4l96 73l30 -28l-94 -92h-68zM175 588q-19 0 -32.5 13t-13.5 32q0 20 13.5 33
t32.5 13q20 0 32.5 -13t12.5 -33q0 -19 -12.5 -32t-32.5 -13zM367 588q-19 0 -32 13t-13 32q0 20 13 33t32 13q20 0 33 -13t13 -33q0 -19 -13 -32t-33 -13z" />
    <glyph glyph-name="uni01DB" unicode="&#x1db;" horiz-adv-x="645" 
d="M323 -12q-67 0 -120.5 27t-84.5 89t-31 167v385h83v-387q0 -79 20.5 -124.5t55 -64.5t77.5 -19q44 0 79 19t55.5 64.5t20.5 124.5v387h80v-385q0 -105 -31 -167t-84 -89t-120 -27zM219 715q-19 0 -32 13t-13 33t13 32.5t32 12.5q20 0 33 -12.5t13 -32.5t-13 -33t-33 -13z
M323 823l-111 109l53 36l95 -119zM425 715q-19 0 -32.5 13t-13.5 33t13.5 32.5t32.5 12.5q20 0 32.5 -12.5t12.5 -32.5t-12.5 -33t-32.5 -13z" />
    <glyph glyph-name="uni01DC" unicode="&#x1dc;" horiz-adv-x="544" 
d="M224 -12q-77 0 -113 48.5t-36 141.5v308h83v-297q0 -68 21.5 -99t69.5 -31q38 0 67.5 19.5t63.5 62.5v345h82v-486h-68l-7 76h-3q-34 -40 -72 -64t-88 -24zM175 588q-19 0 -32.5 13t-13.5 32q0 20 13.5 33t32.5 13q20 0 32.5 -13t12.5 -33q0 -19 -12.5 -32t-32.5 -13z
M278 705l-96 105l49 34l82 -115zM367 588q-19 0 -32 13t-13 32q0 20 13 33t32 13q20 0 33 -13t13 -33q0 -19 -13 -32t-33 -13z" />
    <glyph glyph-name="uni01E2" unicode="&#x1e2;" horiz-adv-x="822" 
d="M290 376l-61 -118h172v332h-4q-53 -107 -107 -214zM8 0l344 656h411v-70h-278v-206h232v-71h-232v-238h288v-71h-372v191h-206l-99 -191h-88zM431 743v57h268v-57h-268z" />
    <glyph glyph-name="uni01E3" unicode="&#x1e3;" horiz-adv-x="785" 
d="M201 -12q-61 0 -102 36.5t-41 101.5q0 80 71.5 122.5t222.5 59.5q0 31 -8 59t-29.5 45.5t-61.5 17.5t-76 -16t-65 -36l-33 57q34 22 82 42.5t102 20.5t89 -28t50 -75q29 47 70 75t90 28q89 0 137 -62.5t48 -166.5q0 -28 -3 -46h-315q3 -76 46 -122t105 -46q35 0 63 11.5
t55 28.5l30 -57q-31 -20 -69.5 -35t-88.5 -15q-61 0 -102 27.5t-69 63.5q-102 -91 -198 -91zM224 54q34 0 74 19.5t73 55.5q-8 19 -13 45.5t-6 54.5v25q-115 -15 -164 -45t-49 -77q0 -41 24.5 -59.5t60.5 -18.5zM429 278h246q0 75 -29.5 115t-85.5 40q-50 0 -87 -42
t-44 -113zM280 601v57h266v-57h-266z" />
    <glyph glyph-name="Gcaron" unicode="&#x1e6;" horiz-adv-x="617" 
d="M348 -12q-86 0 -153 40.5t-105 116.5t-38 183q0 106 39 182t107 117t155 41q68 0 114.5 -25.5t74.5 -55.5l-46 -54q-25 26 -58 44t-83 18q-66 0 -115 -32.5t-75.5 -91.5t-26.5 -141q0 -124 56.5 -196.5t161.5 -72.5q35 0 67 10.5t51 28.5v171h-139v69h215v-276
q-31 -33 -83.5 -54.5t-118.5 -21.5zM308 706l-105 113l36 26l110 -92h4l110 92l36 -26l-105 -113h-86z" />
    <glyph glyph-name="gcaron" unicode="&#x1e7;" horiz-adv-x="504" 
d="M246 -224q-89 0 -145 34t-56 97q0 31 19 59.5t52 50.5v4q-18 11 -30.5 31t-12.5 48q0 31 17 54t36 36v4q-24 20 -43.5 54t-19.5 77q0 53 25 92t67 60t91 21q20 0 38 -3.5t31 -8.5h169v-63h-100q17 -16 28.5 -42.5t11.5 -57.5q0 -52 -24 -90t-64 -58.5t-90 -20.5
q-39 0 -73 17q-13 -11 -22 -24.5t-9 -33.5q0 -23 18.5 -38t67.5 -15h94q85 0 127.5 -27.5t42.5 -88.5q0 -45 -30 -83t-85 -61.5t-131 -23.5zM246 209q42 0 72.5 31.5t30.5 84.5t-30 83t-73 30t-73 -30t-30 -83t30.5 -84.5t72.5 -31.5zM258 -167q70 0 112 30.5t42 68.5
q0 34 -25.5 47t-72.5 13h-84q-14 0 -30.5 2t-32.5 6q-26 -19 -38 -40t-12 -42q0 -39 37.5 -62t103.5 -23zM217 574l-114 140l35 32l118 -113h4l118 113l35 -32l-114 -140h-82z" />
    <glyph glyph-name="uni01EA" unicode="&#x1ea;" horiz-adv-x="664" 
d="M345 -212q-40 0 -68 22t-28 65q0 29 16.5 60t47.5 54q-78 5 -136.5 47.5t-91.5 117.5t-33 177q0 105 35.5 180.5t99 116t145.5 40.5q83 0 146 -40.5t99 -116t36 -180.5q0 -95 -27 -162.5t-72.5 -109.5t-101.5 -60q-55 -18 -76.5 -49.5t-21.5 -56.5q0 -23 15 -34.5
t33 -11.5q21 0 40 14l23 -45q-14 -11 -37 -19.5t-43 -8.5zM332 61q59 0 102.5 33.5t67.5 94t24 142.5q0 122 -53 193t-141 71t-141 -71t-53 -193q0 -82 24 -142.5t68 -94t102 -33.5z" />
    <glyph glyph-name="uni01EB" unicode="&#x1eb;" horiz-adv-x="542" 
d="M282 -206q-38 0 -64.5 21.5t-26.5 63.5q0 28 15.5 58t43.5 52q-55 5 -101.5 36.5t-74.5 86.5t-28 130q0 82 31.5 139t83 87t110.5 30q60 0 111 -30t82.5 -87t31.5 -139q0 -66 -21.5 -115t-57 -81t-77.5 -48q-49 -19 -68.5 -46.5t-19.5 -56.5q0 -23 14.5 -34.5t31.5 -11.5
q12 0 21 3.5t18 9.5l22 -41q-14 -11 -36 -19t-41 -8zM271 56q63 0 101.5 51.5t38.5 134.5q0 84 -38.5 136t-101.5 52q-62 0 -101 -52t-39 -136q0 -83 39 -134.5t101 -51.5z" />
    <glyph glyph-name="uni01F4" unicode="&#x1f4;" horiz-adv-x="617" 
d="M348 -12q-86 0 -153 40.5t-105 116.5t-38 183q0 106 39 182t107 117t155 41q68 0 114.5 -25.5t74.5 -55.5l-46 -54q-25 26 -58 44t-83 18q-66 0 -115 -32.5t-75.5 -91.5t-26.5 -141q0 -124 56.5 -196.5t161.5 -72.5q35 0 67 10.5t51 28.5v171h-139v69h215v-276
q-31 -33 -83.5 -54.5t-118.5 -21.5zM334 697l-37 42l142 128l47 -55z" />
    <glyph glyph-name="uni01F5" unicode="&#x1f5;" horiz-adv-x="504" 
d="M246 -224q-89 0 -145 34t-56 97q0 31 19 59.5t52 50.5v4q-18 11 -30.5 31t-12.5 48q0 31 17 54t36 36v4q-24 20 -43.5 54t-19.5 77q0 53 25 92t67 60t91 21q20 0 38 -3.5t31 -8.5h169v-63h-100q17 -16 28.5 -42.5t11.5 -57.5q0 -52 -24 -90t-64 -58.5t-90 -20.5
q-39 0 -73 17q-13 -11 -22 -24.5t-9 -33.5q0 -23 18.5 -38t67.5 -15h94q85 0 127.5 -27.5t42.5 -88.5q0 -45 -30 -83t-85 -61.5t-131 -23.5zM246 209q42 0 72.5 31.5t30.5 84.5t-30 83t-73 30t-73 -30t-30 -83t30.5 -84.5t72.5 -31.5zM258 -167q70 0 112 30.5t42 68.5
q0 34 -25.5 47t-72.5 13h-84q-14 0 -30.5 2t-32.5 6q-26 -19 -38 -40t-12 -42q0 -39 37.5 -62t103.5 -23zM244 573l-42 41l141 167l58 -55z" />
    <glyph glyph-name="uni01F8" unicode="&#x1f8;" horiz-adv-x="647" 
d="M90 0v656h86l237 -412l71 -136h4q-3 50 -6.5 103.5t-3.5 105.5v339h79v-656h-86l-238 413l-71 135h-4q4 -49 7.5 -101t3.5 -104v-343h-79zM351 697l-152 115l47 55l142 -128z" />
    <glyph glyph-name="uni01F9" unicode="&#x1f9;" horiz-adv-x="547" 
d="M82 0v486h68l7 -70h3q35 35 74 58.5t89 23.5q77 0 112.5 -48.5t35.5 -141.5v-308h-82v297q0 68 -22 99t-70 31q-37 0 -66.5 -19t-66.5 -56v-352h-82zM309 573l-157 153l58 55l141 -167z" />
    <glyph glyph-name="uni01FC" unicode="&#x1fc;" horiz-adv-x="822" 
d="M290 376l-61 -118h172v332h-4q-53 -107 -107 -214zM8 0l344 656h411v-70h-278v-206h232v-71h-232v-238h288v-71h-372v191h-206l-99 -191h-88zM548 705l-37 42l142 128l47 -55z" />
    <glyph glyph-name="uni01FD" unicode="&#x1fd;" horiz-adv-x="785" 
d="M201 -12q-61 0 -102 36.5t-41 101.5q0 80 71.5 122.5t222.5 59.5q0 31 -8 59t-29.5 45.5t-61.5 17.5t-76 -16t-65 -36l-33 57q34 22 82 42.5t102 20.5t89 -28t50 -75q29 47 70 75t90 28q89 0 137 -62.5t48 -166.5q0 -28 -3 -46h-315q3 -76 46 -122t105 -46q35 0 63 11.5
t55 28.5l30 -57q-31 -20 -69.5 -35t-88.5 -15q-61 0 -102 27.5t-69 63.5q-102 -91 -198 -91zM224 54q34 0 74 19.5t73 55.5q-8 19 -13 45.5t-6 54.5v25q-115 -15 -164 -45t-49 -77q0 -41 24.5 -59.5t60.5 -18.5zM429 278h246q0 75 -29.5 115t-85.5 40q-50 0 -87 -42
t-44 -113zM399 573l-42 41l141 167l58 -55z" />
    <glyph glyph-name="uni0218" unicode="&#x218;" horiz-adv-x="534" 
d="M272 -12q-69 0 -128 26.5t-102 70.5l50 58q35 -37 82.5 -59.5t98.5 -22.5q65 0 101 29.5t36 77.5q0 34 -14.5 54t-39 34t-55.5 28l-94 41q-31 13 -61.5 34t-51 54t-20.5 81q0 50 26.5 89.5t73.5 62t106 22.5t109 -22.5t85 -58.5l-45 -54q-30 29 -66.5 45.5t-82.5 16.5
q-55 0 -88.5 -26t-33.5 -70q0 -31 16.5 -51.5t41.5 -33.5t51 -24l93 -40q38 -16 68.5 -38.5t48.5 -55t18 -81.5q0 -52 -27 -94.5t-77 -67.5t-119 -25zM186 -226l-8 40q63 5 86 16.5t23 31.5t-18 29.5t-53 12.5l18 38q65 -7 91 -25t26 -52q0 -43 -42.5 -65t-122.5 -26z" />
    <glyph glyph-name="uni0219" unicode="&#x219;" horiz-adv-x="419" 
d="M209 -12q-52 0 -99 19.5t-82 47.5l41 55q32 -25 66 -41.5t77 -16.5q48 0 72 22.5t24 53.5q0 25 -16.5 42t-42 28.5t-52.5 21.5q-34 13 -67 29.5t-54 43t-21 67.5q0 59 44.5 98.5t123.5 39.5q45 0 84 -16t67 -39l-40 -52q-25 19 -52 31t-59 12q-46 0 -67.5 -21t-21.5 -49
q0 -23 15 -37.5t39 -25t51 -21.5q35 -13 69 -29.5t56.5 -44t22.5 -73.5q0 -39 -20.5 -72t-60 -53t-97.5 -20zM127 -226l-8 40q63 5 86 16.5t23 31.5t-18 29.5t-53 12.5l18 38q65 -7 91 -25t26 -52q0 -43 -42.5 -65t-122.5 -26z" />
    <glyph glyph-name="uni021A" unicode="&#x21a;" horiz-adv-x="536" 
d="M226 0v586h-198v70h480v-70h-198v-586h-84zM180 -226l-8 40q63 5 86 16.5t23 31.5t-18 29.5t-53 12.5l18 38q65 -7 91 -25t26 -52q0 -43 -42.5 -65t-122.5 -26z" />
    <glyph glyph-name="uni021B" unicode="&#x21b;" horiz-adv-x="338" 
d="M235 -12q-78 0 -108.5 45t-30.5 117v269h-72v62l76 5l10 136h69v-136h131v-67h-131v-270q0 -45 16.5 -69.5t58.5 -24.5q13 0 28 4.5t27 8.5l16 -62q-20 -7 -43.5 -12.5t-46.5 -5.5zM128 -226l-8 40q63 5 86 16.5t23 31.5t-18 29.5t-53 12.5l18 38q65 -7 91 -25t26 -52
q0 -43 -42.5 -65t-122.5 -26z" />
    <glyph glyph-name="uni0237" unicode="&#x237;" horiz-adv-x="247" 
d="M32 -217q-22 0 -40.5 4t-31.5 9l17 62q9 -3 21 -5.5t25 -2.5q36 0 48 25.5t12 69.5v541h82v-541q0 -74 -30 -118t-103 -44z" />
    <glyph glyph-name="uni0243" unicode="&#x243;" horiz-adv-x="603" 
d="M107 0v171h-77v55l77 4v426h195q67 0 117.5 -16t79 -51t28.5 -91q0 -48 -28 -85.5t-86 -52.5v-4q72 -11 112 -51t40 -109q0 -66 -31.5 -109.5t-87.5 -65t-129 -21.5h-210zM190 380h98q83 0 121 28.5t38 83.5q0 54 -39.5 78t-116.5 24h-101v-214zM190 63h115
q84 0 131.5 33.5t47.5 103.5q0 65 -46.5 95t-132.5 30h-115v-95h152v-59h-152v-108z" />
    <glyph glyph-name="uni0250" unicode="&#x250;" horiz-adv-x="512" 
d="M270 -12q-103 0 -149 57t-46 151v290h68l7 -68h2q35 36 79.5 58t93.5 22q57 0 94 -32.5t37 -94.5q0 -82 -72 -129t-227 -64q1 -29 11.5 -57.5t37.5 -46.5t75 -18q41 0 75.5 16.5t62.5 35.5l32 -57q-32 -22 -79 -42.5t-102 -20.5zM157 232q122 16 170 47.5t48 80.5
q0 38 -22.5 55t-54.5 17q-34 0 -68.5 -18t-72.5 -58v-124z" />
    <glyph glyph-name="uni0251" unicode="&#x251;" horiz-adv-x="560" 
d="M248 -12q-91 0 -146 66.5t-55 187.5q0 79 29.5 136.5t78 88.5t104.5 31q41 0 73 -15t65 -44h2l7 47h67v-394q0 -36 21 -36q3 0 6 0.5t10 1.5l11 -62q-9 -3 -19 -5.5t-25 -2.5q-32 0 -51.5 16t-25.5 56h-3q-28 -28 -66 -50t-83 -22zM266 57q64 0 124 67v254
q-31 28 -59.5 39.5t-58.5 11.5q-39 0 -70.5 -23.5t-50.5 -65t-19 -97.5q0 -87 35 -136.5t99 -49.5z" />
    <glyph glyph-name="uni0252" unicode="&#x252;" horiz-adv-x="560" 
d="M302 -12q-68 0 -139 59h-3l-6 -47h-67v394q0 20 -6 28t-15 8h-6.5t-9.5 -2l-11 62q8 3 18.5 5.5t24.5 2.5q33 0 52.5 -16t25.5 -55h2q33 29 74 50t84 21q94 0 143 -67.5t49 -180.5q0 -82 -29.5 -141t-77 -90t-103.5 -31zM288 57q60 0 99.5 51.5t39.5 141.5
q0 80 -29.5 129.5t-98.5 49.5q-31 0 -62.5 -17t-67.5 -49v-255q33 -28 64 -39.5t55 -11.5z" />
    <glyph glyph-name="uni0253" unicode="&#x253;" horiz-adv-x="555" 
d="M297 -12q-34 0 -70.5 16t-68.5 44h-3l-7 -48h-66v537q0 83 42 135t127 52q22 0 44 -4.5t38 -11.5l-19 -63q-27 12 -55 12q-48 0 -70.5 -32t-24.5 -89l-2 -113q33 29 72.5 48.5t79.5 19.5q95 0 144 -66.5t49 -177.5q0 -82 -29.5 -140t-77 -88.5t-103.5 -30.5zM283 57
q60 0 99.5 50.5t39.5 138.5q0 79 -29.5 127.5t-98.5 48.5q-60 0 -130 -67v-247q32 -28 63.5 -39.5t55.5 -11.5z" />
    <glyph glyph-name="uni0254" unicode="&#x254;" horiz-adv-x="456" 
d="M182 -12q-44 0 -84.5 16.5t-72.5 45.5l35 55q23 -20 52 -34.5t62 -14.5q44 0 78 23.5t53.5 65.5t19.5 97q0 57 -19 99t-51 65.5t-73 23.5q-35 0 -59.5 -11.5t-46.5 -31.5l-42 54q27 23 64.5 40t92.5 17q58 0 108 -29.5t80.5 -86.5t30.5 -140q0 -80 -30.5 -137t-82 -87
t-115.5 -30z" />
    <glyph glyph-name="uni0255" unicode="&#x255;" horiz-adv-x="459" 
d="M334 152q-67 0 -131 -72q38 -26 88 -26q32 0 60 16.5t28 43.5q0 17 -11.5 27.5t-33.5 10.5zM119 -69l-51 20q11 29 23.5 54.5t25.5 47.5q-33 33 -52 80.5t-19 108.5q0 82 32.5 139t86 87t115.5 30q48 0 82.5 -17t59.5 -40l-40 -51q-21 19 -45.5 31t-53.5 12
q-45 0 -80.5 -24t-55.5 -67t-20 -100q0 -37 10 -69t27 -55q40 45 85.5 69t91.5 24q50 0 76.5 -27t26.5 -68q0 -37 -20.5 -66t-56 -45.5t-80.5 -16.5q-72 0 -128 33q-12 -20 -22 -42.5t-18 -47.5z" />
    <glyph glyph-name="uni0256" unicode="&#x256;" horiz-adv-x="555" 
d="M514 -217q-62 0 -91.5 36.5t-29.5 100.5l1 136q-30 -28 -66.5 -48t-79.5 -20q-91 0 -146 66.5t-55 187.5q0 79 29.5 136.5t78 88.5t103.5 31q42 0 73 -15t63 -41l-4 83v199h83v-786q0 -41 11 -64.5t39 -23.5q10 0 19.5 2.5t16.5 5.5l16 -62q-10 -5 -26 -9t-35 -4zM266 57
q64 0 124 67v254q-31 28 -59.5 39.5t-58.5 11.5q-39 0 -70.5 -23.5t-50.5 -65t-19 -97.5q0 -87 35 -136.5t99 -49.5z" />
    <glyph glyph-name="uni0257" unicode="&#x257;" horiz-adv-x="555" 
d="M248 -12q-91 0 -146 66.5t-55 187.5q0 79 29.5 136.5t78 88.5t103.5 31q42 0 73 -15t63 -41l-1 133q-1 70 31 110.5t99 40.5q17 0 31 -2.5t25 -7.5l-16 -63q-7 2 -14.5 4t-16.5 2q-33 0 -46 -25t-13 -67v-567h-68l-7 57h-3q-28 -28 -66 -48.5t-81 -20.5zM266 57
q64 0 124 67v254q-31 28 -59.5 39.5t-58.5 11.5q-39 0 -70.5 -23.5t-50.5 -65t-19 -97.5q0 -87 35 -136.5t99 -49.5z" />
    <glyph glyph-name="uni0258" unicode="&#x258;" horiz-adv-x="496" 
d="M221 -12q-49 0 -90.5 15t-73.5 35l29 54q27 -17 58.5 -27.5t66.5 -10.5q71 0 112 46t45 123h-327q-1 9 -2.5 21.5t-1.5 25.5q0 104 55.5 166t148.5 62q59 0 106 -31t75 -88t28 -137q0 -79 -29.5 -136t-81.5 -87.5t-118 -30.5zM110 282h259q-7 72 -41 111.5t-89 39.5
q-57 0 -93 -38.5t-36 -112.5z" />
    <glyph glyph-name="uni0259" unicode="&#x259;" horiz-adv-x="496" 
d="M238 -12q-92 0 -146.5 62.5t-54.5 171.5q0 14 1.5 26.5t2.5 21.5h327q-4 73 -41.5 118t-103.5 45q-37 0 -67.5 -11.5t-58.5 -30.5l-29 57q34 23 75.5 36.5t92.5 13.5q61 0 109.5 -30t76.5 -87t28 -137q0 -79 -28.5 -136.5t-76.5 -88.5t-107 -31zM236 54q56 0 91 41
t42 116h-259q0 -79 34 -118t92 -39z" />
    <glyph glyph-name="uni025A" unicode="&#x25a;" horiz-adv-x="668" 
d="M242 -12q-66 0 -109.5 28.5t-67 76t-28.5 104.5l323 126q-16 57 -52 83.5t-85 26.5q-37 0 -67.5 -11.5t-58.5 -30.5l-29 57q34 23 75.5 36.5t88.5 13.5q73 0 125.5 -37.5t76.5 -108.5l139 54q-1 -20 -1.5 -34t-0.5 -28q0 -56 13.5 -76.5t38.5 -20.5q13 0 22.5 4.5
t16.5 9.5l22 -44q-13 -8 -29.5 -15.5t-41.5 -7.5q-37 0 -64 25.5t-27 88.5v18l-76 -30q2 -13 3 -27t1 -29q0 -69 -25.5 -126.5t-72 -91.5t-110.5 -34zM113 166q10 -53 42.5 -83t86.5 -30q40 0 69 24t44.5 65t15.5 90v18t-1 16z" />
    <glyph glyph-name="uni025B" unicode="&#x25b;" horiz-adv-x="440" 
d="M249 -12q-55 0 -100 18t-72 50.5t-27 77.5q0 53 33 82t75 40v4q-40 14 -61 43.5t-21 63.5q0 45 24.5 74t65 43t87.5 14q44 0 80 -12.5t67 -35.5l-33 -55q-27 17 -53.5 27.5t-58.5 10.5q-40 0 -68.5 -19t-28.5 -57q0 -33 27.5 -54t85.5 -21h55v-59h-70q-59 0 -91.5 -21
t-32.5 -61t35.5 -63.5t90.5 -23.5q33 0 63.5 10.5t62.5 33.5l35 -55q-42 -30 -81 -42.5t-89 -12.5z" />
    <glyph glyph-name="uni025C" unicode="&#x25c;" horiz-adv-x="456" 
d="M210 -12q-49 0 -89.5 12.5t-83.5 42.5l35 55q33 -23 63 -33.5t63 -10.5q56 0 91 23.5t35 63.5t-32 61t-92 21h-69v59h54q59 0 86 21t27 54q0 38 -26 57t-67 19q-32 0 -60.5 -10.5t-55.5 -27.5l-33 55q33 23 71.5 35.5t83.5 12.5q46 0 84.5 -14t61.5 -43t23 -74
q0 -34 -21 -63.5t-61 -43.5v-4q42 -11 75 -40t33 -82q0 -45 -26.5 -77.5t-70.5 -50.5t-99 -18z" />
    <glyph glyph-name="uni025E" unicode="&#x25e;" horiz-adv-x="546" 
d="M298 -12q-70 0 -127.5 28t-91 83.5t-33.5 136.5q0 86 33.5 144.5t90.5 88t125 29.5q49 0 88.5 -14t63.5 -43t24 -74q0 -34 -21 -63.5t-61 -43.5v-4q42 -11 75 -40t33 -82q0 -45 -26.5 -77.5t-71.5 -50.5t-101 -18zM297 54q53 0 85.5 23.5t32.5 63.5t-31.5 61t-88.5 21
h-42v59h27q56 0 82.5 21t26.5 54q0 38 -27.5 57t-68.5 19q-73 0 -117.5 -52t-44.5 -145q0 -87 45 -134.5t121 -47.5z" />
    <glyph glyph-name="uni025F" unicode="&#x25f;" horiz-adv-x="285" 
d="M51 -217q-22 0 -40.5 4t-31.5 9l17 62q9 -3 21 -5.5t25 -2.5q36 0 48 25.5t12 69.5v278h-93v54l92 5h1v204h82v-204h88v-59h-88v-278q0 -74 -30 -118t-103 -44z" />
    <glyph glyph-name="uni0260" unicode="&#x260;" horiz-adv-x="555" 
d="M257 -220q-94 0 -175 53l31 58q35 -23 72 -34t72 -11q67 0 99.5 36t33.5 96l2 92q-28 -27 -64.5 -46t-79.5 -19q-91 0 -146 65t-55 180q0 76 30 131.5t78.5 86t103.5 30.5q41 0 72 -15t62 -41l-1 80q0 65 32 105.5t99 40.5q16 0 30.5 -3t25.5 -8l-16 -63q-7 3 -16 5
t-21 2q-30 0 -41.5 -25t-11.5 -66v-531q0 -93 -56.5 -146t-159.5 -53zM266 73q34 0 63.5 16.5t60.5 50.5v238q-31 28 -59.5 39.5t-58.5 11.5q-39 0 -71 -23t-50.5 -63t-18.5 -92q0 -82 35 -130t99 -48z" />
    <glyph glyph-name="uni0261" unicode="&#x261;" horiz-adv-x="555" 
d="M257 -220q-94 0 -175 53l31 58q35 -23 72 -34t72 -11q67 0 99.5 36t33.5 96l2 92q-28 -27 -64.5 -46t-79.5 -19q-91 0 -146 65t-55 180q0 76 30 131.5t78.5 86t103.5 30.5q41 0 73 -14.5t63 -42.5h2l7 45h69v-507q0 -93 -56.5 -146t-159.5 -53zM266 73q34 0 63.5 16.5
t60.5 50.5v238q-31 28 -59.5 39.5t-58.5 11.5q-39 0 -71 -23t-50.5 -63t-18.5 -92q0 -82 35 -130t99 -48z" />
    <glyph glyph-name="uni0262" unicode="&#x262;" horiz-adv-x="497" 
d="M280 -12q-65 0 -118.5 29.5t-84.5 86.5t-31 140q0 79 32 136t86.5 87.5t120.5 30.5q56 0 93 -18.5t62 -41.5l-40 -51q-21 18 -46.5 32t-64.5 14q-45 0 -81 -22t-57.5 -64.5t-21.5 -102.5q0 -89 43.5 -139.5t114.5 -50.5q27 0 50 8.5t38 21.5v119h-108v59h181v-213
q-27 -25 -70.5 -43t-97.5 -18z" />
    <glyph glyph-name="uni0263" unicode="&#x263;" horiz-adv-x="467" 
d="M236 -224q-55 0 -85 32t-30 82q0 35 16 73t45 93l-170 430h85l92 -259q11 -34 22.5 -62t22.5 -62h4q11 34 22.5 62t21.5 62l92 259h81l-166 -430q29 -55 45 -93t16 -73q0 -50 -30 -82t-84 -32zM236 -167q22 0 32.5 15.5t10.5 37.5q0 54 -42 126h-4q-41 -73 -41 -126
q0 -22 11 -37.5t33 -15.5z" />
    <glyph glyph-name="uni0264" unicode="&#x264;" horiz-adv-x="511" 
d="M256 -12q-85 0 -129.5 45t-44.5 118q0 53 33.5 108t87.5 104q-28 31 -56.5 49t-57.5 18t-47 -14l-26 60q14 10 34.5 16t42.5 6q39 0 80 -23t83 -64q41 41 82 64t81 23q21 0 41.5 -6t34.5 -16l-26 -60q-18 14 -47 14q-30 0 -57.5 -18t-56.5 -49q53 -49 87 -104t34 -108
q0 -73 -44.5 -118t-128.5 -45zM256 54q47 0 70.5 29t23.5 71q0 44 -27.5 88.5t-66.5 81.5q-40 -37 -67 -81.5t-27 -88.5q0 -42 23 -71t71 -29z" />
    <glyph glyph-name="uni0265" unicode="&#x265;" horiz-adv-x="547" 
d="M382 -205v174l5 106q-35 -39 -74 -63t-89 -24q-77 0 -113 48.5t-36 141.5v308h83v-297q0 -68 21.5 -99t69.5 -31q38 0 68 19.5t65 62.5v345h83v-691h-83z" />
    <glyph glyph-name="uni0266" unicode="&#x266;" horiz-adv-x="544" 
d="M82 0v537q0 83 42 135t127 52q22 0 44 -4.5t38 -11.5l-19 -63q-27 12 -55 12q-48 0 -70.5 -32t-24.5 -89l-3 -126q35 33 73.5 57t88.5 24q77 0 112.5 -48.5t35.5 -141.5v-301h-82v290q0 68 -22 98.5t-70 30.5q-37 0 -66.5 -18.5t-66.5 -55.5v-345h-82z" />
    <glyph glyph-name="uni0267" unicode="&#x267;" horiz-adv-x="544" 
d="M338 -217q-22 0 -40.5 4t-30.5 9l16 62q9 -3 21 -5.5t25 -2.5q36 0 48 25.5t12 69.5v345q0 68 -22 98.5t-70 30.5q-37 0 -66.5 -18.5t-66.5 -55.5v-345h-82v537q0 83 42 135t127 52q22 0 44 -4.5t38 -11.5l-19 -63q-27 12 -55 12q-48 0 -70.5 -32t-24.5 -89l-3 -126
q35 33 73.5 57t88.5 24q77 0 112.5 -48.5t35.5 -141.5v-356q0 -74 -30 -118t-103 -44z" />
    <glyph glyph-name="uni0268" unicode="&#x268;" horiz-adv-x="285" 
d="M101 0v223h-92v54l92 5v204h82v-204h89v-59h-89v-223h-82zM143 586q-24 0 -39.5 14.5t-15.5 39.5q0 24 15.5 39t39.5 15t39.5 -15t15.5 -39q0 -25 -15.5 -39.5t-39.5 -14.5z" />
    <glyph glyph-name="uni0269" unicode="&#x269;" horiz-adv-x="255" 
d="M169 -12q-46 0 -66.5 28.5t-20.5 81.5v388h82v-394q0 -19 7 -27.5t16 -8.5q4 0 7.5 0.5l10.5 1.5l11 -62q-8 -4 -19 -6t-28 -2z" />
    <glyph glyph-name="uni026A" unicode="&#x26a;" horiz-adv-x="341" 
d="M46 0v67h84v352h-84v67h249v-67h-83v-352h83v-67h-249z" />
    <glyph glyph-name="uni026B" unicode="&#x26b;" horiz-adv-x="352" 
d="M220 -12q-46 0 -66.5 28.5t-20.5 81.5v614h82v-620q0 -19 7 -27.5t16 -8.5q4 0 7.5 0.5l10.5 1.5l11 -62q-8 -4 -19 -6t-28 -2zM270 313q-33 0 -57.5 12.5t-44.5 29.5t-39 29.5t-41 12.5t-33 -21t-13 -56l-55 9q3 54 24.5 91t70.5 37q33 0 57.5 -12.5t44.5 -29.5
t39 -29.5t41 -12.5t33 22t13 55l55 -9q-3 -53 -24.5 -90.5t-70.5 -37.5z" />
    <glyph glyph-name="uni026C" unicode="&#x26c;" horiz-adv-x="335" 
d="M117 373h21v6q0 27 -11.5 47t-37.5 20q-18 0 -26.5 -10t-8.5 -25q0 -16 15.5 -27t47.5 -11zM138 0v314h-12q-67 0 -98 28t-31 68q0 35 23 59t60 24q20 0 34 -6.5t24 -17.5v243h82v-339h109v-59h-109v-314h-82z" />
    <glyph glyph-name="uni026D" unicode="&#x26d;" horiz-adv-x="255" 
d="M205 -217q-67 0 -95 41t-28 114v774h82v-774q0 -41 11 -64.5t39 -23.5q11 0 20 2.5t16 5.5l17 -62q-10 -5 -26 -9t-36 -4z" />
    <glyph glyph-name="uni026E" unicode="&#x26e;" horiz-adv-x="569" 
d="M82 0v712h82v-226h366v-44l-176 -247q69 2 112.5 -24t64 -70.5t20.5 -98.5q0 -70 -29 -119t-75 -74.5t-99 -25.5q-67 0 -110.5 25t-71.5 53l40 52q23 -23 55 -42.5t80 -19.5q53 0 90 41t37 108q0 62 -32.5 97t-94.5 35q-21 0 -33.5 -4t-29.5 -12l-33 45l184 258h-265
v-419h-82z" />
    <glyph glyph-name="uni026F" unicode="&#x26f;" horiz-adv-x="829" 
d="M225 -12q-75 0 -111.5 48.5t-36.5 141.5v308h82v-297q0 -68 22.5 -99t68.5 -31q55 0 121 75v352h83v-297q0 -68 22 -99t68 -31q55 0 122 75v352h82v-486h-68l-7 70h-2q-32 -34 -70 -58t-82 -24q-55 0 -87 25t-47 68q-37 -41 -76.5 -67t-83.5 -26z" />
    <glyph glyph-name="uni0270" unicode="&#x270;" horiz-adv-x="829" 
d="M666 -205v173l4 103q-34 -38 -72 -60.5t-79 -22.5q-55 0 -87 25t-47 68q-37 -41 -76.5 -67t-83.5 -26q-75 0 -111.5 48.5t-36.5 141.5v308h82v-297q0 -68 22.5 -99t68.5 -31q55 0 121 75v352h83v-297q0 -68 22 -99t68 -31q55 0 122 75v352h82v-691h-82z" />
    <glyph glyph-name="uni0271" unicode="&#x271;" horiz-adv-x="829" 
d="M624 -217q-21 0 -38.5 4t-29.5 9l16 62q8 -3 19.5 -5.5t23.5 -2.5q35 0 45.5 25.5t10.5 69.5v352q0 68 -22 99t-68 31q-54 0 -122 -75v-352h-82v297q0 68 -22 99t-69 31q-54 0 -122 -75v-352h-82v486h68l7 -70h3q32 35 70 58.5t81 23.5q56 0 87.5 -24.5t46.5 -68.5
q38 41 77 67t83 26q75 0 111.5 -48.5t36.5 -141.5v-363q0 -74 -29 -118t-100 -44z" />
    <glyph glyph-name="uni0272" unicode="&#x272;" horiz-adv-x="547" 
d="M41 -217q-19 0 -35 4t-26 9l16 62q8 -3 17 -5.5t19 -2.5q29 0 39.5 23.5t10.5 64.5v548h70l5 -70h3q35 35 74 58.5t89 23.5q77 0 112.5 -48.5t35.5 -141.5v-308h-82v297q0 68 -22 99t-70 31q-37 0 -66.5 -19t-66.5 -56v-414q0 -73 -27.5 -114t-95.5 -41z" />
    <glyph glyph-name="uni0273" unicode="&#x273;" horiz-adv-x="547" 
d="M512 -217q-67 0 -95 41t-28 114v359q0 68 -22 99t-70 31q-37 0 -66.5 -19t-66.5 -56v-352h-82v486h68l7 -70h3q35 35 74 58.5t89 23.5q77 0 112.5 -48.5t35.5 -141.5v-370q0 -41 11 -64.5t39 -23.5q11 0 20 2.5t16 5.5l16 -62q-10 -5 -26 -9t-35 -4z" />
    <glyph glyph-name="uni0274" unicode="&#x274;" horiz-adv-x="543" 
d="M82 0v486h78l169 -275q14 -22 29.5 -51.5t28.5 -52.5h4q-3 47 -5.5 93t-2.5 84v202h78v-486h-77l-171 275q-13 22 -28.5 52t-28.5 52h-4q3 -47 5.5 -93t2.5 -84v-202h-78z" />
    <glyph glyph-name="uni0275" unicode="&#x275;" horiz-adv-x="542" 
d="M271 -12q-60 0 -111.5 28.5t-82.5 85.5t-31 140q0 85 31 141.5t82.5 85.5t111.5 29q61 0 112 -29t82 -85.5t31 -141.5q0 -83 -31 -140t-82 -85.5t-112 -28.5zM271 434q-58 0 -97 -40t-48 -112h291q-9 72 -48 112t-98 40zM271 53q62 0 102.5 44.5t44.5 125.5h-293
q5 -80 45 -125t101 -45z" />
    <glyph glyph-name="uni0276" unicode="&#x276;" horiz-adv-x="699" 
d="M287 -12q-66 0 -120.5 29t-87.5 86t-33 140q0 84 33 140.5t87.5 85.5t120.5 29q25 0 48.5 -2t53.5 -10h280v-63h-229v-141h192v-59h-192v-160h239v-63h-290q-29 -7 -53 -9.5t-49 -2.5zM292 55q15 0 32.5 4t33.5 8v351q-16 5 -33.5 8.5t-32.5 3.5q-67 0 -113.5 -46
t-46.5 -141q0 -96 46.5 -142t113.5 -46z" />
    <glyph glyph-name="uni0277" unicode="&#x277;" horiz-adv-x="705" 
d="M221 -12q-73 0 -121.5 54.5t-48.5 174.5q0 54 19.5 104t58 90t95 63.5t129.5 23.5q100 0 166.5 -40t100 -103.5t33.5 -136.5q0 -115 -45.5 -172.5t-121.5 -57.5q-41 0 -77 21t-54 67h-4q-19 -46 -53.5 -67t-76.5 -21zM227 54q35 0 60.5 27.5t25.5 96.5v104h77v-104
q0 -47 12.5 -74.5t32 -38.5t40.5 -11q44 0 71.5 39.5t27.5 125.5q0 60 -25.5 108.5t-75 77t-122.5 28.5t-122.5 -31t-74 -80.5t-24.5 -107.5q0 -80 28 -120t69 -40z" />
    <glyph glyph-name="uni0278" unicode="&#x278;" horiz-adv-x="680" 
d="M302 -205v196q-66 2 -124.5 32t-95 86t-36.5 135t36.5 134.5t95 85t124.5 31.5v217h76v-217q68 -2 126 -31.5t94 -85t36 -134.5t-36.5 -135t-95 -86t-124.5 -32v-196h-76zM131 244q0 -58 23 -100t62 -65t86 -25v378q-47 -2 -86 -25t-62 -64t-23 -99zM549 244
q0 86 -47.5 135.5t-123.5 52.5v-378q48 2 86.5 25t61.5 65t23 100z" />
    <glyph glyph-name="uni0279" unicode="&#x279;" horiz-adv-x="347" 
d="M49 -12q-29 0 -52 10l16 72q13 -4 23 -6t24 -2q31 0 64.5 25.5t58.5 86.5v312h82v-486h-68l-7 89h-2q-25 -46 -61.5 -73.5t-77.5 -27.5z" />
    <glyph glyph-name="uni027A" unicode="&#x27a;" horiz-adv-x="347" 
d="M49 -12q-29 0 -52 10l16 72q13 -4 23 -6t24 -2q31 0 64.5 25.5t58.5 86.5v538h82v-712h-68l-7 89h-2q-25 -46 -61.5 -73.5t-77.5 -27.5z" />
    <glyph glyph-name="uni027B" unicode="&#x27b;" horiz-adv-x="347" 
d="M306 -217q-63 0 -89.5 38.5t-26.5 106.5v161h-2q-25 -46 -61.5 -73.5t-77.5 -27.5q-29 0 -52 10l16 72q13 -4 23 -6t24 -2q31 0 64.5 25.5t58.5 86.5v312h82v-548q0 -41 11 -64.5t39 -23.5q11 0 20 2.5t16 5.5l17 -62q-10 -5 -26.5 -9t-35.5 -4z" />
    <glyph glyph-name="uni027D" unicode="&#x27d;" horiz-adv-x="347" 
d="M205 -217q-67 0 -95 41t-28 114v548h68l7 -88h3q25 46 61 73t77 27q29 0 52 -10l-16 -72q-12 4 -22 6t-25 2q-31 0 -64.5 -25t-58.5 -87v-374q0 -41 11 -64.5t39 -23.5q11 0 20 2.5t16 5.5l17 -62q-10 -5 -26 -9t-36 -4z" />
    <glyph glyph-name="uni027E" unicode="&#x27e;" horiz-adv-x="332" 
d="M81 0v314q0 86 44.5 135t123.5 49q53 0 86 -14l-15 -69q-16 7 -29 9t-33 2q-37 0 -66 -32t-29 -97v-297h-82z" />
    <glyph glyph-name="uni0280" unicode="&#x280;" horiz-adv-x="495" 
d="M82 0v486h172q53 0 94.5 -13.5t65.5 -45t24 -85.5q0 -58 -30.5 -92t-75.5 -48l131 -202h-91l-117 192h-91v-192h-82zM164 251h77q54 0 84.5 23t30.5 66t-30.5 62.5t-84.5 19.5h-77v-171z" />
    <glyph glyph-name="uni0281" unicode="&#x281;" horiz-adv-x="495" 
d="M254 0h-172v486h82v-190h91l117 190h91l-131 -200q45 -14 75.5 -48t30.5 -93q0 -53 -24 -85t-65.5 -46t-94.5 -14zM241 64q54 0 84.5 20.5t30.5 63.5q0 42 -30.5 65.5t-84.5 23.5h-77v-173h77z" />
    <glyph glyph-name="uni0282" unicode="&#x282;" horiz-adv-x="419" 
d="M154 -217q-68 0 -97 44t-29 118v153l4 2q51 -28 94 -38t84 -10q50 0 74 22.5t24 53.5q0 25 -16.5 42t-42 28.5t-52.5 21.5q-34 13 -67 29.5t-54 43t-21 67.5q0 59 44.5 98.5t123.5 39.5q45 0 84 -16t67 -39l-40 -52q-25 19 -52 31t-59 12q-46 0 -67.5 -21t-21.5 -49
q0 -23 15 -37.5t39 -25t51 -21.5q35 -13 69 -29.5t56.5 -44t22.5 -73.5q0 -39 -20.5 -72t-60 -53t-97.5 -20q-25 0 -52.5 4t-57.5 14v-59q0 -49 13 -74t47 -25q13 0 25 3t22 6l16 -61q-13 -5 -30 -9t-38 -4z" />
    <glyph glyph-name="uni0283" unicode="&#x283;" horiz-adv-x="247" 
d="M32 -217q-22 0 -40.5 4t-31.5 9l17 62q9 -3 21 -5.5t25 -2.5q36 0 48 25.5t12 69.5v619q0 74 32.5 118t110.5 44q20 0 35 -4t26 -9l-16 -63q-7 3 -16 6t-20 3q-42 0 -56 -26t-14 -70v-618q0 -74 -30 -118t-103 -44z" />
    <glyph glyph-name="uni0284" unicode="&#x284;" horiz-adv-x="285" 
d="M51 -217q-22 0 -40.5 4t-31.5 9l17 62q9 -3 21 -5.5t25 -2.5q36 0 48 25.5t12 69.5v278h-93v54l92 5h1v282q0 74 32.5 118t110.5 44q20 0 35 -4t26 -9l-16 -63q-7 3 -16 6t-20 3q-42 0 -56 -26t-14 -70v-281h88v-59h-88v-278q0 -74 -30 -118t-103 -44z" />
    <glyph glyph-name="uni0288" unicode="&#x288;" horiz-adv-x="338" 
d="M235 -217q-78 0 -108.5 44.5t-30.5 117.5v474h-72v62l76 5l10 136h69v-136h131v-67h-131v-475q0 -45 16.5 -69.5t58.5 -24.5q13 0 28 4t27 9l16 -62q-20 -7 -43.5 -12.5t-46.5 -5.5z" />
    <glyph glyph-name="uni0289" unicode="&#x289;" horiz-adv-x="589" 
d="M250 -12q-77 0 -113 48.5t-36 141.5v79h-92v54l92 4v171h83v-171h222v171h82v-171h88v-58h-88v-257h-68l-7 76h-3q-34 -40 -72 -64t-88 -24zM184 189q0 -68 21.5 -99t69.5 -31q38 0 67.5 19.5t63.5 62.5v116h-222v-68z" />
    <glyph glyph-name="uni028A" unicode="&#x28a;" horiz-adv-x="546" 
d="M273 -12q-70 0 -120 31.5t-76 82.5t-26 107q0 74 27.5 126t58.5 82v2h-97v67h185v-53q-40 -34 -65.5 -84t-25.5 -122q0 -46 16 -85t47 -62.5t76 -23.5q46 0 76.5 23.5t46 62.5t15.5 85q0 72 -25 122t-65 84v53h185v-67h-97v-2q31 -30 58.5 -82t27.5 -126q0 -56 -26 -107
t-75.5 -82.5t-120.5 -31.5z" />
    <glyph glyph-name="uni028B" unicode="&#x28b;" horiz-adv-x="530" 
d="M262 -12q-81 0 -134 51.5t-53 162.5v284h83v-277q0 -82 31 -117.5t76 -35.5q42 0 71 28.5t44 78t15 111.5q0 77 -19 117.5t-60 40.5q-13 0 -28 -6l-13 64q23 8 58 8q68 0 107.5 -51.5t39.5 -160.5q0 -85 -24.5 -152.5t-73 -106.5t-120.5 -39z" />
    <glyph glyph-name="uni028C" unicode="&#x28c;" horiz-adv-x="467" 
d="M12 0l172 486h96l175 -486h-85l-92 276q-10 36 -22 72.5t-23 71.5h-4q-10 -35 -22 -71.5t-23 -72.5l-91 -276h-81z" />
    <glyph glyph-name="uni028D" unicode="&#x28d;" horiz-adv-x="718" 
d="M24 0l130 486h101l70 -261q8 -34 16 -68.5t17 -71.5h4q8 37 15.5 72t17.5 69l68 260h96l135 -486h-84l-72 281q-7 35 -14 68t-15 67h-4q-15 -67 -33 -135l-75 -281h-80l-76 281q-9 35 -17 68t-17 67h-4q-7 -34 -14.5 -67t-15.5 -68l-71 -281h-78z" />
    <glyph glyph-name="uni028E" unicode="&#x28e;" horiz-adv-x="467" 
d="M12 0l194 555q17 48 40.5 86.5t58 60.5t83.5 22q17 0 31 -2.5t26 -7.5l-16 -65q-7 2 -17.5 4.5t-19.5 2.5q-41 0 -68 -29.5t-42 -74.5l-22 -65l195 -487h-84l-100 269q-11 32 -23 67.5t-24 69.5h-4q-10 -33 -20.5 -69t-20.5 -68l-86 -269h-81z" />
    <glyph glyph-name="uni028F" unicode="&#x28f;" horiz-adv-x="415" 
d="M167 0v164l-168 322h88l66 -138q13 -28 26.5 -55.5t27.5 -56.5h4q14 29 26.5 56.5t25.5 55.5l66 138h87l-167 -322v-164h-82z" />
    <glyph glyph-name="uni0290" unicode="&#x290;" horiz-adv-x="425" 
d="M432 -217q-64 0 -91 40.5t-27 106.5v70h-283v44l256 375h-228v67h332v-44l-256 -375h254v-129q0 -41 11 -64.5t40 -23.5q10 0 19.5 2.5t16.5 5.5l16 -62q-10 -5 -26 -9t-34 -4z" />
    <glyph glyph-name="uni0291" unicode="&#x291;" horiz-adv-x="457" 
d="M372 162q-22 0 -45 -24t-43 -75h22.5h22.5q40 0 61 18.5t21 40.5q0 18 -9 29t-30 11zM244 -81l-52 10q4 18 8 34.5t8 32.5q-46 1 -92.5 2t-84.5 2v44l256 375h-228v67h327v-44l-255 -375q50 -3 99 -3q27 71 63 109.5t85 38.5q42 0 66.5 -24.5t24.5 -65.5q0 -52 -39 -89
t-122 -37h-22h-24q-5 -17 -9 -36.5t-9 -40.5z" />
    <glyph glyph-name="uni0292" unicode="&#x292;" horiz-adv-x="425" 
d="M200 -217q-73 0 -119 24t-78 54l41 52q26 -24 61 -43t88 -19q36 0 65.5 18.5t47 52t17.5 78.5q0 62 -34.5 97t-99.5 35q-21 0 -33.5 -4t-29.5 -12l-33 45l192 258h-241v67h341v-44l-188 -253q65 7 111.5 -15.5t72 -67.5t25.5 -104q0 -70 -29 -119t-76 -74.5t-101 -25.5z
" />
    <glyph glyph-name="uni0294" unicode="&#x294;" horiz-adv-x="417" 
d="M146 0v328q86 49 127 94.5t41 107.5q0 58 -33 92t-93 34q-51 0 -86 -22t-60 -51l-44 54q31 33 78.5 60t117.5 27q57 0 103 -21.5t73 -64t27 -106.5q0 -56 -22 -98t-60 -76t-87 -65v-293h-82z" />
    <glyph glyph-name="uni0295" unicode="&#x295;" horiz-adv-x="417" 
d="M189 0v293q-49 31 -87 65t-60 76t-22 98q0 64 28 106.5t75.5 64t105.5 21.5q68 0 114 -27t76 -60l-44 -54q-24 29 -57.5 51t-82.5 22q-62 0 -97 -34t-35 -92q0 -62 41 -107.5t127 -94.5v-328h-82z" />
    <glyph glyph-name="uni0298" unicode="&#x298;" horiz-adv-x="525" 
d="M263 -12q-94 0 -149 89t-55 282q0 179 55 272t149 93q93 0 148 -93t55 -272q0 -193 -55 -282t-148 -89zM263 56q35 0 63.5 29.5t45 96t16.5 177.5q0 153 -36 225t-89 72t-89.5 -72t-36.5 -225q0 -111 16.5 -177.5t45.5 -96t64 -29.5zM263 312q-20 0 -34 14t-14 34
t14 33.5t34 13.5t33.5 -13.5t13.5 -33.5t-13.5 -34t-33.5 -14z" />
    <glyph glyph-name="uni0299" unicode="&#x299;" horiz-adv-x="508" 
d="M82 0v486h187q80 0 129.5 -28.5t49.5 -94.5q0 -40 -21.5 -66.5t-59.5 -37.5v-3q41 -10 71.5 -37t30.5 -80q0 -72 -54 -105.5t-138 -33.5h-195zM163 282h92q61 0 87 19.5t26 53.5t-25.5 53t-81.5 19h-98v-145zM163 59h105q60 0 89.5 22.5t29.5 62.5q0 37 -31 58t-93 21
h-100v-164z" />
    <glyph glyph-name="uni029C" unicode="&#x29c;" horiz-adv-x="562" 
d="M82 0v486h82v-197h234v197h82v-486h-82v216h-234v-216h-82z" />
    <glyph glyph-name="uni029D" unicode="&#x29d;" horiz-adv-x="342" 
d="M40 -107q0 -19 15.5 -32t40.5 -13q32 0 49.5 16.5t24.5 41.5q-40 29 -76 29q-28 0 -41 -12t-13 -30zM300 -263q-35 64 -72 112q-20 -31 -52.5 -48.5t-78.5 -17.5q-57 0 -90 32.5t-33 77.5t31 73t86 28q23 0 44.5 -5.5t41.5 -16.5v514h83v-509q0 -19 -2 -36t-6 -33
q25 -28 49 -65.5t47 -82.5zM218 586q-24 0 -39.5 14.5t-15.5 39.5q0 24 15.5 39t39.5 15t39.5 -15t15.5 -39q0 -25 -15.5 -39.5t-39.5 -14.5z" />
    <glyph glyph-name="uni029F" unicode="&#x29f;" horiz-adv-x="411" 
d="M82 0v486h82v-419h221v-67h-303z" />
    <glyph glyph-name="uni02A1" unicode="&#x2a1;" horiz-adv-x="427" 
d="M156 0v136h-119v54l87 5h32v133q86 49 127 94.5t41 107.5q0 58 -33 92t-93 34q-51 0 -86 -22t-60 -51l-44 54q31 33 78.5 60t117.5 27q57 0 103 -21.5t73 -64t27 -106.5q0 -56 -22 -98t-60 -76t-87 -65v-98h115v-59h-115v-136h-82z" />
    <glyph glyph-name="uni02A2" unicode="&#x2a2;" horiz-adv-x="427" 
d="M189 0v136h-119v54l87 5h32v98q-49 31 -87 65t-60 76t-22 98q0 64 28 106.5t75.5 64t105.5 21.5q68 0 114 -27t76 -60l-44 -54q-24 29 -57.5 51t-82.5 22q-62 0 -97 -34t-35 -92q0 -62 41 -107.5t127 -94.5v-133h115v-59h-115v-136h-82z" />
    <glyph glyph-name="uni02A4" unicode="&#x2a4;" horiz-adv-x="845" 
d="M238 -12q-87 0 -139 66.5t-52 187.5q0 79 28 136.5t74 88.5t99 31q39 0 67 -15.5t59 -40.5l-4 83v187h83v-226h353v-44l-165 -247q65 1 106 -25t60.5 -70t19.5 -98q0 -70 -28 -119t-73 -74.5t-96 -25.5q-64 0 -106 25t-70 53l41 52q22 -22 52.5 -42t75.5 -20q50 0 85 41
t35 108q0 62 -29 97t-84 35q-22 0 -34.5 -4t-29.5 -12l-32 45l171 258h-252v-419h-68l-7 57h-3q-28 -27 -62 -48t-75 -21zM256 57q31 0 58 17.5t56 49.5v254q-29 27 -54.5 39t-53.5 12q-36 0 -65.5 -23.5t-47 -65t-17.5 -97.5q0 -87 32.5 -136.5t91.5 -49.5z" />
    <glyph glyph-name="uni02A7" unicode="&#x2a7;" horiz-adv-x="552" 
d="M337 -217q-22 0 -40 4t-31 9l16 62q9 -3 21 -5.5t25 -2.5q36 0 48 25.5t12 69.5v111h-3q-28 -33 -64.5 -50.5t-81.5 -17.5q-73 0 -107.5 48.5t-35.5 141.5v241h-72v62l76 5l10 136h69v-136h209v78q0 74 32.5 118t110.5 44q20 0 35.5 -4t25.5 -9l-16 -63q-7 3 -16 6t-20 3
q-42 0 -56 -26t-14 -70v-618q0 -74 -30 -118t-103 -44zM264 59q36 0 64.5 15.5t59.5 54.5v290h-209v-230q0 -68 20 -99t65 -31z" />
    <glyph glyph-name="h.sups" unicode="&#x2b0;" horiz-adv-x="366" 
d="M52 395v468h62v-125l-3 -67q20 21 48 37t60 16q56 0 79 -35t23 -91v-203h-62v194q0 38 -11.5 60t-49.5 22q-37 0 -84 -47v-229h-62z" />
    <glyph glyph-name="j.sups" unicode="&#x2b2;" horiz-adv-x="169" 
d="M23 250q-16 0 -27 2t-22 6l13 49q6 -3 12 -4.5t16 -1.5q23 0 31 15.5t8 44.5v355h62v-351q0 -54 -21.5 -84.5t-71.5 -30.5zM86 778q-18 0 -30 11.5t-12 27.5q0 17 12 28.5t30 11.5t30 -11.5t12 -28.5q0 -16 -12 -27.5t-30 -11.5z" />
    <glyph glyph-name="r.sups" unicode="&#x2b3;" horiz-adv-x="240" 
d="M52 395v321h50l7 -56h3q38 64 91 64q26 0 38 -6l-12 -56q-6 2 -15 3.5t-17 1.5q-21 0 -43 -15.5t-39 -53.5v-203h-63z" />
    <glyph glyph-name="w.sups" unicode="&#x2b7;" horiz-adv-x="487" 
d="M105 395l-89 321h64l44 -179l19 -91h4l22 91l47 179h56l50 -179l22 -91h4l21 91l43 179h59l-87 -321h-75l-43 163l-21 92h-2l-21 -92l-43 -163h-74z" />
    <glyph glyph-name="y.sups" unicode="&#x2b8;" horiz-adv-x="319" 
d="M65 261q-23 0 -41 6l13 50q14 -6 24 -6q26 0 44 18.5t27 46.5l7 21l-131 319h63l63 -169q8 -22 16 -45t15 -48h4q7 24 14.5 47t14.5 46l52 169h61l-119 -340q-18 -50 -47 -82.5t-80 -32.5z" />
    <glyph glyph-name="uni02B9" unicode="&#x2b9;" horiz-adv-x="249" 
d="M82 450l22 240l81 -1l-15 -91l-34 -149z" />
    <glyph glyph-name="quoteleft" unicode="&#x2018;" horiz-adv-x="249" 
d="M120 428q-30 0 -46.5 23.5t-16.5 66.5q0 60 27 104t79 74l24 -39q-38 -25 -57 -53.5t-19 -70.5q3 1 9 1q20 0 36.5 -13t16.5 -38t-15 -40t-38 -15z" />
    <glyph glyph-name="quoteleft" unicode="&#x2bb;" horiz-adv-x="249" 
d="M120 428q-30 0 -46.5 23.5t-16.5 66.5q0 60 27 104t79 74l24 -39q-38 -25 -57 -53.5t-19 -70.5q3 1 9 1q20 0 36.5 -13t16.5 -38t-15 -40t-38 -15z" />
    <glyph glyph-name="quoteright" unicode="&#x2019;" horiz-adv-x="249" 
d="M86 431l-23 38q38 25 56.5 53.5t18.5 71.5q-3 -1 -8 -1q-21 0 -37 13t-16 37q0 26 15 41t38 15q29 0 46 -23.5t17 -67.5q0 -60 -27.5 -103.5t-79.5 -73.5z" />
    <glyph glyph-name="quoteright" unicode="&#x2bc;" horiz-adv-x="249" 
d="M86 431l-23 38q38 25 56.5 53.5t18.5 71.5q-3 -1 -8 -1q-21 0 -37 13t-16 37q0 26 15 41t38 15q29 0 46 -23.5t17 -67.5q0 -60 -27.5 -103.5t-79.5 -73.5z" />
    <glyph glyph-name="uni02BE" unicode="&#x2be;" horiz-adv-x="173" 
d="M30 548v36q40 -1 56.5 16.5t16.5 45.5q0 27 -16.5 44.5t-56.5 16.5v36q63 2 95.5 -25t32.5 -72q0 -46 -32.5 -73t-95.5 -25z" />
    <glyph glyph-name="uni02BF" unicode="&#x2bf;" horiz-adv-x="173" 
d="M144 548q-63 -2 -95.5 25t-32.5 73q0 45 32.5 72t95.5 25v-36q-40 1 -56.5 -16.5t-16.5 -44.5q0 -28 16.5 -45.5t56.5 -16.5v-36z" />
    <glyph glyph-name="uni02C1" unicode="&#x2c1;" horiz-adv-x="302" 
d="M134 395v187q-49 33 -80.5 69t-31.5 92q0 64 42 96.5t102 32.5q45 0 76 -18t50 -40l-32 -40q-15 19 -36.5 33t-52.5 14q-41 0 -64 -21.5t-23 -57.5q0 -40 26.5 -70t84.5 -64v-213h-61z" />
    <glyph glyph-name="circumflex" unicode="&#x2c6;" horiz-adv-x="542" 
d="M116 600l114 140h82l114 -140l-35 -32l-118 113h-4l-118 -113z" />
    <glyph glyph-name="caron" unicode="&#x2c7;" horiz-adv-x="542" 
d="M230 574l-114 140l35 32l118 -113h4l118 113l35 -32l-114 -140h-82z" />
    <glyph glyph-name="uni02C8" unicode="&#x2c8;" horiz-adv-x="114" 
d="M28 533l-6 199h70l-6 -199h-58z" />
    <glyph glyph-name="uni02C9" unicode="&#x2c9;" horiz-adv-x="277" 
d="M6 601v57h266v-57h-266z" />
    <glyph glyph-name="uni02CA" unicode="&#x2ca;" horiz-adv-x="225" 
d="M97 573l-42 41l141 167l58 -55z" />
    <glyph glyph-name="uni02CB" unicode="&#x2cb;" horiz-adv-x="225" 
d="M125 573l-157 153l58 55l141 -167z" />
    <glyph glyph-name="uni02CC" unicode="&#x2cc;" horiz-adv-x="114" 
d="M22 -270l6 199h58l6 -199h-70z" />
    <glyph glyph-name="uni02D0" unicode="&#x2d0;" horiz-adv-x="199" 
d="M25 0l69 142h11l69 -142h-149zM94 346l-69 140h149l-69 -140h-11z" />
    <glyph glyph-name="uni02D1" unicode="&#x2d1;" horiz-adv-x="199" 
d="M94 346l-69 140h149l-69 -140h-11z" />
    <glyph glyph-name="breve" unicode="&#x2d8;" horiz-adv-x="542" 
d="M271 571q-53 0 -86.5 22.5t-50 57t-19.5 71.5l51 8q4 -25 16.5 -49t34.5 -39.5t54 -15.5q33 0 54.5 15.5t34 39.5t16.5 49l51 -8q-2 -37 -18.5 -71.5t-50 -57t-87.5 -22.5z" />
    <glyph glyph-name="dotaccent" unicode="&#x2d9;" horiz-adv-x="542" 
d="M271 586q-24 0 -39.5 14.5t-15.5 39.5q0 24 15.5 39t39.5 15t39.5 -15t15.5 -39q0 -25 -15.5 -39.5t-39.5 -14.5z" />
    <glyph glyph-name="ring" unicode="&#x2da;" horiz-adv-x="542" 
d="M271 554q-50 0 -80 28t-30 71q0 42 30 70t80 28t80 -28t30 -70q0 -43 -30 -71t-80 -28zM271 591q24 0 40.5 17t16.5 45t-16.5 44.5t-40.5 16.5t-40.5 -16.5t-16.5 -44.5t16.5 -45t40.5 -17z" />
    <glyph glyph-name="ogonek" unicode="&#x2db;" horiz-adv-x="542" 
d="M282 -206q-38 0 -64.5 21.5t-26.5 63.5q0 38 21 71t48 53h56q-64 -47 -64 -108q0 -23 14 -34.5t32 -11.5q21 0 39 13l22 -41q-14 -11 -36.5 -19t-40.5 -8z" />
    <glyph glyph-name="tilde" unicode="&#x2dc;" horiz-adv-x="542" 
d="M343 577q-27 0 -46 12.5t-34.5 29.5t-30.5 29.5t-32 12.5q-22 0 -33.5 -22t-13.5 -57l-55 3q2 59 25.5 97.5t75.5 38.5q27 0 46 -12.5t35 -29.5t30.5 -29.5t32.5 -12.5q22 0 33 22.5t13 56.5l55 -4q-2 -58 -25.5 -96.5t-75.5 -38.5z" />
    <glyph glyph-name="hungarumlaut" unicode="&#x2dd;" horiz-adv-x="542" 
d="M220 568l-45 21l86 172l59 -28zM371 568l-46 21l87 172l58 -28z" />
    <glyph glyph-name="uni02DE" unicode="&#x2de;" horiz-adv-x="172" 
d="M-100 275v61l177 70q-1 -20 -1.5 -34t-0.5 -28q0 -56 13.5 -76.5t38.5 -20.5q12 0 22 4.5t16 9.5l23 -44q-13 -8 -30 -15.5t-41 -7.5q-37 0 -64 25.5t-27 88.5v18z" />
    <glyph glyph-name="uni02E0" unicode="&#x2e0;" horiz-adv-x="318" 
d="M160 248q-38 0 -59.5 22t-21.5 57q0 24 11 48t30 59l-112 282h63l59 -166q7 -22 14.5 -40.5t14.5 -40.5h3q7 22 15 40.5t15 40.5l58 166h60l-109 -283q20 -35 30.5 -59t10.5 -47q0 -35 -21.5 -57t-60.5 -22zM160 289q15 0 22 9.5t7 24.5q0 34 -27 80h-3
q-12 -23 -19.5 -43.5t-7.5 -36.5q0 -15 7 -24.5t21 -9.5z" />
    <glyph glyph-name="l.sups" unicode="&#x2e1;" horiz-adv-x="174" 
d="M117 387q-36 0 -50.5 21.5t-14.5 59.5v395h62v-400q0 -14 4.5 -19.5t11.5 -5.5q3 0 6.5 0.5t7.5 1.5l9 -47q-13 -6 -36 -6z" />
    <glyph glyph-name="s.sups" unicode="&#x2e2;" horiz-adv-x="283" 
d="M144 387q-36 0 -68.5 12.5t-56.5 31.5l30 41q22 -16 45.5 -26.5t50.5 -10.5q28 0 43 13t15 32q0 23 -22.5 35t-50.5 22q-22 9 -44 20.5t-36.5 29.5t-14.5 45q0 38 29.5 65t81.5 27q35 0 61 -11t46 -25l-31 -40q-18 14 -34.5 21t-39.5 7q-27 0 -40.5 -12.5t-13.5 -27.5
q0 -22 22 -33t50 -22q23 -8 45.5 -19t37 -28.5t14.5 -47.5q0 -43 -32 -71t-87 -28z" />
    <glyph glyph-name="x.sups" unicode="&#x2e3;" horiz-adv-x="307" 
d="M8 395l108 168l-99 153h68l41 -66l31 -51h4l27 51l37 66h66l-98 -160l105 -161h-68l-43 69l-35 55h-4l-33 -55l-41 -69h-66z" />
    <glyph glyph-name="uni0300" unicode="&#x300;" 
d="M14 573l-157 153l58 55l141 -167z" />
    <glyph glyph-name="uni0301" unicode="&#x301;" 
d="M-14 573l-42 41l141 167l58 -55z" />
    <glyph glyph-name="uni0302" unicode="&#x302;" 
d="M-155 600l114 140h82l114 -140l-35 -32l-118 113h-4l-118 -113z" />
    <glyph glyph-name="uni0303" unicode="&#x303;" 
d="M72 577q-27 0 -46 12.5t-34.5 29.5t-30.5 29.5t-32 12.5q-22 0 -33.5 -22t-13.5 -57l-55 3q2 59 25.5 97.5t75.5 38.5q27 0 46 -12.5t35 -29.5t30.5 -29.5t32.5 -12.5q22 0 33 22.5t13 56.5l55 -4q-2 -58 -25.5 -96.5t-75.5 -38.5z" />
    <glyph glyph-name="uni0304" unicode="&#x304;" 
d="M-133 601v57h266v-57h-266z" />
    <glyph glyph-name="uni0305" unicode="&#x305;" 
d="M-133 601v57h266v-57h-266z" />
    <glyph glyph-name="uni0306" unicode="&#x306;" 
d="M0 571q-53 0 -86.5 22.5t-50 57t-19.5 71.5l51 8q4 -25 16.5 -49t34.5 -39.5t54 -15.5q33 0 54.5 15.5t34 39.5t16.5 49l51 -8q-2 -37 -18.5 -71.5t-50 -57t-87.5 -22.5z" />
    <glyph glyph-name="uni0307" unicode="&#x307;" 
d="M0 586q-24 0 -39.5 14.5t-15.5 39.5q0 24 15.5 39t39.5 15t39.5 -15t15.5 -39q0 -25 -15.5 -39.5t-39.5 -14.5z" />
    <glyph glyph-name="uni0308" unicode="&#x308;" 
d="M-96 587q-22 0 -36 14.5t-14 35.5t14 35.5t36 14.5q21 0 35 -14.5t14 -35.5t-14 -35.5t-35 -14.5zM96 587q-21 0 -35 14.5t-14 35.5t14 35.5t35 14.5q22 0 36 -14.5t14 -35.5t-14 -35.5t-36 -14.5z" />
    <glyph glyph-name="uni0309" unicode="&#x309;" 
d="M-32 572l-9 40q24 6 40 17t16 30q0 43 -83 47l5 54q68 -1 105.5 -25.5t37.5 -68.5q0 -43 -34 -64.5t-78 -29.5z" />
    <glyph glyph-name="uni030A" unicode="&#x30a;" 
d="M0 554q-50 0 -80 28t-30 71q0 42 30 70t80 28t80 -28t30 -70q0 -43 -30 -71t-80 -28zM0 591q24 0 40.5 17t16.5 45t-16.5 44.5t-40.5 16.5t-40.5 -16.5t-16.5 -44.5t16.5 -45t40.5 -17z" />
    <glyph glyph-name="uni030B" unicode="&#x30b;" 
d="M-51 568l-45 21l86 172l59 -28zM100 568l-46 21l87 172l58 -28z" />
    <glyph glyph-name="uni030C" unicode="&#x30c;" 
d="M-41 574l-114 140l35 32l118 -113h4l118 113l35 -32l-114 -140h-82z" />
    <glyph glyph-name="uni030F" unicode="&#x30f;" 
d="M-100 568l-99 165l58 28l87 -172zM51 568l-100 165l59 28l86 -172z" />
    <glyph glyph-name="uni0311" unicode="&#x311;" 
d="M-105 568l-51 8q3 37 19.5 71.5t50 57t86.5 22.5q54 0 87.5 -22.5t50 -57t18.5 -71.5l-51 -8q-4 26 -16.5 49.5t-34 39t-54.5 15.5q-32 0 -54 -15.5t-34.5 -39t-16.5 -49.5z" />
    <glyph glyph-name="uni0312" unicode="&#x312;" 
d="M-2 564q-51 0 -51 69q0 35 19 66.5t62 50.5l18 -32q-28 -13 -41.5 -30.5t-15.5 -40.5q3 1 8 1q15 0 28 -10t13 -30q0 -22 -11.5 -33t-28.5 -11z" />
    <glyph glyph-name="uni0313" unicode="&#x313;" 
d="M-30 562l-17 32q54 28 57 72q-3 -1 -9 -1q-15 0 -28 10t-13 29q0 23 12.5 34t28.5 11q50 0 50 -69q0 -35 -19 -66.5t-62 -51.5z" />
    <glyph glyph-name="uni0318" unicode="&#x318;" 
d="M35 -249v72h-111v47h111v72h50v-191h-50z" />
    <glyph glyph-name="uni0319" unicode="&#x319;" 
d="M-85 -249v191h50v-72h111v-47h-111v-72h-50z" />
    <glyph glyph-name="uni031A" unicode="&#x31a;" 
d="M35 573v94h-111v47h161v-141h-50z" />
    <glyph glyph-name="uni031B" unicode="&#x31b;" 
d="M-1 434l-8 41q84 14 84 82q0 16 -4 29t-10 27l64 30q10 -18 16.5 -37t6.5 -43q0 -59 -43 -90t-106 -39z" />
    <glyph glyph-name="uni031C" unicode="&#x31c;" 
d="M55 -255q-63 -2 -95.5 25t-32.5 73q0 45 32.5 72t95.5 25v-36q-40 1 -56.5 -16.5t-16.5 -44.5q0 -28 16.5 -45.5t56.5 -16.5v-36z" />
    <glyph glyph-name="uni031D" unicode="&#x31d;" 
d="M-96 -211v47h71v106h50v-106h71v-47h-192z" />
    <glyph glyph-name="uni031E" unicode="&#x31e;" 
d="M-25 -249v106h-71v47h192v-47h-71v-106h-50z" />
    <glyph glyph-name="uni031F" unicode="&#x31f;" 
d="M-25 -249v72h-71v47h71v72h50v-72h71v-47h-71v-72h-50z" />
    <glyph glyph-name="uni0320" unicode="&#x320;" 
d="M-96 -177v47h192v-47h-192z" />
    <glyph glyph-name="uni0323" unicode="&#x323;" 
d="M0 -206q-24 0 -39.5 14.5t-15.5 39.5q0 24 15.5 39t39.5 15t39.5 -15t15.5 -39q0 -25 -15.5 -39.5t-39.5 -14.5z" />
    <glyph glyph-name="uni0324" unicode="&#x324;" 
d="M-96 -202q-22 0 -36 14.5t-14 35.5t14 35.5t36 14.5q21 0 35 -14.5t14 -35.5t-14 -35.5t-35 -14.5zM96 -202q-21 0 -35 14.5t-14 35.5t14 35.5t35 14.5q22 0 36 -14.5t14 -35.5t-14 -35.5t-36 -14.5z" />
    <glyph glyph-name="uni0325" unicode="&#x325;" 
d="M0 -256q-50 0 -80 28t-30 71q0 42 30 70t80 28t80 -28t30 -70q0 -43 -30 -71t-80 -28zM0 -219q24 0 40.5 17t16.5 45t-16.5 44.5t-40.5 16.5t-40.5 -16.5t-16.5 -44.5t16.5 -45t40.5 -17z" />
    <glyph glyph-name="uni0326" unicode="&#x326;" 
d="M-87 -226l-8 40q63 5 86 16.5t23 31.5t-18 29.5t-53 12.5l18 38q65 -7 91 -25t26 -52q0 -43 -42.5 -65t-122.5 -26z" />
    <glyph glyph-name="uni0327" unicode="&#x327;" 
d="M-87 -226l-8 40q63 5 86 16.5t23 33.5q0 20 -17 31t-60 17l44 91h53l-29 -67q35 -8 54 -24t19 -47q0 -43 -42.5 -65t-122.5 -26z" />
    <glyph glyph-name="uni0328" unicode="&#x328;" 
d="M11 -206q-38 0 -64.5 21.5t-26.5 63.5q0 38 21 71t48 53h56q-64 -47 -64 -108q0 -23 14 -34.5t32 -11.5q21 0 39 13l22 -41q-14 -11 -36.5 -19t-40.5 -8z" />
    <glyph glyph-name="uni0329" unicode="&#x329;" 
d="M-35 -270l6 199h58l6 -199h-70z" />
    <glyph glyph-name="uni032A" unicode="&#x32a;" 
d="M-121 -226v144h242v-144h-46v97h-150v-97h-46z" />
    <glyph glyph-name="uni032C" unicode="&#x32c;" 
d="M-41 -224l-114 140l35 32l118 -113h4l118 113l35 -32l-114 -140h-82z" />
    <glyph glyph-name="uni032E" unicode="&#x32e;" 
d="M0 -231q-53 0 -86.5 22.5t-50 57t-19.5 71.5l51 8q4 -25 16.5 -49t34.5 -39.5t54 -15.5q33 0 54.5 15.5t34 39.5t16.5 49l51 -8q-2 -37 -18.5 -71.5t-50 -57t-87.5 -22.5z" />
    <glyph glyph-name="uni032F" unicode="&#x32f;" 
d="M-105 -237l-51 8q3 37 19.5 71.5t50 57t86.5 22.5q54 0 87.5 -22.5t50 -57t18.5 -71.5l-51 -8q-4 26 -16.5 49.5t-34 39t-54.5 15.5q-32 0 -54 -15.5t-34.5 -39t-16.5 -49.5z" />
    <glyph glyph-name="uni0330" unicode="&#x330;" 
d="M72 -223q-27 0 -46 12.5t-34.5 29.5t-30.5 29.5t-32 12.5q-22 0 -33.5 -22t-13.5 -57l-55 3q2 59 25.5 97.5t75.5 38.5q27 0 46 -12.5t35 -29.5t30.5 -29.5t32.5 -12.5q22 0 33 22.5t13 56.5l55 -4q-2 -58 -25.5 -96.5t-75.5 -38.5z" />
    <glyph glyph-name="uni0331" unicode="&#x331;" 
d="M-133 -170v57h266v-57h-266z" />
    <glyph glyph-name="uni0334" unicode="&#x334;" 
d="M94 184q-33 0 -57.5 12.5t-44.5 29.5t-39 29.5t-41 12.5t-33 -21t-13 -56l-55 9q3 54 24.5 91t70.5 37q33 0 57.5 -12.5t44.5 -29.5t39 -29.5t41 -12.5t33 22t13 55l55 -9q-3 -53 -24.5 -90.5t-70.5 -37.5z" />
    <glyph glyph-name="uni0339" unicode="&#x339;" 
d="M-55 -255v36q40 -1 56.5 16.5t16.5 45.5q0 27 -16.5 44.5t-56.5 16.5v36q63 2 95.5 -25t32.5 -72q0 -46 -32.5 -73t-95.5 -25z" />
    <glyph glyph-name="uni033A" unicode="&#x33a;" 
d="M-121 -225v143h46v-96h150v96h46v-143h-242z" />
    <glyph glyph-name="uni033B" unicode="&#x33b;" 
d="M-121 -240v163h242v-163h-242zM-75 -200h150v84h-150v-84z" />
    <glyph glyph-name="uni033C" unicode="&#x33c;" 
d="M-168 -228q0 78 24 113t70 35q26 0 46 -13t27 -45h2q8 32 28 45t45 13q46 0 70 -35t24 -113l-48 -6q0 60 -13.5 80t-36.5 20t-34.5 -21t-11.5 -59v-19h-48v19q0 38 -11.5 59t-35.5 21q-22 0 -35.5 -20t-13.5 -80z" />
    <glyph glyph-name="uni033D" unicode="&#x33d;" 
d="M-51 555l-33 33l51 51l-51 51l33 34l51 -51l51 51l33 -34l-51 -51l51 -51l-33 -33l-51 51z" />
    <glyph glyph-name="uni0342" unicode="&#x342;" 
d="M72 577q-27 0 -46 12.5t-34.5 29.5t-30.5 29.5t-32 12.5q-22 0 -33.5 -22t-13.5 -57l-55 3q2 59 25.5 97.5t75.5 38.5q27 0 46 -12.5t35 -29.5t30.5 -29.5t32.5 -12.5q22 0 33 22.5t13 56.5l55 -4q-2 -58 -25.5 -96.5t-75.5 -38.5z" />
    <glyph glyph-name="uni0343" unicode="&#x343;" 
d="M-30 562l-17 32q54 28 57 72q-3 -1 -9 -1q-15 0 -28 10t-13 29q0 23 12.5 34t28.5 11q50 0 50 -69q0 -35 -19 -66.5t-62 -51.5z" />
    <glyph glyph-name="uni0344" unicode="&#x344;" 
d="M-113 595q-18 0 -30 11.5t-12 30.5t12 30.5t30 11.5q17 0 29 -11.5t12 -30.5t-12 -30.5t-29 -11.5zM3 563l-43 10l45 201l66 -14zM113 595q-17 0 -29 11.5t-12 30.5t12 30.5t29 11.5q18 0 30 -11.5t12 -30.5t-12 -30.5t-30 -11.5z" />
    <glyph glyph-name="uni0345" unicode="&#x345;" 
d="M44 -201q-77 0 -77 93v46h64q-1 -13 -1.5 -27.5t-0.5 -25.5q0 -16 9 -23.5t21 -7.5q4 0 8 0.5t14 2.5l9 -49q-10 -4 -19.5 -6.5t-26.5 -2.5z" />
    <glyph glyph-name="uni034F" unicode="&#x34f;" 
 />
    <glyph glyph-name="uni0361" unicode="&#x361;" 
d="M-430 550l-24 42q101 62 214 94.5t240 32.5t240.5 -32.5t213.5 -94.5l-24 -42q-95 58 -208 84.5t-222 26.5t-222 -26.5t-208 -84.5z" />
    <glyph glyph-name="uni0374" unicode="&#x374;" horiz-adv-x="249" 
d="M82 449l22 241h81l-15 -92l-34 -149h-54z" />
    <glyph glyph-name="uni0375" unicode="&#x375;" horiz-adv-x="249" 
d="M64 0l15 92l34 150h54l-22 -242h-81z" />
    <glyph glyph-name="uni037A" unicode="&#x37a;" horiz-adv-x="542" 
d="M321 -201q-77 0 -77 93v46h64q-1 -13 -1.5 -27.5t-0.5 -25.5q0 -16 9 -23.5t21 -7.5q4 0 8 0.5t14 2.5l9 -49q-10 -4 -19.5 -6.5t-26.5 -2.5z" />
    <glyph glyph-name="uni037E" unicode="&#x37e;" horiz-adv-x="249" 
d="M125 349q-25 0 -42.5 17.5t-17.5 44.5q0 29 17.5 46.5t42.5 17.5q24 0 41.5 -17.5t17.5 -46.5q0 -27 -17.5 -44.5t-41.5 -17.5zM67 -170l-20 48q43 19 67 50.5t23 71.5q-2 -1 -5 -1h-5q-24 0 -41.5 14.5t-17.5 42.5q0 27 18 42.5t43 15.5q32 0 50.5 -26t18.5 -71
q0 -64 -35 -112.5t-96 -74.5z" />
    <glyph glyph-name="tonos" unicode="&#x384;" horiz-adv-x="542" 
d="M295 558l-57 11l43 201l85 -15z" />
    <glyph glyph-name="dieresistonos" unicode="&#x385;" horiz-adv-x="542" 
d="M164 595q-18 0 -30 11.5t-12 30.5t12 30.5t30 11.5q17 0 29 -11.5t12 -30.5t-12 -30.5t-29 -11.5zM280 563l-43 10l45 201l66 -14zM390 595q-17 0 -29 11.5t-12 30.5t12 30.5t29 11.5q18 0 30 -11.5t12 -30.5t-12 -30.5t-30 -11.5z" />
    <glyph glyph-name="Alphatonos" unicode="&#x386;" horiz-adv-x="566" 
d="M225 367l-31 -100h197l-31 100q-18 55 -34 109.5t-32 111.5h-4q-15 -57 -31 -111.5t-34 -109.5zM25 0l222 656h94l222 -656h-89l-62 200h-239l-63 -200h-85zM61 464l-55 11l29 195l76 -11z" />
    <glyph glyph-name="anoteleia" unicode="&#x387;" horiz-adv-x="249" 
d="M125 349q-25 0 -42.5 17.5t-17.5 44.5q0 29 17.5 46.5t42.5 17.5q24 0 41.5 -17.5t17.5 -46.5q0 -27 -17.5 -44.5t-41.5 -17.5z" />
    <glyph glyph-name="Epsilontonos" unicode="&#x388;" horiz-adv-x="591" 
d="M154 0v656h378v-70h-295v-206h249v-71h-249v-238h305v-71h-388zM36 464l-55 11l29 195l76 -11z" />
    <glyph glyph-name="Etatonos" unicode="&#x389;" horiz-adv-x="716" 
d="M154 0v656h83v-275h305v275h84v-656h-84v309h-305v-309h-83zM36 464l-55 11l29 195l76 -11z" />
    <glyph glyph-name="Iotatonos" unicode="&#x38a;" horiz-adv-x="327" 
d="M154 0v656h83v-656h-83zM36 464l-55 11l29 195l76 -11z" />
    <glyph glyph-name="Omicrontonos" unicode="&#x38c;" horiz-adv-x="711" 
d="M379 -12q-82 0 -145.5 42t-99 119t-35.5 182t35.5 180.5t99 116t145.5 40.5q83 0 146 -40.5t99 -116t36 -180.5t-36 -182t-99 -119t-146 -42zM379 61q59 0 102.5 33.5t67.5 94t24 142.5q0 122 -53 193t-141 71t-141 -71t-53 -193q0 -82 24 -142.5t68 -94t102 -33.5z
M36 464l-55 11l29 195l76 -11z" />
    <glyph glyph-name="Upsilontonos" unicode="&#x38e;" horiz-adv-x="600" 
d="M320 0v254l-197 402h89l85 -185q16 -36 31.5 -71t31.5 -72h4q17 37 34 72t32 71l84 185h87l-197 -402v-254h-84zM36 464l-55 11l29 195l76 -11z" />
    <glyph glyph-name="Omegatonos" unicode="&#x38f;" horiz-adv-x="723" 
d="M92 0v68h131v4q-28 28 -55 68t-44.5 92.5t-17.5 118.5q0 92 34.5 163.5t97.5 112.5t148 41t148 -41t98 -112.5t35 -163.5q0 -66 -17.5 -118.5t-44.5 -92.5t-56 -68v-4h131v-68h-233v61q56 44 95 113t39 172q0 71 -23.5 127.5t-67 89t-104.5 32.5t-104.5 -32.5t-66.5 -89
t-23 -127.5q0 -103 38.5 -172t94.5 -113v-61h-233zM32 464l-55 11l29 195l76 -11z" />
    <glyph glyph-name="iotadieresistonos" unicode="&#x390;" horiz-adv-x="262" 
d="M175 -12q-51 0 -72 29.5t-21 83.5v385h83q-1 -98 -3.5 -200.5t-2.5 -190.5q0 -39 34 -39q12 0 30 6l11 -62q-11 -5 -25 -8.5t-34 -3.5zM11 595q-18 0 -30 11.5t-12 30.5t12 30.5t30 11.5q17 0 29 -11.5t12 -30.5t-12 -30.5t-29 -11.5zM127 563l-43 10l45 201l66 -14z
M237 595q-17 0 -29 11.5t-12 30.5t12 30.5t29 11.5q18 0 30 -11.5t12 -30.5t-12 -30.5t-30 -11.5z" />
    <glyph glyph-name="Alpha" unicode="&#x391;" horiz-adv-x="544" 
d="M203 367l-31 -100h197l-31 100q-18 55 -34 109.5t-32 111.5h-4q-15 -57 -31 -111.5t-34 -109.5zM3 0l222 656h94l222 -656h-89l-62 200h-239l-63 -200h-85z" />
    <glyph glyph-name="Beta" unicode="&#x392;" horiz-adv-x="588" 
d="M90 0v656h195q67 0 117.5 -16t79 -51t28.5 -93q0 -49 -24.5 -88.5t-71.5 -54.5v-4q59 -11 96.5 -50t37.5 -107q0 -64 -31.5 -107t-87.5 -64t-130 -21h-209zM173 377h97q84 0 121 29t37 79q0 57 -38.5 81t-115.5 24h-101v-213zM173 66h114q85 0 132 31.5t47 97.5
q0 61 -46.5 89.5t-132.5 28.5h-114v-247z" />
    <glyph glyph-name="Gamma" unicode="&#x393;" horiz-adv-x="498" 
d="M90 0v656h378v-70h-295v-586h-83z" />
    <glyph glyph-name="Delta" unicode="&#x2206;" horiz-adv-x="588" 
d="M30 0v50l216 606h96l216 -606v-50h-528zM120 71h346l-102 300l-69 210h-4l-69 -210z" />
    <glyph glyph-name="Delta" unicode="&#x394;" horiz-adv-x="588" 
d="M30 0v50l216 606h96l216 -606v-50h-528zM120 71h346l-102 300l-69 210h-4l-69 -210z" />
    <glyph glyph-name="Epsilon" unicode="&#x395;" horiz-adv-x="527" 
d="M90 0v656h378v-70h-295v-206h249v-71h-249v-238h305v-71h-388z" />
    <glyph glyph-name="Zeta" unicode="&#x396;" horiz-adv-x="539" 
d="M45 0v50l345 536h-314v70h418v-49l-346 -536h349v-71h-452z" />
    <glyph glyph-name="Eta" unicode="&#x397;" horiz-adv-x="652" 
d="M90 0v656h83v-275h305v275h84v-656h-84v309h-305v-309h-83z" />
    <glyph glyph-name="Theta" unicode="&#x398;" horiz-adv-x="664" 
d="M220 309v72h224v-72h-224zM332 -12q-82 0 -145.5 42t-99 119t-35.5 182t35.5 180.5t99 116t145.5 40.5q83 0 146 -40.5t99 -116t36 -180.5t-36 -182t-99 -119t-146 -42zM332 61q59 0 102.5 33.5t67.5 94t24 142.5q0 122 -53 193t-141 71t-141 -71t-53 -193
q0 -82 24 -142.5t68 -94t102 -33.5z" />
    <glyph glyph-name="Iota" unicode="&#x399;" horiz-adv-x="263" 
d="M90 0v656h83v-656h-83z" />
    <glyph glyph-name="Kappa" unicode="&#x39a;" horiz-adv-x="579" 
d="M90 0v656h83v-329h3l273 329h94l-205 -250l237 -406h-93l-196 341l-113 -133v-208h-83z" />
    <glyph glyph-name="Lambda" unicode="&#x39b;" horiz-adv-x="515" 
d="M0 0l209 656h96l210 -656h-88l-106 355q-17 58 -31 108.5t-33 108.5h-4q-18 -58 -32 -108.5t-31 -108.5l-105 -355h-85z" />
    <glyph glyph-name="Mu" unicode="&#x39c;" horiz-adv-x="727" 
d="M90 0v656h100l126 -350q12 -34 23.5 -68.5t23.5 -68.5h4q12 34 22.5 68.5t22.5 68.5l124 350h101v-656h-78v361q0 44 4 97.5t7 96.5h-4l-52 -149l-124 -340h-55l-124 340l-52 149h-4q3 -43 6.5 -96.5t3.5 -97.5v-361h-75z" />
    <glyph glyph-name="Nu" unicode="&#x39d;" horiz-adv-x="647" 
d="M90 0v656h86l237 -412l71 -136h4q-3 50 -6.5 103.5t-3.5 105.5v339h79v-656h-86l-238 413l-71 135h-4q4 -49 7.5 -101t3.5 -104v-343h-79z" />
    <glyph glyph-name="Xi" unicode="&#x39e;" horiz-adv-x="533" 
d="M49 0v71h435v-71h-435zM124 309v71h285v-71h-285zM59 586v70h415v-70h-415z" />
    <glyph glyph-name="Omicron" unicode="&#x39f;" horiz-adv-x="664" 
d="M332 -12q-82 0 -145.5 42t-99 119t-35.5 182t35.5 180.5t99 116t145.5 40.5q83 0 146 -40.5t99 -116t36 -180.5t-36 -182t-99 -119t-146 -42zM332 61q59 0 102.5 33.5t67.5 94t24 142.5q0 122 -53 193t-141 71t-141 -71t-53 -193q0 -82 24 -142.5t68 -94t102 -33.5z" />
    <glyph glyph-name="Pi" unicode="&#x3a0;" horiz-adv-x="645" 
d="M90 0v656h465v-656h-83v586h-299v-586h-83z" />
    <glyph glyph-name="Rho" unicode="&#x3a1;" horiz-adv-x="566" 
d="M90 0v656h187q74 0 129 -18t86 -60.5t31 -114.5q0 -103 -67 -153t-175 -50h-108v-260h-83zM173 328h98q86 0 127.5 32.5t41.5 102.5q0 71 -43.5 98.5t-129.5 27.5h-94v-261z" />
    <glyph glyph-name="Sigma" unicode="&#x3a3;" horiz-adv-x="538" 
d="M44 0v50l226 283l-222 274v49h423v-70h-318l201 -251l-204 -264h351v-71h-457z" />
    <glyph glyph-name="Tau" unicode="&#x3a4;" horiz-adv-x="536" 
d="M226 0v586h-198v70h480v-70h-198v-586h-84z" />
    <glyph glyph-name="Upsilon" unicode="&#x3a5;" horiz-adv-x="476" 
d="M196 0v254l-197 402h89l85 -185q16 -36 31.5 -71t31.5 -72h4q17 37 34 72t32 71l84 185h87l-197 -402v-254h-84z" />
    <glyph glyph-name="Phi" unicode="&#x3a6;" horiz-adv-x="719" 
d="M322 -22v93q-82 4 -144 36t-96 89t-34 135t34 133.5t96 86.5t144 35v92h75v-92q83 -4 144.5 -35t95.5 -86.5t34 -133.5t-34 -135t-95.5 -89t-144.5 -36v-93h-75zM129 331q0 -84 52.5 -137t140.5 -58v385q-88 -5 -140.5 -56t-52.5 -134zM590 331q0 83 -52 134t-141 56
v-385q89 5 141 58t52 137z" />
    <glyph glyph-name="Chi" unicode="&#x3a7;" horiz-adv-x="513" 
d="M15 0l191 339l-178 317h92l89 -168q13 -22 24.5 -44t26.5 -51h4q14 29 24.5 51t22.5 44l87 168h88l-179 -321l191 -335h-92l-96 177q-13 24 -26.5 49.5t-29.5 55.5h-4q-14 -30 -27 -55.5t-25 -49.5l-95 -177h-88z" />
    <glyph glyph-name="Psi" unicode="&#x3a8;" horiz-adv-x="699" 
d="M310 0v245q-116 5 -181.5 64.5t-65.5 185.5v161h82v-157q0 -94 41.5 -138.5t123.5 -48.5v344h79v-344q82 5 123 49t41 138v157h83v-161q0 -126 -65.5 -185.5t-181.5 -64.5v-245h-79z" />
    <glyph glyph-name="Omega" unicode="&#x2126;" horiz-adv-x="678" 
d="M45 0v68h131v4q-28 28 -55 68t-44.5 92.5t-17.5 118.5q0 92 34.5 163.5t97.5 112.5t148 41t148 -41t98 -112.5t35 -163.5q0 -66 -17.5 -118.5t-44.5 -92.5t-56 -68v-4h131v-68h-233v61q56 44 95 113t39 172q0 71 -23.5 127.5t-67 89t-104.5 32.5t-104.5 -32.5t-66.5 -89
t-23 -127.5q0 -103 38.5 -172t94.5 -113v-61h-233z" />
    <glyph glyph-name="Omega" unicode="&#x3a9;" horiz-adv-x="678" 
d="M45 0v68h131v4q-28 28 -55 68t-44.5 92.5t-17.5 118.5q0 92 34.5 163.5t97.5 112.5t148 41t148 -41t98 -112.5t35 -163.5q0 -66 -17.5 -118.5t-44.5 -92.5t-56 -68v-4h131v-68h-233v61q56 44 95 113t39 172q0 71 -23.5 127.5t-67 89t-104.5 32.5t-104.5 -32.5t-66.5 -89
t-23 -127.5q0 -103 38.5 -172t94.5 -113v-61h-233z" />
    <glyph glyph-name="Iotadieresis" unicode="&#x3aa;" horiz-adv-x="263" 
d="M90 0v656h83v-656h-83zM29 715q-21 0 -35 14t-14 35q0 22 14 35.5t35 13.5q22 0 35.5 -13.5t13.5 -35.5q0 -21 -13.5 -35t-35.5 -14zM235 715q-22 0 -35.5 14t-13.5 35q0 22 13.5 35.5t35.5 13.5q21 0 35 -13.5t14 -35.5q0 -21 -14 -35t-35 -14z" />
    <glyph glyph-name="Upsilondieresis" unicode="&#x3ab;" horiz-adv-x="476" 
d="M196 0v254l-197 402h89l85 -185q16 -36 31.5 -71t31.5 -72h4q17 37 34 72t32 71l84 185h87l-197 -402v-254h-84zM135 715q-21 0 -35 14t-14 35q0 22 14 35.5t35 13.5q22 0 35.5 -13.5t13.5 -35.5q0 -21 -13.5 -35t-35.5 -14zM341 715q-22 0 -35.5 14t-13.5 35
q0 22 13.5 35.5t35.5 13.5q21 0 35 -13.5t14 -35.5q0 -21 -14 -35t-35 -14z" />
    <glyph glyph-name="alphatonos" unicode="&#x3ac;" horiz-adv-x="560" 
d="M233 -12q-83 0 -135 63.5t-52 182.5q0 84 30 143t78.5 90t104.5 31q45 0 87 -29t63 -98h2l21 115h81q-13 -64 -27 -135t-24 -135t-10 -109q0 -25 14.5 -38t33.5 -13q8 0 17.5 2.5t16.5 5.5l12 -63q-10 -4 -25.5 -8.5t-37.5 -4.5q-43 0 -69.5 24t-26.5 75h-3
q-55 -99 -151 -99zM250 57q32 0 61 20.5t48.5 55t22.5 75.5l8 91q-13 53 -33 81t-43 38.5t-46 10.5q-35 0 -66.5 -22t-51 -65t-19.5 -107q0 -85 31.5 -131.5t87.5 -46.5zM308 558l-57 11l43 201l85 -15z" />
    <glyph glyph-name="epsilontonos" unicode="&#x3ad;" horiz-adv-x="448" 
d="M251 -12q-90 0 -147.5 39t-57.5 107q0 53 29.5 81.5t71.5 39.5v4q-38 14 -57.5 44t-19.5 64q0 45 25.5 74t68 43t92.5 14q44 0 83.5 -14t73.5 -39l-33 -55q-28 21 -58 32t-64 11q-45 0 -75.5 -19t-30.5 -57q0 -33 26.5 -54t84.5 -21q14 0 28 1t33 2v-64q-22 2 -40 2h-36
q-120 0 -120 -82q0 -40 35 -63.5t97 -23.5q35 0 67 11t66 38l35 -55q-44 -34 -85 -47t-92 -13zM271 558l-57 11l43 201l85 -15z" />
    <glyph glyph-name="etatonos" unicode="&#x3ae;" horiz-adv-x="541" 
d="M382 -179q2 80 3.5 163t2 163t0.5 150q0 68 -18 99t-61 31q-40 0 -72 -23.5t-73 -85.5v-318h-82v353q0 29 -1 62t-6 71h75l7 -101h3q38 56 78.5 84.5t94.5 28.5q71 0 101.5 -48.5t30.5 -141.5v-487h-83zM315 558l-57 11l43 201l85 -15z" />
    <glyph glyph-name="iotatonos" unicode="&#x3af;" horiz-adv-x="262" 
d="M175 -12q-51 0 -72 29.5t-21 83.5v385h83q-1 -98 -3.5 -200.5t-2.5 -190.5q0 -39 34 -39q12 0 30 6l11 -62q-11 -5 -25 -8.5t-34 -3.5zM148 558l-57 11l43 201l85 -15z" />
    <glyph glyph-name="upsilondieresistonos" unicode="&#x3b0;" horiz-adv-x="510" 
d="M249 -12q-87 0 -136 48t-49 144q0 44 2 87t2 86q0 29 -1.5 62t-6.5 71h80q5 -25 6.5 -53t1.5 -60q0 -41 -3 -96.5t-3 -100.5q0 -65 32.5 -92.5t75.5 -27.5q53 0 87.5 45t34.5 139q0 56 -8.5 114t-31.5 125l80 19q21 -63 32 -126.5t11 -128.5q0 -124 -57 -189.5
t-149 -65.5zM131 595q-18 0 -30 11.5t-12 30.5t12 30.5t30 11.5q17 0 29 -11.5t12 -30.5t-12 -30.5t-29 -11.5zM247 563l-43 10l45 201l66 -14zM357 595q-17 0 -29 11.5t-12 30.5t12 30.5t29 11.5q18 0 30 -11.5t12 -30.5t-12 -30.5t-30 -11.5z" />
    <glyph glyph-name="alpha" unicode="&#x3b1;" horiz-adv-x="560" 
d="M233 -12q-83 0 -135 63.5t-52 182.5q0 84 30 143t78.5 90t104.5 31q45 0 87 -29t63 -98h2l21 115h81q-13 -64 -27 -135t-24 -135t-10 -109q0 -25 14.5 -38t33.5 -13q8 0 17.5 2.5t16.5 5.5l12 -63q-10 -4 -25.5 -8.5t-37.5 -4.5q-43 0 -69.5 24t-26.5 75h-3
q-55 -99 -151 -99zM250 57q32 0 61 20.5t48.5 55t22.5 75.5l8 91q-13 53 -33 81t-43 38.5t-46 10.5q-35 0 -66.5 -22t-51 -65t-19.5 -107q0 -85 31.5 -131.5t87.5 -46.5z" />
    <glyph glyph-name="beta" unicode="&#x3b2;" horiz-adv-x="565" 
d="M79 -179v670q0 67 21.5 119.5t66 83t112.5 30.5q48 0 89.5 -19t67.5 -57t26 -97q0 -54 -25 -95.5t-71 -70.5v-4q71 -10 113 -60.5t42 -127.5q0 -65 -27 -111t-70.5 -70t-92.5 -24q-46 0 -91 16.5t-83 57.5q2 -61 3 -120t2 -121h-83zM312 57q53 0 90 37t37 104
q0 58 -34 97t-102 39q-26 0 -50 -6l-13 63q52 11 83 35t45 55.5t14 63.5q0 56 -30 84t-71 28q-56 0 -88 -45.5t-33 -131.5q-3 -175 -3 -347q35 -45 76 -60.5t79 -15.5z" />
    <glyph glyph-name="gamma" unicode="&#x3b3;" horiz-adv-x="484" 
d="M196 -179q3 33 4 57t1 64q0 60 -16.5 132.5t-44.5 147t-62.5 141t-71.5 114.5l83 21q30 -42 61.5 -107t58 -141.5t40.5 -152.5h4q47 92 83.5 190t44.5 199h83q-13 -82 -35 -155t-60 -150.5t-98 -175.5q6 -43 8 -92.5t2 -91.5h-85z" />
    <glyph glyph-name="delta" unicode="&#x3b4;" horiz-adv-x="531" 
d="M269 -12q-55 0 -105 26.5t-81 76t-31 118.5q0 59 25 104t67.5 76t94.5 47q-35 25 -65.5 52t-49.5 58t-19 69q0 44 38.5 76.5t120.5 32.5q89 0 209 -39l-20 -66q-62 23 -108.5 32t-81.5 9q-42 0 -61 -15t-19 -35q0 -26 20 -49.5t53.5 -47.5t72.5 -53q42 -30 77 -63.5
t56.5 -76t21.5 -101.5q0 -103 -56.5 -167t-158.5 -64zM132 211q0 -47 19.5 -82t51 -54t67.5 -19q66 0 99.5 44.5t33.5 117.5q0 61 -31.5 102t-75.5 75q-76 -17 -120 -65t-44 -119z" />
    <glyph glyph-name="epsilon" unicode="&#x3b5;" horiz-adv-x="448" 
d="M251 -12q-90 0 -147.5 39t-57.5 107q0 53 29.5 81.5t71.5 39.5v4q-38 14 -57.5 44t-19.5 64q0 45 25.5 74t68 43t92.5 14q44 0 83.5 -14t73.5 -39l-33 -55q-28 21 -58 32t-64 11q-45 0 -75.5 -19t-30.5 -57q0 -33 26.5 -54t84.5 -21q14 0 28 1t33 2v-64q-22 2 -40 2h-36
q-120 0 -120 -82q0 -40 35 -63.5t97 -23.5q35 0 67 11t66 38l35 -55q-44 -34 -85 -47t-92 -13z" />
    <glyph glyph-name="zeta" unicode="&#x3b6;" horiz-adv-x="424" 
d="M360 -184l-66 27q26 32 37 50t11 38q0 15 -9 25t-32.5 18.5t-69.5 17.5q-49 10 -90.5 33.5t-67 70.5t-25.5 126q0 56 24.5 116.5t64 119t86.5 108t93 84.5q-27 0 -71 -0.5t-89 -1.5t-77 -3v67h330v-67h-5q-46 -33 -94 -82.5t-88 -108t-64.5 -118t-24.5 -110.5
q0 -57 18 -91t50.5 -51.5t77.5 -25.5q71 -13 104 -35.5t33 -72.5q0 -22 -13 -57.5t-43 -76.5z" />
    <glyph glyph-name="eta" unicode="&#x3b7;" horiz-adv-x="541" 
d="M382 -179q2 80 3.5 163t2 163t0.5 150q0 68 -18 99t-61 31q-40 0 -72 -23.5t-73 -85.5v-318h-82v353q0 29 -1 62t-6 71h75l7 -101h3q38 56 78.5 84.5t94.5 28.5q71 0 101.5 -48.5t30.5 -141.5v-487h-83z" />
    <glyph glyph-name="theta" unicode="&#x3b8;" horiz-adv-x="522" 
d="M261 -12q-94 0 -148 89t-54 282q0 179 54 272t148 93t148 -93t54 -272q0 -193 -54 -282t-148 -89zM261 656q-49 0 -83 -62t-38 -204h242q-4 142 -37.5 204t-83.5 62zM261 56q34 0 60.5 26t42.5 86.5t18 162.5h-242q2 -102 18 -162.5t43 -86.5t60 -26z" />
    <glyph glyph-name="iota" unicode="&#x3b9;" horiz-adv-x="262" 
d="M175 -12q-51 0 -72 29.5t-21 83.5v385h83q-1 -98 -3.5 -200.5t-2.5 -190.5q0 -39 34 -39q12 0 30 6l11 -62q-11 -5 -25 -8.5t-34 -3.5z" />
    <glyph glyph-name="kappa" unicode="&#x3ba;" horiz-adv-x="494" 
d="M82 0v353q0 29 -1.5 65t-7.5 68h81q5 -19 7 -50t2 -63v-152h4q39 67 86 125t99 98.5t104 53.5l8 -78q-40 -13 -82 -43.5t-87 -79.5q25 -48 58 -101.5t70.5 -104.5t73.5 -91l-91 -8q-26 29 -54.5 70t-56 86.5t-51.5 89.5q-11 -13 -22.5 -28t-22.5 -31q-22 -29 -30.5 -67.5
t-9.5 -86.5v-25h-77z" />
    <glyph glyph-name="lambda" unicode="&#x3bb;" horiz-adv-x="494" 
d="M103 -8l-87 8l211 497l-6 21q-20 67 -47 101.5t-68 34.5q-20 0 -34.5 -5t-28.5 -11l-20 68q17 8 38 13t54 5q72 0 114 -53t74 -157l184 -514h-87l-134 403h-4z" />
    <glyph glyph-name="nu" unicode="&#x3bd;" horiz-adv-x="474" 
d="M193 0q-27 134 -76 259t-111 218l83 21q34 -52 64.5 -123.5t54.5 -147.5t38 -142h4q44 93 78 198t43 203h83q-19 -127 -62.5 -242t-117.5 -244h-81z" />
    <glyph glyph-name="xi" unicode="&#x3be;" horiz-adv-x="431" 
d="M367 -184l-66 27q26 32 37 50t11 38q0 23 -22 35.5t-89 25.5q-51 10 -94 31t-69 59.5t-26 102.5q0 48 20.5 87.5t54.5 67t74 39.5v4q-44 18 -72.5 55t-28.5 89q0 41 19 73.5t53 49.5q-26 0 -46.5 -0.5t-42 -1.5t-52.5 -3v67h388v-67h-114q-48 0 -85 -31t-37 -89
q0 -35 18.5 -62.5t47.5 -43.5t58 -16q20 0 33 1t32 5v-70q-19 5 -34.5 5.5t-35.5 0.5q-41 0 -79 -17.5t-62 -51t-24 -80.5q0 -48 20 -75t55.5 -41t80.5 -22q72 -13 103 -35.5t31 -72.5q0 -22 -13.5 -57.5t-43.5 -76.5z" />
    <glyph glyph-name="omicron" unicode="&#x3bf;" horiz-adv-x="535" 
d="M267 -12q-60 0 -110.5 29.5t-80.5 86.5t-30 138q0 82 30 139t80.5 87t110.5 30q61 0 111.5 -30t80.5 -87t30 -139q0 -81 -30 -138t-80.5 -86.5t-111.5 -29.5zM267 56q65 0 101 51t36 135q0 85 -36 136.5t-101 51.5q-64 0 -100 -51.5t-36 -136.5q0 -84 36 -135t100 -51z
" />
    <glyph glyph-name="pi" unicode="&#x3c0;" horiz-adv-x="586" 
d="M485 -12q-58 0 -82 31.5t-24 90.5q0 19 0.5 54t1.5 79t2 89.5t1 85.5h-172q0 -102 -9 -211.5t-20 -211.5l-83 5q17 103 26 211.5t9 206.5h-113v63l70 5h469v-68h-97q-2 -41 -3.5 -88.5t-2.5 -92.5t-1.5 -80t-0.5 -53q0 -48 46 -48q12 0 39 6l11 -63q-13 -4 -29.5 -7.5
t-37.5 -3.5z" />
    <glyph glyph-name="rho" unicode="&#x3c1;" horiz-adv-x="549" 
d="M78 -179v427q0 85 29 140t77.5 82.5t107.5 27.5q102 0 156 -66t54 -182q0 -82 -29 -141t-74.5 -90t-96.5 -31q-39 0 -76 15t-71 54q2 -65 3.5 -118t2.5 -118h-83zM287 57q54 0 92 51.5t38 141.5q0 80 -30 129.5t-98 49.5q-53 0 -92.5 -45t-39.5 -137v-124
q34 -41 66.5 -53.5t63.5 -12.5z" />
    <glyph glyph-name="uni03C2" unicode="&#x3c2;" horiz-adv-x="432" 
d="M316 -180l-66 26q26 33 39.5 55t13.5 44q0 24 -14 40t-57 29q-34 12 -67 28.5t-60 43.5t-43 67.5t-16 100.5q0 78 30 132.5t79.5 83t107.5 28.5q49 0 82 -17t58 -40l-42 -54q-21 19 -42.5 31t-50.5 12q-61 0 -99 -48t-38 -128q0 -57 19 -90.5t50.5 -51.5t68.5 -31
q60 -19 84 -43.5t24 -74.5q0 -25 -15 -63.5t-46 -79.5z" />
    <glyph glyph-name="sigma" unicode="&#x3c3;" horiz-adv-x="546" 
d="M264 -12q-59 0 -108.5 29t-79.5 85t-30 136q0 85 31.5 140t82.5 81.5t108 26.5h266v-70q-41 3 -77 5t-77 3v-4q45 -25 70.5 -75t25.5 -118q0 -75 -28 -128.5t-76 -82t-108 -28.5zM265 56q57 0 94 48t37 130q0 49 -15 90.5t-44 67.5t-71 26q-58 0 -96.5 -44.5
t-38.5 -135.5q0 -84 38 -133t96 -49z" />
    <glyph glyph-name="tau" unicode="&#x3c4;" horiz-adv-x="460" 
d="M288 -12q-55 0 -77 31.5t-22 90.5v309h-163v62l70 5h338v-67h-164q-2 -82 -3 -161.5t-1 -153.5q0 -48 41 -48q11 0 23 2.5t24 5.5l12 -63q-14 -4 -34.5 -8.5t-43.5 -4.5z" />
    <glyph glyph-name="upsilon" unicode="&#x3c5;" horiz-adv-x="510" 
d="M249 -12q-87 0 -136 48t-49 144q0 44 2 87t2 86q0 29 -1.5 62t-6.5 71h80q5 -25 6.5 -53t1.5 -60q0 -41 -3 -96.5t-3 -100.5q0 -65 32.5 -92.5t75.5 -27.5q53 0 87.5 45t34.5 139q0 56 -8.5 114t-31.5 125l80 19q21 -63 32 -126.5t11 -128.5q0 -124 -57 -189.5
t-149 -65.5z" />
    <glyph glyph-name="phi" unicode="&#x3d5;" horiz-adv-x="680" 
d="M302 -179v170q-66 2 -124.5 32t-95 86t-36.5 135t36.5 134.5t95 85t124.5 31.5v127h76v-127q68 -2 126 -31.5t94 -85t36 -134.5t-36.5 -135t-95 -86t-124.5 -32v-170h-76zM131 244q0 -58 23 -100t62 -65t86 -25v378q-47 -2 -86 -25t-62 -64t-23 -99zM549 244
q0 86 -47.5 135.5t-123.5 52.5v-378q48 2 86.5 25t61.5 65t23 100z" />
    <glyph glyph-name="phi" unicode="&#x3c6;" horiz-adv-x="680" 
d="M302 -179v170q-66 2 -124.5 32t-95 86t-36.5 135t36.5 134.5t95 85t124.5 31.5v127h76v-127q68 -2 126 -31.5t94 -85t36 -134.5t-36.5 -135t-95 -86t-124.5 -32v-170h-76zM131 244q0 -58 23 -100t62 -65t86 -25v378q-47 -2 -86 -25t-62 -64t-23 -99zM549 244
q0 86 -47.5 135.5t-123.5 52.5v-378q48 2 86.5 25t61.5 65t23 100z" />
    <glyph glyph-name="chi" unicode="&#x3c7;" horiz-adv-x="481" 
d="M92 -191l-83 12l193 342l-190 314l82 21l147 -260h4l125 248h87l-173 -321l204 -335l-80 -21l-163 287h-4z" />
    <glyph glyph-name="psi" unicode="&#x3c8;" horiz-adv-x="689" 
d="M304 -179v167q-123 2 -179.5 67t-56.5 168v130q0 29 -1 62t-6 71h80q4 -25 5 -53t1 -60q0 -27 -0.5 -57t-1 -56t-0.5 -42q0 -73 39.5 -118t119.5 -45v567h77v-567q80 3 124 54t44 154q0 55 -8.5 103.5t-31.5 112.5l80 19q23 -61 33.5 -115t10.5 -117q0 -130 -66.5 -202.5
t-185.5 -75.5v-167h-77z" />
    <glyph glyph-name="omega" unicode="&#x3c9;" horiz-adv-x="701" 
d="M220 -12q-73 0 -121 60t-48 181q0 77 26 144.5t64 124.5l75 -33q-41 -60 -63.5 -117t-22.5 -134q0 -76 27 -117t67 -41q35 0 61.5 27.5t26.5 94.5q0 30 -2 60.5t-6 69.5h90q-4 -39 -6 -69.5t-2 -60.5q0 -70 26.5 -96t60.5 -26q41 0 67 42t26 129q0 50 -8 88.5t-25 74.5
t-45 77l74 31q40 -58 64 -119.5t24 -146.5q0 -122 -45.5 -183t-121.5 -61q-41 0 -77 21t-54 67h-4q-19 -46 -53 -67t-75 -21z" />
    <glyph glyph-name="iotadieresis" unicode="&#x3ca;" horiz-adv-x="262" 
d="M175 -12q-51 0 -72 29.5t-21 83.5v385h83q-1 -98 -3.5 -200.5t-2.5 -190.5q0 -39 34 -39q12 0 30 6l11 -62q-11 -5 -25 -8.5t-34 -3.5zM28 587q-22 0 -36 14.5t-14 35.5t14 35.5t36 14.5q21 0 35 -14.5t14 -35.5t-14 -35.5t-35 -14.5zM220 587q-21 0 -35 14.5t-14 35.5
t14 35.5t35 14.5q22 0 36 -14.5t14 -35.5t-14 -35.5t-36 -14.5z" />
    <glyph glyph-name="upsilondieresis" unicode="&#x3cb;" horiz-adv-x="510" 
d="M249 -12q-87 0 -136 48t-49 144q0 44 2 87t2 86q0 29 -1.5 62t-6.5 71h80q5 -25 6.5 -53t1.5 -60q0 -41 -3 -96.5t-3 -100.5q0 -65 32.5 -92.5t75.5 -27.5q53 0 87.5 45t34.5 139q0 56 -8.5 114t-31.5 125l80 19q21 -63 32 -126.5t11 -128.5q0 -124 -57 -189.5
t-149 -65.5zM148 587q-22 0 -36 14.5t-14 35.5t14 35.5t36 14.5q21 0 35 -14.5t14 -35.5t-14 -35.5t-35 -14.5zM340 587q-21 0 -35 14.5t-14 35.5t14 35.5t35 14.5q22 0 36 -14.5t14 -35.5t-14 -35.5t-36 -14.5z" />
    <glyph glyph-name="omicrontonos" unicode="&#x3cc;" horiz-adv-x="535" 
d="M267 -12q-60 0 -110.5 29.5t-80.5 86.5t-30 138q0 82 30 139t80.5 87t110.5 30q61 0 111.5 -30t80.5 -87t30 -139q0 -81 -30 -138t-80.5 -86.5t-111.5 -29.5zM267 56q65 0 101 51t36 135q0 85 -36 136.5t-101 51.5q-64 0 -100 -51.5t-36 -136.5q0 -84 36 -135t100 -51z
M293 558l-57 11l43 201l85 -15z" />
    <glyph glyph-name="upsilontonos" unicode="&#x3cd;" horiz-adv-x="510" 
d="M249 -12q-87 0 -136 48t-49 144q0 44 2 87t2 86q0 29 -1.5 62t-6.5 71h80q5 -25 6.5 -53t1.5 -60q0 -41 -3 -96.5t-3 -100.5q0 -65 32.5 -92.5t75.5 -27.5q53 0 87.5 45t34.5 139q0 56 -8.5 114t-31.5 125l80 19q21 -63 32 -126.5t11 -128.5q0 -124 -57 -189.5
t-149 -65.5zM268 558l-57 11l43 201l85 -15z" />
    <glyph glyph-name="omegatonos" unicode="&#x3ce;" horiz-adv-x="701" 
d="M220 -12q-73 0 -121 60t-48 181q0 77 26 144.5t64 124.5l75 -33q-41 -60 -63.5 -117t-22.5 -134q0 -76 27 -117t67 -41q35 0 61.5 27.5t26.5 94.5q0 30 -2 60.5t-6 69.5h90q-4 -39 -6 -69.5t-2 -60.5q0 -70 26.5 -96t60.5 -26q41 0 67 42t26 129q0 50 -8 88.5t-25 74.5
t-45 77l74 31q40 -58 64 -119.5t24 -146.5q0 -122 -45.5 -183t-121.5 -61q-41 0 -77 21t-54 67h-4q-19 -46 -53 -67t-75 -21zM374 558l-57 11l43 201l85 -15z" />
    <glyph glyph-name="uni03D0" unicode="&#x3d0;" horiz-adv-x="560" 
d="M305 -12q-39 0 -79 12.5t-73.5 40t-54 73.5t-20.5 112v265q0 67 21.5 119t65 82t109.5 30q46 0 87.5 -18.5t68 -56t26.5 -96.5q0 -54 -28 -96.5t-84 -69.5v-4q81 -7 126.5 -60t45.5 -132q0 -63 -28 -108t-76 -69t-107 -24zM303 60q57 0 94 36.5t37 97.5q0 38 -14.5 70
t-45.5 51.5t-81 19.5q-16 0 -47 -5.5t-90 -22.5v-33v-36q0 -54 15 -88.5t38 -54t48 -27.5t46 -8zM158 480q0 -32 -0.5 -59t-0.5 -51q82 16 130 41.5t68.5 59t20.5 73.5q0 57 -28.5 83.5t-68.5 26.5q-56 0 -87.5 -44t-33.5 -130z" />
    <glyph glyph-name="uni03D1" unicode="&#x3d1;" horiz-adv-x="522" 
d="M145 541q0 -31 10.5 -61t36.5 -52.5t72.5 -32t117.5 0.5q-3 96 -21 153t-48.5 82.5t-71.5 24.5q-41 0 -68.5 -31.5t-27.5 -83.5zM259 -12q-81 0 -126 45t-45 136q0 44 -1 70t-7 52h78q6 -16 6.5 -44t0.5 -68q0 -70 28.5 -96.5t68.5 -26.5q34 0 60.5 23.5t42.5 85.5
t17 176q-92 -12 -153.5 3t-97 47t-50.5 72.5t-15 78.5q0 54 23 95t62.5 64t86.5 23q111 0 168 -91.5t57 -270.5q0 -139 -25.5 -221t-71 -117.5t-107.5 -35.5z" />
    <glyph glyph-name="uni03D7" unicode="&#x3d7;" horiz-adv-x="494" 
d="M82 0v353q0 29 -1.5 65t-7.5 68h81q5 -19 7 -50t2 -63v-152h4q39 67 86 125t99 98.5t104 53.5l8 -78q-40 -13 -82 -43.5t-87 -79.5q25 -48 58 -101.5t70.5 -104.5t73.5 -91q-33 -52 -69.5 -102t-65.5 -85l-96 8q39 41 75 85.5t64 87.5q-26 29 -54.5 69.5t-56 85.5
t-50.5 89q-11 -13 -22.5 -28t-22.5 -31q-22 -29 -30.5 -67.5t-9.5 -86.5v-25h-77z" />
    <glyph glyph-name="uni03D9" unicode="&#x3d9;" horiz-adv-x="535" 
d="M267 54q65 0 101 51.5t36 136.5t-36 136.5t-101 51.5q-64 0 -100 -51.5t-36 -136.5t36 -136.5t100 -51.5zM230 -179v170q-52 9 -93.5 40.5t-66 85t-24.5 125.5q0 82 30 139t80.5 87t110.5 30q61 0 111.5 -30t80.5 -87t30 -139q0 -71 -23.5 -124t-64.5 -84.5t-92 -41.5
q1 -31 1.5 -56.5t1.5 -52.5t1 -62h-83z" />
    <glyph glyph-name="uni03DB" unicode="&#x3db;" horiz-adv-x="466" 
d="M351 -184l-66 27q27 32 38 50.5t11 36.5q0 20 -15.5 36t-73.5 30q-53 13 -98.5 41t-73 76.5t-27.5 124.5q0 85 32 140t87.5 81.5t123.5 26.5h151v-70q-29 2 -66.5 2h-78.5q-75 0 -119.5 -44.5t-44.5 -135.5q0 -79 43 -118t111 -56q70 -17 96.5 -42.5t26.5 -71.5
q0 -22 -14.5 -59t-42.5 -75z" />
    <glyph glyph-name="uni03DD" unicode="&#x3dd;" horiz-adv-x="413" 
d="M82 -179v665h305v-67h-228l2 -217h206v-59h-206q0 -81 1.5 -157.5t2.5 -164.5h-83z" />
    <glyph glyph-name="uni03E1" unicode="&#x3e1;" horiz-adv-x="498" 
d="M456 -179l-80 10q10 48 14 94t4 92q0 32 -2.5 63.5t-7.5 62.5q-63 -28 -124 -57t-129 -64l-34 69l272 122q-15 63 -42 119q-69 -31 -135 -62t-141 -69l-34 69l278 125q-42 71 -100.5 131t-132.5 103l51 61q116 -70 196.5 -175t122.5 -232.5t42 -266.5q0 -50 -4 -98
t-14 -97z" />
    <glyph glyph-name="uni0400" unicode="&#x400;" horiz-adv-x="527" 
d="M90 0v656h378v-70h-295v-206h249v-71h-249v-238h305v-71h-388zM307 697l-152 115l47 55l142 -128z" />
    <glyph glyph-name="uni0401" unicode="&#x401;" horiz-adv-x="527" 
d="M90 0v656h378v-70h-295v-206h249v-71h-249v-238h305v-71h-388zM187 715q-21 0 -35 14t-14 35q0 22 14 35.5t35 13.5q22 0 35.5 -13.5t13.5 -35.5q0 -21 -13.5 -35t-35.5 -14zM393 715q-22 0 -35.5 14t-13.5 35q0 22 13.5 35.5t35.5 13.5q21 0 35 -13.5t14 -35.5
q0 -21 -14 -35t-35 -14z" />
    <glyph glyph-name="uni0402" unicode="&#x402;" horiz-adv-x="687" 
d="M458 -12q-17 0 -35 3t-29 7l15 67q7 -3 18 -5.5t21 -2.5q24 0 49 12.5t41.5 42t16.5 79.5q0 74 -42 107.5t-119 33.5q-29 0 -56 -2.5t-48 -7.5v-322h-84v586h-178v70h491v-70h-229v-195q24 5 52.5 7.5t62.5 2.5q67 0 119.5 -21.5t83 -67.5t30.5 -120q0 -76 -26 -120.5
t-67 -64t-87 -19.5z" />
    <glyph glyph-name="uni0403" unicode="&#x403;" horiz-adv-x="498" 
d="M90 0v656h378v-70h-295v-586h-83zM273 697l-37 42l142 128l47 -55z" />
    <glyph glyph-name="uni0404" unicode="&#x404;" horiz-adv-x="571" 
d="M338 -12q-84 0 -148.5 38.5t-101 114.5t-36.5 187t37 186.5t102.5 114.5t150.5 39q59 0 106 -24.5t75 -56.5l-45 -54q-26 28 -60 45t-75 17q-87 0 -141.5 -55.5t-65.5 -159.5h275v-71h-276q5 -124 59 -186t147 -62q47 0 84 20t68 54l46 -52q-39 -45 -88 -70t-113 -25z
" />
    <glyph glyph-name="uni0405" unicode="&#x405;" horiz-adv-x="534" 
d="M272 -12q-69 0 -128 26.5t-102 70.5l50 58q35 -37 82.5 -59.5t98.5 -22.5q65 0 101 29.5t36 77.5q0 34 -14.5 54t-39 34t-55.5 28l-94 41q-31 13 -61.5 34t-51 54t-20.5 81q0 50 26.5 89.5t73.5 62t106 22.5t109 -22.5t85 -58.5l-45 -54q-30 29 -66.5 45.5t-82.5 16.5
q-55 0 -88.5 -26t-33.5 -70q0 -31 16.5 -51.5t41.5 -33.5t51 -24l93 -40q38 -16 68.5 -38.5t48.5 -55t18 -81.5q0 -52 -27 -94.5t-77 -67.5t-119 -25z" />
    <glyph glyph-name="uni0406" unicode="&#x406;" horiz-adv-x="263" 
d="M90 0v656h83v-656h-83z" />
    <glyph glyph-name="uni0407" unicode="&#x407;" horiz-adv-x="263" 
d="M90 0v656h83v-656h-83zM29 715q-21 0 -35 14t-14 35q0 22 14 35.5t35 13.5q22 0 35.5 -13.5t13.5 -35.5q0 -21 -13.5 -35t-35.5 -14zM235 715q-22 0 -35.5 14t-13.5 35q0 22 13.5 35.5t35.5 13.5q21 0 35 -13.5t14 -35.5q0 -21 -14 -35t-35 -14z" />
    <glyph glyph-name="uni0408" unicode="&#x408;" horiz-adv-x="480" 
d="M212 -12q-123 0 -181 105l60 42q22 -39 50 -56.5t63 -17.5q53 0 79 32.5t26 107.5v455h84v-463q0 -56 -18.5 -103t-58.5 -74.5t-104 -27.5z" />
    <glyph glyph-name="uni0409" unicode="&#x409;" horiz-adv-x="903" 
d="M62 -12q-16 0 -29 2t-27 7l17 77q14 -6 28 -6q18 0 32.5 11.5t29 49.5t30.5 115q20 103 38 203.5t37 208.5h308v-269h91q72 0 126.5 -19t85 -59.5t30.5 -106.5q0 -105 -65.5 -153.5t-175.5 -48.5h-175v586h-160q-16 -90 -30.5 -177.5t-30.5 -174.5q-19 -100 -41 -153.5
t-50.5 -73t-68.5 -19.5zM526 68h81q83 0 126.5 31t43.5 101q0 62 -43 91t-129 29h-79v-252z" />
    <glyph glyph-name="uni040A" unicode="&#x40a;" horiz-adv-x="929" 
d="M90 0v656h83v-275h295v275h84v-269h91q72 0 126.5 -19t85 -59.5t30.5 -106.5q0 -105 -65.5 -153.5t-175.5 -48.5h-176v309h-295v-309h-83zM552 68h81q83 0 126.5 31t43.5 101q0 62 -43 91t-129 29h-79v-252z" />
    <glyph glyph-name="uni040B" unicode="&#x40b;" horiz-adv-x="696" 
d="M206 0v586h-178v70h491v-70h-229v-195q24 5 53.5 7.5t57.5 2.5q107 0 167.5 -48t60.5 -158v-195h-82v195q0 74 -38.5 105.5t-115.5 31.5q-56 0 -103 -10v-322h-84z" />
    <glyph glyph-name="uni040C" unicode="&#x40c;" horiz-adv-x="580" 
d="M90 0v656h83v-277h113l92 167q28 50 50.5 76.5t45.5 36t52 9.5q21 0 36 -6l-14 -77q-7 2 -13 2.5t-11 0.5q-14 0 -26 -5.5t-25.5 -23.5t-33.5 -54l-87 -156l226 -349h-91l-202 311h-112v-311h-83zM306 701l-37 42l142 128l47 -55z" />
    <glyph glyph-name="uni040D" unicode="&#x40d;" horiz-adv-x="656" 
d="M90 0v656h82v-339q0 -52 -3.5 -105.5t-6.5 -103.5h4l71 134l241 414h88v-656h-82v343q0 52 3.5 104t6.5 101h-4l-71 -134l-241 -414h-88zM349 701l-152 115l47 55l142 -128z" />
    <glyph glyph-name="uni040E" unicode="&#x40e;" horiz-adv-x="514" 
d="M136 -12q-22 0 -36.5 2.5t-28.5 7.5l17 75q8 -3 18 -5t24 -2q32 0 52 12.5t33 40.5l14 35l-224 502h89l122 -292l50 -129h4l46 129l113 292h85l-215 -537q-25 -61 -63 -96t-100 -35zM257 705q-55 0 -87.5 19t-47 49.5t-16.5 63.5h72q2 -35 19.5 -60.5t59.5 -25.5t60 25.5
t19 60.5h72q-2 -33 -16.5 -63.5t-46.5 -49.5t-88 -19z" />
    <glyph glyph-name="uni040F" unicode="&#x40f;" horiz-adv-x="645" 
d="M287 -188v188h-197v656h83v-585h299v585h83v-656h-187l-8 -188h-73z" />
    <glyph glyph-name="uni0410" unicode="&#x410;" horiz-adv-x="544" 
d="M203 367l-31 -100h197l-31 100q-18 55 -34 109.5t-32 111.5h-4q-15 -57 -31 -111.5t-34 -109.5zM3 0l222 656h94l222 -656h-89l-62 200h-239l-63 -200h-85z" />
    <glyph glyph-name="uni0411" unicode="&#x411;" horiz-adv-x="580" 
d="M90 0v656h405v-70h-322v-206h126q70 0 124 -18t85 -57.5t31 -105.5q0 -103 -64 -151t-172 -48h-213zM173 66h116q84 0 126 32t42 99q0 63 -43 91t-127 28h-114v-250z" />
    <glyph glyph-name="uni0412" unicode="&#x412;" horiz-adv-x="588" 
d="M90 0v656h195q67 0 117.5 -16t79 -51t28.5 -93q0 -49 -24.5 -88.5t-71.5 -54.5v-4q59 -11 96.5 -50t37.5 -107q0 -64 -31.5 -107t-87.5 -64t-130 -21h-209zM173 377h97q84 0 121 29t37 79q0 57 -38.5 81t-115.5 24h-101v-213zM173 66h114q85 0 132 31.5t47 97.5
q0 61 -46.5 89.5t-132.5 28.5h-114v-247z" />
    <glyph glyph-name="uni0413" unicode="&#x413;" horiz-adv-x="498" 
d="M90 0v656h378v-70h-295v-586h-83z" />
    <glyph glyph-name="uni0414" unicode="&#x414;" horiz-adv-x="638" 
d="M223 293q-16 -83 -33.5 -137t-39.5 -85h305v515h-183q-10 -56 -17 -101.5t-14.5 -90.5t-17.5 -101zM108 0v-188h-73l-9 209v50h30q14 6 28.5 28t30.5 71.5t32 136.5q12 65 21 117.5t18.5 107t20.5 124.5h332v-585h73v-50l-9 -209h-73v188h-422z" />
    <glyph glyph-name="uni0415" unicode="&#x415;" horiz-adv-x="527" 
d="M90 0v656h378v-70h-295v-206h249v-71h-249v-238h305v-71h-388z" />
    <glyph glyph-name="uni0416" unicode="&#x416;" horiz-adv-x="805" 
d="M6 0l201 348l-70 157q-16 37 -30.5 54.5t-27.5 23t-28 5.5q-4 0 -11 -1t-13 -3l-14 78q15 6 36 6q30 0 55 -10t47.5 -36t45.5 -76l76 -167h90v277h79v-277h89l77 167q23 50 45.5 76t47.5 36t55 10q21 0 36 -6l-14 -78q-7 2 -13 3t-11 1q-14 0 -27.5 -5.5t-27.5 -23
t-31 -54.5l-70 -157l200 -348h-91l-170 311h-95v-311h-79v311h-95l-170 -311h-92z" />
    <glyph glyph-name="uni0417" unicode="&#x417;" horiz-adv-x="554" 
d="M278 -12q-71 0 -128.5 22.5t-107.5 73.5l47 57q44 -43 87.5 -61.5t100.5 -18.5q43 0 78 15t56 44t21 70q0 63 -46.5 93t-130.5 30h-74v64h54q86 0 124.5 29t38.5 84q0 52 -36.5 78.5t-91.5 26.5q-46 0 -85 -16.5t-69 -44.5l-45 56q35 35 88 56.5t113 21.5q92 0 150 -44.5
t58 -123.5q0 -52 -25.5 -91.5t-72.5 -56.5v-4q57 -11 94.5 -52.5t37.5 -109.5q0 -63 -31.5 -107t-85 -67.5t-119.5 -23.5z" />
    <glyph glyph-name="uni0418" unicode="&#x418;" horiz-adv-x="656" 
d="M90 0v656h82v-339q0 -52 -3.5 -105.5t-6.5 -103.5h4l71 134l241 414h88v-656h-82v343q0 52 3.5 104t6.5 101h-4l-71 -134l-241 -414h-88z" />
    <glyph glyph-name="uni0419" unicode="&#x419;" horiz-adv-x="656" 
d="M90 0v656h82v-339q0 -52 -3.5 -105.5t-6.5 -103.5h4l71 134l241 414h88v-656h-82v343q0 52 3.5 104t6.5 101h-4l-71 -134l-241 -414h-88zM332 709q-55 0 -87.5 19t-47 49.5t-16.5 63.5h72q2 -35 19.5 -60.5t59.5 -25.5t60 25.5t19 60.5h72q-2 -33 -16.5 -63.5
t-46.5 -49.5t-88 -19z" />
    <glyph glyph-name="uni041A" unicode="&#x41a;" horiz-adv-x="580" 
d="M90 0v656h83v-277h113l92 167q28 50 50.5 76.5t45.5 36t52 9.5q21 0 36 -6l-14 -77q-7 2 -13 2.5t-11 0.5q-14 0 -26 -5.5t-25.5 -23.5t-33.5 -54l-87 -156l226 -349h-91l-202 311h-112v-311h-83z" />
    <glyph glyph-name="uni041B" unicode="&#x41b;" horiz-adv-x="630" 
d="M56 -12q-16 0 -29 2t-27 7l17 77q15 -6 28 -6q18 0 33 11.5t29.5 49.5t29.5 115q20 103 38 203.5t37 208.5h328v-656h-83v586h-180q-16 -90 -30.5 -177t-31.5 -174q-18 -100 -40 -153.5t-50.5 -73.5t-68.5 -20z" />
    <glyph glyph-name="uni041C" unicode="&#x41c;" horiz-adv-x="727" 
d="M90 0v656h100l126 -350q12 -34 23.5 -68.5t23.5 -68.5h4q12 34 22.5 68.5t22.5 68.5l124 350h101v-656h-78v361q0 44 4 97.5t7 96.5h-4l-52 -149l-124 -340h-55l-124 340l-52 149h-4q3 -43 6.5 -96.5t3.5 -97.5v-361h-75z" />
    <glyph glyph-name="uni041D" unicode="&#x41d;" horiz-adv-x="652" 
d="M90 0v656h83v-275h305v275h84v-656h-84v309h-305v-309h-83z" />
    <glyph glyph-name="uni041E" unicode="&#x41e;" horiz-adv-x="664" 
d="M332 -12q-82 0 -145.5 42t-99 119t-35.5 182t35.5 180.5t99 116t145.5 40.5q83 0 146 -40.5t99 -116t36 -180.5t-36 -182t-99 -119t-146 -42zM332 61q59 0 102.5 33.5t67.5 94t24 142.5q0 122 -53 193t-141 71t-141 -71t-53 -193q0 -82 24 -142.5t68 -94t102 -33.5z" />
    <glyph glyph-name="uni041F" unicode="&#x41f;" horiz-adv-x="645" 
d="M90 0v656h465v-656h-83v586h-299v-586h-83z" />
    <glyph glyph-name="uni0420" unicode="&#x420;" horiz-adv-x="566" 
d="M90 0v656h187q74 0 129 -18t86 -60.5t31 -114.5q0 -103 -67 -153t-175 -50h-108v-260h-83zM173 328h98q86 0 127.5 32.5t41.5 102.5q0 71 -43.5 98.5t-129.5 27.5h-94v-261z" />
    <glyph glyph-name="uni0421" unicode="&#x421;" horiz-adv-x="571" 
d="M338 -12q-82 0 -146.5 40.5t-102 116.5t-37.5 183q0 106 38 182t104 117t149 41q60 0 106 -24.5t74 -56.5l-45 -54q-26 28 -59 45t-75 17q-62 0 -108.5 -32.5t-72 -91.5t-25.5 -141t25 -142.5t70.5 -93.5t107.5 -33q47 0 84 20t68 54l46 -52q-39 -45 -88 -70t-113 -25z
" />
    <glyph glyph-name="uni0422" unicode="&#x422;" horiz-adv-x="536" 
d="M226 0v586h-198v70h480v-70h-198v-586h-84z" />
    <glyph glyph-name="uni0423" unicode="&#x423;" horiz-adv-x="514" 
d="M136 -12q-22 0 -36.5 2.5t-28.5 7.5l17 75q8 -3 18 -5t24 -2q32 0 52 12.5t33 40.5l14 35l-224 502h89l122 -292l50 -129h4l46 129l113 292h85l-215 -537q-25 -61 -63 -96t-100 -35z" />
    <glyph glyph-name="uni0424" unicode="&#x424;" horiz-adv-x="732" 
d="M329 -12v94q-133 5 -207.5 69.5t-74.5 179.5t74.5 177.5t207.5 66.5v93h74v-93q133 -4 207.5 -66.5t74.5 -177.5t-74.5 -179.5t-207.5 -69.5v-94h-74zM127 331q0 -85 52.5 -133.5t149.5 -51.5v365q-97 -3 -149.5 -49t-52.5 -131zM605 331q0 85 -52 131t-150 49v-365
q98 3 150 51.5t52 133.5z" />
    <glyph glyph-name="uni0425" unicode="&#x425;" horiz-adv-x="513" 
d="M15 0l191 339l-178 317h92l89 -168q13 -22 24.5 -44t26.5 -51h4q14 29 24.5 51t22.5 44l87 168h88l-179 -321l191 -335h-92l-96 177q-13 24 -26.5 49.5t-29.5 55.5h-4q-14 -30 -27 -55.5t-25 -49.5l-95 -177h-88z" />
    <glyph glyph-name="uni0426" unicode="&#x426;" horiz-adv-x="642" 
d="M534 -188v188h-444v656h83v-585h287v585h83v-585h73v-50l-9 -209h-73z" />
    <glyph glyph-name="uni0427" unicode="&#x427;" horiz-adv-x="598" 
d="M425 0v294q-24 -4 -52.5 -7t-67.5 -3q-74 0 -127.5 20.5t-82 67.5t-28.5 126v158h82v-158q0 -82 42.5 -113.5t121.5 -31.5q37 0 64.5 3t47.5 7v293h83v-656h-83z" />
    <glyph glyph-name="uni0428" unicode="&#x428;" horiz-adv-x="865" 
d="M90 0v656h82v-585h220v585h81v-585h220v585h82v-656h-685z" />
    <glyph glyph-name="uni0429" unicode="&#x429;" horiz-adv-x="874" 
d="M90 0v656h82v-585h220v585h81v-585h220v585h82v-585h73v-50l-9 -209h-73v188h-676z" />
    <glyph glyph-name="uni042A" unicode="&#x42a;" horiz-adv-x="720" 
d="M238 0v586h-210v70h294v-269h108q70 0 125.5 -19.5t88 -60t32.5 -105.5q0 -105 -65.5 -153.5t-174.5 -48.5h-198zM322 68h104q83 0 125.5 31t42.5 101q0 60 -44.5 90t-130.5 30h-97v-252z" />
    <glyph glyph-name="uni042B" unicode="&#x42b;" horiz-adv-x="798" 
d="M90 0v656h83v-269h102q72 0 126.5 -19t85 -59.5t30.5 -106.5q0 -105 -65.5 -153.5t-175.5 -48.5h-186zM173 68h93q83 0 126 31t43 101q0 62 -43 91t-129 29h-90v-252zM625 0v656h83v-656h-83z" />
    <glyph glyph-name="uni042C" unicode="&#x42c;" horiz-adv-x="580" 
d="M90 0v656h83v-269h121q72 0 126.5 -19t85 -59.5t30.5 -106.5q0 -105 -65.5 -153.5t-175.5 -48.5h-205zM173 68h111q83 0 126.5 31t43.5 101q0 62 -43 91t-129 29h-109v-252z" />
    <glyph glyph-name="uni042D" unicode="&#x42d;" horiz-adv-x="571" 
d="M243 -12q-67 0 -118.5 25t-92.5 70l46 52q33 -34 72.5 -54t90.5 -20q86 0 138 62t56 186h-275v71h274q-9 104 -58.5 159.5t-135.5 55.5q-43 0 -80.5 -16.5t-66.5 -45.5l-46 54q32 32 83.5 56.5t112.5 24.5q83 0 145 -39t96.5 -114.5t34.5 -186.5t-35.5 -187t-98 -114.5
t-142.5 -38.5z" />
    <glyph glyph-name="uni042E" unicode="&#x42e;" horiz-adv-x="908" 
d="M586 61q57 0 98 33.5t63.5 94t22.5 142.5q0 122 -49 193t-135 71q-85 0 -134 -71t-49 -193q0 -82 22 -142.5t63.5 -94t97.5 -33.5zM586 -12q-77 0 -136 39t-93 111t-38 171h-146v-309h-83v656h83v-275h148q12 135 83 211t182 76q81 0 141.5 -40.5t94.5 -116t34 -180.5
t-34 -182t-94.5 -119t-141.5 -42z" />
    <glyph glyph-name="uni042F" unicode="&#x42f;" horiz-adv-x="582" 
d="M409 0v277h-121l-170 -277h-96l183 286q-64 17 -106 62t-42 124q0 68 29.5 108.5t81.5 58t119 17.5h205v-656h-83zM299 345h110v244h-110q-76 0 -117.5 -26t-41.5 -91q0 -64 41.5 -95.5t117.5 -31.5z" />
    <glyph glyph-name="uni0430" unicode="&#x430;" horiz-adv-x="504" 
d="M194 -12q-61 0 -101.5 36.5t-40.5 101.5q0 80 71.5 122.5t226.5 59.5q0 31 -8.5 59t-30 45.5t-61.5 17.5q-42 0 -79 -16t-66 -36l-32 57q34 22 83.5 42.5t107.5 20.5q89 0 129 -54.5t40 -145.5v-298h-68l-7 58h-3q-34 -28 -74.5 -49t-86.5 -21zM218 54q35 0 66 17t66 48
v135q-121 -15 -169.5 -45t-48.5 -77q0 -41 25 -59.5t61 -18.5z" />
    <glyph glyph-name="uni0431" unicode="&#x431;" horiz-adv-x="544" 
d="M132 279q0 -106 38 -164.5t112 -58.5q56 0 92.5 51.5t36.5 133.5q0 75 -34 119.5t-97 44.5q-35 0 -73 -19t-75 -69v-18.5v-19.5zM282 -12q-109 0 -169 80t-60 227q0 123 21.5 199t61.5 117.5t96.5 61.5t125.5 30q41 6 60 11.5t41 15.5l16 -75q-19 -13 -44 -19.5
t-56 -11.5q-58 -9 -101 -19.5t-71.5 -33t-44.5 -66t-22 -118.5q32 40 75.5 60.5t89.5 20.5q86 0 140.5 -60t54.5 -167q0 -77 -29 -134t-77.5 -88t-107.5 -31z" />
    <glyph glyph-name="uni0432" unicode="&#x432;" horiz-adv-x="508" 
d="M82 0v486h187q80 0 129.5 -28.5t49.5 -94.5q0 -40 -21.5 -66.5t-59.5 -37.5v-3q41 -10 71.5 -37t30.5 -80q0 -72 -54 -105.5t-138 -33.5h-195zM163 282h92q61 0 87 19.5t26 53.5t-25.5 53t-81.5 19h-98v-145zM163 59h105q60 0 89.5 22.5t29.5 62.5q0 37 -31 58t-93 21
h-100v-164z" />
    <glyph glyph-name="uni0433" unicode="&#x433;" horiz-adv-x="411" 
d="M82 0v486h303v-67h-221v-419h-82z" />
    <glyph glyph-name="uni0434" unicode="&#x434;" horiz-adv-x="532" 
d="M183 255q-8 -72 -21.5 -117t-30.5 -71h226v352h-155zM99 0v-172h-71l-9 187v52h24q14 8 25.5 25.5t22.5 59t20 119.5l26 215h302v-419h71v-52l-8 -187h-71v172h-332z" />
    <glyph glyph-name="uni0435" unicode="&#x435;" horiz-adv-x="496" 
d="M279 -12q-65 0 -118 30.5t-84 87.5t-31 136q0 80 31.5 137t81.5 88t105 31q93 0 143.5 -62t50.5 -166q0 -13 -0.5 -25.5t-2.5 -21.5h-328q5 -77 48.5 -123t113.5 -46q35 0 64.5 10.5t56.5 27.5l29 -54q-31 -20 -70.5 -35t-89.5 -15zM126 282h260q0 74 -31.5 112.5
t-88.5 38.5q-51 0 -91.5 -39.5t-48.5 -111.5z" />
    <glyph glyph-name="uni0436" unicode="&#x436;" horiz-adv-x="681" 
d="M13 0l153 255l-39 97q-16 42 -33 54t-37 12q-10 0 -16 -2l-15 77q13 5 29 5q40 0 71.5 -21t56.5 -83l44 -108h77v200h73v-200h77l44 108q26 62 57 83t71 21q16 0 28 -5l-14 -77q-6 2 -16 2q-19 0 -36.5 -12t-34.5 -54l-38 -97l153 -255h-89l-122 219h-80v-219h-73v219
h-80l-122 -219h-89z" />
    <glyph glyph-name="uni0437" unicode="&#x437;" horiz-adv-x="456" 
d="M221 -12q-50 0 -95.5 13.5t-88.5 48.5l35 53q34 -28 69.5 -38.5t72.5 -10.5q50 0 85.5 23.5t35.5 63.5q0 41 -32.5 61.5t-91.5 20.5h-67v59h55q59 0 88 20.5t29 56.5q0 37 -28.5 55.5t-72.5 18.5q-42 0 -72.5 -11t-59.5 -32l-35 54q35 25 77 39.5t94 14.5q48 0 88 -14
t64.5 -43t24.5 -74q0 -35 -21 -64t-59 -44v-4q42 -11 71.5 -39.5t29.5 -81.5q0 -45 -27.5 -77.5t-72 -50.5t-96.5 -18z" />
    <glyph glyph-name="uni0438" unicode="&#x438;" horiz-adv-x="565" 
d="M82 0v486h80v-202q0 -39 -2.5 -85.5t-5.5 -93.5h4q14 23 32.5 52.5t31.5 51.5l184 277h77v-486h-80v202q0 39 2.5 86t5.5 94h-4q-13 -22 -32 -52t-32 -52l-185 -278h-76z" />
    <glyph glyph-name="uni0439" unicode="&#x439;" horiz-adv-x="565" 
d="M82 0v486h80v-202q0 -39 -2.5 -85.5t-5.5 -93.5h4q14 23 32.5 52.5t31.5 51.5l184 277h77v-486h-80v202q0 39 2.5 86t5.5 94h-4q-13 -22 -32 -52t-32 -52l-185 -278h-76zM285 573q-56 0 -89.5 22t-49.5 57t-18 74h68q2 -43 21 -74t68 -31q50 0 69 31t20 74h68
q-2 -39 -18 -74t-49.5 -57t-89.5 -22z" />
    <glyph glyph-name="uni043A" unicode="&#x43a;" horiz-adv-x="498" 
d="M82 0v486h82v-200h94l48 108q20 44 39 66.5t41 30t48 7.5q16 0 28 -5l-14 -77q-6 2 -16 2q-19 0 -35 -11t-36 -55l-41 -96l165 -256h-90l-135 219h-96v-219h-82z" />
    <glyph glyph-name="uni043B" unicode="&#x43b;" horiz-adv-x="531" 
d="M54 -12q-13 0 -23 2t-21 6l16 76q5 -1 10 -2.5t12 -1.5q26 0 42 24.5t23 78.5q10 79 19 157.5t18 157.5h299v-486h-83v419h-151q-7 -67 -15.5 -134.5t-16.5 -134.5q-21 -162 -129 -162z" />
    <glyph glyph-name="uni043C" unicode="&#x43c;" horiz-adv-x="633" 
d="M82 0v486h95l95 -228q11 -30 22.5 -59.5t21.5 -58.5h4q11 29 22.5 58.5t21.5 59.5l93 228h94v-486h-75v218q0 22 1.5 51.5t4 60.5t4.5 56h-4q-10 -28 -22 -58t-23 -57l-92 -225h-55l-94 225q-10 27 -22 57t-23 58h-4q2 -25 4 -56t3.5 -60.5t1.5 -51.5v-218h-74z" />
    <glyph glyph-name="uni043D" unicode="&#x43d;" horiz-adv-x="562" 
d="M82 0v486h82v-197h234v197h82v-486h-82v216h-234v-216h-82z" />
    <glyph glyph-name="uni043E" unicode="&#x43e;" horiz-adv-x="542" 
d="M271 -12q-59 0 -110.5 30t-83 87t-31.5 137q0 82 31.5 139t83 87t110.5 30q60 0 111 -30t82.5 -87t31.5 -139q0 -80 -31.5 -137t-82.5 -87t-111 -30zM271 56q63 0 101.5 51.5t38.5 134.5q0 84 -38.5 136t-101.5 52q-62 0 -101 -52t-39 -136q0 -83 39 -134.5t101 -51.5z
" />
    <glyph glyph-name="uni043F" unicode="&#x43f;" horiz-adv-x="553" 
d="M82 0v486h389v-486h-82v419h-225v-419h-82z" />
    <glyph glyph-name="uni0440" unicode="&#x440;" horiz-adv-x="555" 
d="M82 -205v691h68l7 -56h3q33 28 72.5 48t82.5 20q94 0 143 -67.5t49 -180.5q0 -82 -29.5 -141t-77 -90t-103.5 -31q-34 0 -67.5 15t-67.5 41l2 -85v-164h-82zM283 57q60 0 99.5 51.5t39.5 141.5q0 80 -29.5 129.5t-98.5 49.5q-31 0 -62.5 -17t-67.5 -49v-255
q33 -28 64 -39.5t55 -11.5z" />
    <glyph glyph-name="uni0441" unicode="&#x441;" horiz-adv-x="456" 
d="M274 -12q-64 0 -116 30t-82 87t-30 137q0 82 32.5 139t86 87t115.5 30q48 0 82.5 -17t59.5 -40l-42 -54q-21 19 -44.5 31t-52.5 12q-44 0 -78.5 -23.5t-54 -66t-19.5 -98.5q0 -83 41.5 -134.5t108.5 -51.5q34 0 63 14.5t51 34.5l36 -55q-33 -29 -73 -45.5t-84 -16.5z" />
    </font>
</defs>
</svg>
